<svg xmlns="http://www.w3.org/2000/svg" viewBox="0 0 282.08 278.8">
  <g id="Layer_2" data-name="Layer 2">
    <g id="Layer_1-2" data-name="Layer 1">
      <g>
        <path d="M278.06,137.42a.23.23,0,0,1-.18-.08l-2.82-3.2a.26.26,0,0,1,0-.24.24.24,0,0,1,.18-.17l4.18-.84a.24.24,0,0,1,.23.08.25.25,0,0,1,.05.25l-1.36,4a.25.25,0,0,1-.19.17Zm-2.33-3.28,2.24,2.54,1.08-3.21Z" style="fill: #2c3742"/>
        <path d="M87,276.43H86.9l-2.5-.83a.25.25,0,0,1-.17-.19.24.24,0,0,1,.08-.24l2-1.75a.26.26,0,0,1,.24-.05.25.25,0,0,1,.17.19l.53,2.58a.24.24,0,0,1-.08.24A.23.23,0,0,1,87,276.43Zm-2-1.18,1.68.56-.35-1.74Z" style="fill: #2c3742"/>
        <path d="M172.61,68.15l-.11,0a.26.26,0,0,1-.14-.21l-.31-4a.26.26,0,0,1,.11-.23.25.25,0,0,1,.25,0l3.6,1.73a.22.22,0,0,1,.14.2.25.25,0,0,1-.1.23l-3.3,2.26A.23.23,0,0,1,172.61,68.15Zm0-3.82.25,3.12,2.58-1.77Z" style="fill: #2c3742"/>
        <path d="M137.41,133.08a.27.27,0,0,1-.21-.12l-1.66-2.68a.25.25,0,0,1,0-.25.23.23,0,0,1,.21-.13l3.15-.09a.24.24,0,0,1,.22.11.25.25,0,0,1,0,.25L137.63,133a.23.23,0,0,1-.21.13Zm-1.21-2.69,1.2,1.94,1.08-2Z" style="fill: #2c3742"/>
        <path d="M230.37,241.83l-.08,0a.24.24,0,0,1-.16-.19l-2-12.23a.27.27,0,0,1,.09-.24.28.28,0,0,1,.25,0l11.58,4.41a.26.26,0,0,1,.16.19.27.27,0,0,1-.09.24l-9.61,7.82A.23.23,0,0,1,230.37,241.83Zm-1.65-12.1,1.83,11.38,8.94-7.28Z" style="fill: #2c3742"/>
        <path d="M36.09,101.2a.27.27,0,0,1-.15,0,.25.25,0,0,1-.09-.24l.86-5.45a.24.24,0,0,1,.15-.2.25.25,0,0,1,.25,0l4.3,3.47a.27.27,0,0,1,.09.24.28.28,0,0,1-.16.19l-5.16,2Zm1-5.24-.72,4.6,4.35-1.67Z" style="fill: #2c3742"/>
        <path d="M108.33,175a.29.29,0,0,1-.18-.07.27.27,0,0,1-.07-.24l1-4.23a.23.23,0,0,1,.17-.18.23.23,0,0,1,.24.05l3.15,3a.24.24,0,0,1,.07.24.28.28,0,0,1-.17.18l-4.18,1.22Zm1.17-4-.83,3.39,3.35-1Z" style="fill: #2c3742"/>
        <path d="M95.75,80.55a.18.18,0,0,1-.1,0l-5.08-2.07a.23.23,0,0,1-.15-.19.24.24,0,0,1,.09-.23l4.34-3.37a.24.24,0,0,1,.24,0,.25.25,0,0,1,.16.2L96,80.27a.25.25,0,0,1-.1.23A.27.27,0,0,1,95.75,80.55Zm-4.59-2.39,4.28,1.75-.63-4.58Z" style="fill: #2c3742"/>
        <path d="M5.39,253.83l-.07,0a.23.23,0,0,1-.17-.18l-.64-2.88a.23.23,0,0,1,.08-.23.26.26,0,0,1,.24-.06l2.81.89a.23.23,0,0,1,.17.18.24.24,0,0,1-.08.24l-2.17,2A.24.24,0,0,1,5.39,253.83Zm-.3-2.76.45,2,1.54-1.41Z" style="fill: #2c3742"/>
        <path d="M64.52,131.9a.2.2,0,0,1-.13,0l-10.12-5.65a.25.25,0,0,1-.13-.22.26.26,0,0,1,.12-.21l10-5.94a.25.25,0,0,1,.25,0,.26.26,0,0,1,.13.22l.17,11.59a.25.25,0,0,1-.13.22A.28.28,0,0,1,64.52,131.9ZM54.89,126l9.37,5.24-.15-10.73Z" style="fill: #2c3742"/>
        <path d="M213.11,141.14l-.09,0a.26.26,0,0,1-.16-.19l-.46-2.45a.26.26,0,0,1,.09-.23.23.23,0,0,1,.24-.05l2.35.83a.25.25,0,0,1,.17.19.27.27,0,0,1-.09.24l-1.89,1.62A.25.25,0,0,1,213.11,141.14Zm-.13-2.32.29,1.6,1.24-1.06Z" style="fill: #2c3742"/>
        <path d="M41.6,33.15a.15.15,0,0,1-.09,0l-7.88-3a.27.27,0,0,1-.16-.2.25.25,0,0,1,.09-.23l6.56-5.31a.22.22,0,0,1,.24,0,.22.22,0,0,1,.16.19l1.33,8.33a.27.27,0,0,1-.09.24A.3.3,0,0,1,41.6,33.15ZM34.22,29.8l7.06,2.71L40.1,25Z" style="fill: #2c3742"/>
        <path d="M277.91,74.52h-.08l-3.91-1.23a.26.26,0,0,1-.17-.18.26.26,0,0,1,.07-.24l3-2.78a.25.25,0,0,1,.25,0,.24.24,0,0,1,.17.18l.89,4a.25.25,0,0,1-.07.23A.23.23,0,0,1,277.91,74.52Zm-3.43-1.59,3.09,1-.71-3.16Z" style="fill: #2c3742"/>
        <path d="M234,262.09h0l-9.7-.64a.22.22,0,0,1-.2-.14.23.23,0,0,1,0-.24l5.4-8.09a.28.28,0,0,1,.22-.11.26.26,0,0,1,.21.14l4.3,8.72a.25.25,0,0,1,0,.25A.26.26,0,0,1,234,262.09ZM224.75,261l8.83.58-3.91-7.94Z" style="fill: #2c3742"/>
        <path d="M35.51,157.71h0l-4-.54a.26.26,0,0,1-.2-.15.25.25,0,0,1,0-.25l2.44-3.17a.27.27,0,0,1,.24-.09.24.24,0,0,1,.19.15l1.52,3.71a.25.25,0,0,1-.23.34Zm-3.5-1,3.11.43-1.19-2.91Z" style="fill: #2c3742"/>
        <path d="M205.35,9.35a.15.15,0,0,1-.09,0,.26.26,0,0,1-.16-.19l-1-6.41a.25.25,0,0,1,.08-.23.25.25,0,0,1,.25,0l6.07,2.31a.26.26,0,0,1,.16.19.24.24,0,0,1-.09.23l-5,4.1A.27.27,0,0,1,205.35,9.35Zm-.72-6.27.9,5.55,4.36-3.55Z" style="fill: #2c3742"/>
        <path d="M265.56,28.54h0l-4.42-.3a.26.26,0,0,1-.19-.39l2.47-3.68a.27.27,0,0,1,.23-.11.26.26,0,0,1,.21.14l2,4a.28.28,0,0,1,0,.25A.26.26,0,0,1,265.56,28.54Zm-4-.77,3.56.24-1.57-3.2Z" style="fill: #2c3742"/>
        <path d="M26.19,265.15a.23.23,0,0,1-.16-.06l-7.54-6.38a.22.22,0,0,1-.08-.23.22.22,0,0,1,.16-.19L27.86,255a.26.26,0,0,1,.24,0,.27.27,0,0,1,.09.24l-1.75,9.71a.25.25,0,0,1-.17.19Zm-7-6.54L26,264.43l1.6-8.86Z" style="fill: #2c3742"/>
        <path d="M107.5,16.91h-.07a.25.25,0,0,1-.18-.18l-.62-2.5a.24.24,0,0,1,.06-.24.26.26,0,0,1,.25-.06l2.48.71a.24.24,0,0,1,.17.18.25.25,0,0,1-.07.24l-1.85,1.79A.23.23,0,0,1,107.5,16.91Zm-.28-2.39.41,1.66L108.86,15Z" style="fill: #2c3742"/>
        <path d="M73.25,177.42l-.08,0-9.13-3a.25.25,0,0,1-.17-.19.24.24,0,0,1,.08-.24l7.21-6.39a.23.23,0,0,1,.24,0,.25.25,0,0,1,.17.19l1.93,9.44a.24.24,0,0,1-.08.23A.23.23,0,0,1,73.25,177.42ZM64.6,174l8.32,2.77-1.75-8.59Z" style="fill: #2c3742"/>
        <path d="M32.5,84.3a.28.28,0,0,1-.17-.07l-1.9-1.81a.24.24,0,0,1-.07-.24.24.24,0,0,1,.17-.18l2.52-.74a.22.22,0,0,1,.24.06.24.24,0,0,1,.07.24l-.62,2.55a.26.26,0,0,1-.17.18Zm-1.41-2,1.27,1.22.41-1.71Z" style="fill: #2c3742"/>
        <path d="M242.93,263.31a.27.27,0,0,1-.12,0,.23.23,0,0,1-.13-.21l-.46-13.82a.23.23,0,0,1,.12-.22.25.25,0,0,1,.25,0l12.19,6.51a.24.24,0,0,1,0,.43l-11.74,7.31A.2.2,0,0,1,242.93,263.31Zm-.2-13.64.44,13,11-6.85Z" style="fill: #2c3742"/>
        <path d="M53.84,27.57h-.07a.25.25,0,0,1-.17-.19L51.3,17.31a.26.26,0,0,1,.07-.24.26.26,0,0,1,.25-.06l9.86,3a.25.25,0,0,1,.17.19.27.27,0,0,1-.07.24L54,27.5A.28.28,0,0,1,53.84,27.57Zm-2-9.95L54,26.84l6.93-6.44Z" style="fill: #2c3742"/>
        <path d="M44.51,262.15h0a.23.23,0,0,1-.21-.13L41.17,256a.25.25,0,0,1,0-.25.24.24,0,0,1,.22-.11l6.81.32a.26.26,0,0,1,.21.14.28.28,0,0,1,0,.25L44.72,262A.24.24,0,0,1,44.51,262.15Zm-2.7-6,2.73,5.28,3.21-5Z" style="fill: #2c3742"/>
        <path d="M101.07,234.37a.23.23,0,0,1-.17-.07.26.26,0,0,1-.07-.24l2.49-10.1a.27.27,0,0,1,.17-.19.26.26,0,0,1,.25.07l7.5,7.2a.24.24,0,0,1,.07.24.23.23,0,0,1-.17.18l-10,2.9Zm2.63-9.87-2.28,9.26,9.16-2.66Z" style="fill: #2c3742"/>
        <path d="M121.3,223.84a.24.24,0,0,1-.15-.06.23.23,0,0,1-.09-.23l.36-2.7a.24.24,0,0,1,.16-.2.26.26,0,0,1,.24,0l2.16,1.67a.27.27,0,0,1,.1.23.24.24,0,0,1-.15.2l-2.53,1Zm.56-2.5-.25,1.85,1.72-.71Z" style="fill: #2c3742"/>
        <path d="M277.74,7.46l-.11,0-3.32-1.53a.27.27,0,0,1-.15-.21.27.27,0,0,1,.11-.22l3-2.12a.25.25,0,0,1,.25,0,.23.23,0,0,1,.14.2L278,7.19a.24.24,0,0,1-.11.23A.23.23,0,0,1,277.74,7.46Zm-2.83-1.83,2.54,1.17L277.19,4Z" style="fill: #2c3742"/>
        <path d="M140.31,29.54a.2.2,0,0,1-.11,0l-5.4-2.75a.26.26,0,0,1-.14-.21.25.25,0,0,1,.12-.22l5.08-3.3a.23.23,0,0,1,.24,0,.24.24,0,0,1,.14.21l.32,6a.28.28,0,0,1-.11.23A.37.37,0,0,1,140.31,29.54Zm-4.9-3L140,28.87l-.28-5.19Z" style="fill: #2c3742"/>
        <path d="M238.52,36.93h-.08a.26.26,0,0,1-.16-.19l-3.13-14.94a.24.24,0,0,1,.08-.24.25.25,0,0,1,.25-.05L250,26.27a.23.23,0,0,1,.17.18.24.24,0,0,1-.08.24L238.69,36.87A.27.27,0,0,1,238.52,36.93Zm-2.79-14.82,3,14.1,10.73-9.6Z" style="fill: #2c3742"/>
        <path d="M121.81,151.32a.27.27,0,0,1-.21-.12.25.25,0,0,1,0-.25l6.58-12.09a.23.23,0,0,1,.21-.13.21.21,0,0,1,.22.12l7.18,11.75a.25.25,0,0,1,0,.25.32.32,0,0,1-.22.13l-13.76.34Zm6.6-11.84-6.17,11.33,12.9-.32Z" style="fill: #2c3742"/>
        <path d="M249.93,237a.23.23,0,0,1-.17-.07.25.25,0,0,1-.07-.23l.73-3.26a.25.25,0,0,1,.17-.19.26.26,0,0,1,.24.06l2.46,2.26a.26.26,0,0,1,.07.24.26.26,0,0,1-.17.18L250,237Zm.88-3-.54,2.41,2.36-.74Z" style="fill: #2c3742"/>
        <path d="M91.91,152.68a.26.26,0,0,1-.2-.1l-2-2.65a.28.28,0,0,1,0-.25.26.26,0,0,1,.2-.15l3.31-.43a.24.24,0,0,1,.23.09.25.25,0,0,1,0,.25l-1.28,3.08a.25.25,0,0,1-.2.16ZM90.34,150l1.51,2,.94-2.28Z" style="fill: #2c3742"/>
        <path d="M199.69,195.07a.24.24,0,0,1-.2-.11.21.21,0,0,1,0-.24L204.91,182a.24.24,0,0,1,.2-.15.26.26,0,0,1,.23.1l8.25,11.06a.26.26,0,0,1,0,.24.24.24,0,0,1-.2.15l-13.7,1.62Zm5.5-12.43-5.1,11.88L212.93,193Z" style="fill: #2c3742"/>
        <path d="M254.73,49.41h0a.25.25,0,0,1-.19-.17l-3.06-9.34a.24.24,0,0,1,0-.24.24.24,0,0,1,.24-.08l9.62,2a.26.26,0,0,1,.18.16.25.25,0,0,1,0,.25l-6.56,7.32A.23.23,0,0,1,254.73,49.41ZM252,40.16l2.79,8.51,6-6.67Z" style="fill: #2c3742"/>
        <path d="M19.67,145.16H19.6a.23.23,0,0,1-.17-.18l-2.62-10.71a.23.23,0,0,1,.07-.24.26.26,0,0,1,.24-.06l10.58,3.09a.25.25,0,0,1,.1.42l-8,7.62A.22.22,0,0,1,19.67,145.16Zm-2.28-10.59,2.42,9.86,7.34-7Z" style="fill: #2c3742"/>
        <path d="M72.06,65.41a.27.27,0,0,1-.12,0L67.48,63a.26.26,0,0,1-.13-.22.25.25,0,0,1,.12-.22l4.32-2.65a.25.25,0,0,1,.25,0,.26.26,0,0,1,.13.22l.14,5.06a.26.26,0,0,1-.12.22A.22.22,0,0,1,72.06,65.41Zm-4-2.68,3.7,2-.12-4.2Z" style="fill: #2c3742"/>
        <path d="M167.61,235.69a.22.22,0,0,1-.21-.12.25.25,0,0,1,0-.25l1.17-2.18a.23.23,0,0,1,.21-.13.28.28,0,0,1,.22.11l1.31,2.11a.25.25,0,0,1,0,.25.26.26,0,0,1-.22.13l-2.47.08Zm1.18-1.93-.76,1.42,1.62-.06Z" style="fill: #2c3742"/>
        <path d="M110.9,157.41a.25.25,0,0,1-.21-.12L109,154.5a.25.25,0,0,1,0-.25.23.23,0,0,1,.21-.13l3.27-.08a.29.29,0,0,1,.22.12.25.25,0,0,1,0,.25l-1.57,2.87a.23.23,0,0,1-.21.13Zm-1.26-2.8,1.25,2,1.15-2.11Z" style="fill: #2c3742"/>
        <path d="M278.76,182.27h-.05l-9.26-2a.26.26,0,0,1-.18-.16.25.25,0,0,1,.05-.25l6.33-7a.29.29,0,0,1,.23-.08.27.27,0,0,1,.19.17l2.93,9a.25.25,0,0,1-.05.25A.27.27,0,0,1,278.76,182.27ZM270,179.9l8.41,1.78-2.66-8.17Z" style="fill: #2c3742"/>
        <path d="M92.22,259.82a.27.27,0,0,1-.22-.12l-1.28-2.13a.25.25,0,0,1,0-.25.26.26,0,0,1,.22-.13l2.48-.05a.28.28,0,0,1,.22.12.25.25,0,0,1,0,.25l-1.2,2.18a.26.26,0,0,1-.22.13Zm-.85-2.14.84,1.39.78-1.42Z" style="fill: #2c3742"/>
        <path d="M257.21,14.43h0a.26.26,0,0,1-.21-.14l-5.59-11a.25.25,0,0,1,0-.25.22.22,0,0,1,.23-.11L264,3.56a.26.26,0,0,1,.21.14.25.25,0,0,1,0,.25l-6.78,10.37A.26.26,0,0,1,257.21,14.43ZM252,3.4l5.2,10.28L263.54,4Z" style="fill: #2c3742"/>
        <path d="M117.7,8.29a.23.23,0,0,1-.2-.11l-3.15-4.54a.28.28,0,0,1,0-.25.26.26,0,0,1,.21-.14L120,2.8a.24.24,0,0,1,.23.11.25.25,0,0,1,0,.25l-2.36,5a.26.26,0,0,1-.21.14ZM115,3.71l2.65,3.83,2-4.21Z" style="fill: #2c3742"/>
        <path d="M51.75,5.19l-.12,0A.23.23,0,0,1,51.5,5l-.11-2.7A.24.24,0,0,1,51.5,2a.25.25,0,0,1,.25,0l2.39,1.25a.26.26,0,0,1,.14.21.27.27,0,0,1-.12.23L51.88,5.15A.33.33,0,0,1,51.75,5.19Zm.15-2.53L52,4.49l1.55-1Z" style="fill: #2c3742"/>
        <path d="M262.46,68.51h-.06L252.74,66a.24.24,0,0,1-.17-.18.24.24,0,0,1,.06-.24l7-7.09a.24.24,0,0,1,.24-.07.25.25,0,0,1,.18.18l2.63,9.62a.26.26,0,0,1-.06.25A.29.29,0,0,1,262.46,68.51Zm-9.17-2.91,8.82,2.31-2.41-8.79Z" style="fill: #2c3742"/>
        <path d="M126.73,91.37h0L120.86,91a.26.26,0,0,1-.21-.14.25.25,0,0,1,0-.25l3.25-4.89a.25.25,0,0,1,.43,0L127,91a.25.25,0,0,1,0,.25A.24.24,0,0,1,126.73,91.37Zm-5.41-.85,5,.32-2.23-4.48Z" style="fill: #2c3742"/>
        <path d="M277,231.72a.2.2,0,0,1-.11,0l-13.3-6.47a.25.25,0,0,1,0-.43l12.26-8.28a.25.25,0,0,1,.25,0,.26.26,0,0,1,.14.21l1,14.75a.24.24,0,0,1-.11.22A.24.24,0,0,1,277,231.72ZM264.24,225l12.52,6.09-1-13.89Z" style="fill: #2c3742"/>
        <path d="M191.52,119.46l-.08,0-3.2-1.08a.24.24,0,0,1-.17-.18.24.24,0,0,1,.08-.24l2.54-2.23a.23.23,0,0,1,.24,0,.25.25,0,0,1,.17.19l.66,3.31a.23.23,0,0,1-.08.23A.24.24,0,0,1,191.52,119.46ZM188.81,118l2.38.8-.5-2.46Z" style="fill: #2c3742"/>
        <path d="M181.93,51.34h-.06a.24.24,0,0,1-.18-.18l-1-3.89a.26.26,0,0,1,.07-.24A.26.26,0,0,1,181,47l3.85,1.1a.24.24,0,0,1,.18.18.28.28,0,0,1-.07.24l-2.88,2.79A.24.24,0,0,1,181.93,51.34Zm-.62-3.78.76,3,2.26-2.19Z" style="fill: #2c3742"/>
        <path d="M127.49,44h0a.25.25,0,0,1-.19-.17l-1.84-6a.26.26,0,0,1,.06-.25.26.26,0,0,1,.24-.07l6.1,1.4a.23.23,0,0,1,.18.17.24.24,0,0,1-.05.24L127.68,44A.27.27,0,0,1,127.49,44ZM126,38.13l1.58,5.16,3.68-3.95Z" style="fill: #2c3742"/>
        <path d="M5.78,8.61H5.72a.27.27,0,0,1-.18-.18l-2-7.27A.26.26,0,0,1,3.55.91.26.26,0,0,1,3.8.84L11.12,2.7a.24.24,0,0,1,.18.18.27.27,0,0,1-.06.24L6,8.53A.23.23,0,0,1,5.78,8.61ZM4.09,1.43,5.91,7.87l4.67-4.79Z" style="fill: #2c3742"/>
        <path d="M32.78,116.76a.23.23,0,0,1-.19-.09.26.26,0,0,1,0-.25l2-4.81a.24.24,0,0,1,.2-.15.23.23,0,0,1,.23.09l3.17,4.13a.25.25,0,0,1,0,.25.24.24,0,0,1-.2.15l-5.15.68Zm2.06-4.56-1.66,4,4.3-.57Z" style="fill: #2c3742"/>
        <path d="M35.82,179.17a.24.24,0,0,1-.21-.11l-5.73-8.73a.25.25,0,0,1,0-.25.26.26,0,0,1,.21-.14l10.42-.59a.24.24,0,0,1,.24.36L36,179a.23.23,0,0,1-.21.13Zm-5.28-8.75,5.25,8,4.31-8.55Z" style="fill: #2c3742"/>
        <path d="M159.48,157.89h-.1a.28.28,0,0,1-.15-.2l-.91-7.28a.26.26,0,0,1,.1-.23.27.27,0,0,1,.25,0l6.75,2.85a.24.24,0,0,1,.15.2.25.25,0,0,1-.1.23l-5.84,4.42A.23.23,0,0,1,159.48,157.89Zm-.61-7.12.8,6.41,5.16-3.9Z" style="fill: #2c3742"/>
        <path d="M74,44.69h0L62.8,44a.26.26,0,0,1-.21-.14.25.25,0,0,1,0-.25l6.17-9.38a.24.24,0,0,1,.23-.11.23.23,0,0,1,.21.13l5,10a.25.25,0,0,1-.23.36ZM63.26,43.56l10.34.61L69,34.9Z" style="fill: #2c3742"/>
        <path d="M8.64,60.55h0L5,60.44a.23.23,0,0,1-.21-.13.25.25,0,0,1,0-.25L6.69,57a.29.29,0,0,1,.22-.12.29.29,0,0,1,.22.13l1.73,3.21a.25.25,0,0,1,0,.25A.24.24,0,0,1,8.64,60.55ZM5.44,60,8.21,60,6.89,57.59Z" style="fill: #2c3742"/>
        <path d="M222.09,43.31l-.1,0-2.32-.95a.26.26,0,0,1-.15-.2.24.24,0,0,1,.09-.23l2-1.53a.25.25,0,0,1,.25,0,.26.26,0,0,1,.15.2l.34,2.49a.26.26,0,0,1-.1.23A.27.27,0,0,1,222.09,43.31ZM220.26,42l1.52.63L221.56,41Z" style="fill: #2c3742"/>
        <path d="M277.66,245.7a.25.25,0,0,1-.18-.08l-2.31-2.52a.23.23,0,0,1-.05-.24.26.26,0,0,1,.18-.17l3.33-.74a.24.24,0,0,1,.24.08.26.26,0,0,1,.06.24l-1,3.25a.26.26,0,0,1-.18.17Zm-1.82-2.62,1.71,1.88.77-2.43Z" style="fill: #2c3742"/>
        <path d="M151.68,277h0l-10.53-.33a.23.23,0,0,1-.21-.13.25.25,0,0,1,0-.25l5.54-9a.27.27,0,0,1,.22-.11.25.25,0,0,1,.22.13l5,9.28a.25.25,0,0,1,0,.25A.27.27,0,0,1,151.68,277Zm-10.09-.82,9.66.3L146.68,268Z" style="fill: #2c3742"/>
        <path d="M256.87,198.72a.24.24,0,0,1-.24-.31l2.38-8.87a.24.24,0,0,1,.18-.17.26.26,0,0,1,.24.06l6.48,6.5a.24.24,0,0,1,.07.24.25.25,0,0,1-.18.18l-8.87,2.36Zm2.51-8.63-2.16,8,8-2.14Z" style="fill: #2c3742"/>
        <path d="M123,258.55a.27.27,0,0,1-.12,0,.23.23,0,0,1-.13-.21l0-2.67a.25.25,0,0,1,.12-.22.23.23,0,0,1,.25,0l2.33,1.29a.25.25,0,0,1,.13.22.24.24,0,0,1-.12.21l-2.29,1.38A.28.28,0,0,1,123,258.55Zm.21-2.49,0,1.8,1.55-.92Z" style="fill: #2c3742"/>
        <path d="M186.05,32.19a.28.28,0,0,1-.19-.09l-8.09-9.16a.28.28,0,0,1-.05-.25.26.26,0,0,1,.19-.16l12-2.42a.24.24,0,0,1,.24.08.23.23,0,0,1,.05.24L186.29,32a.25.25,0,0,1-.19.17Zm-7.61-9.26L186,31.44l3.61-10.76Z" style="fill: #2c3742"/>
        <path d="M135.42,55.09l-.1,0a.24.24,0,0,1-.15-.2l-.33-2.8a.24.24,0,0,1,.1-.23.26.26,0,0,1,.24,0l2.59,1.11a.27.27,0,0,1,.15.21.24.24,0,0,1-.1.22L135.56,55A.24.24,0,0,1,135.42,55.09Zm0-2.65.23,1.94,1.56-1.17Z" style="fill: #2c3742"/>
        <path d="M34.5,205.72h0l-12.66-3a.28.28,0,0,1-.18-.17.28.28,0,0,1,.06-.25l8.89-9.47a.28.28,0,0,1,.24-.07A.25.25,0,0,1,31,193l3.75,12.44a.22.22,0,0,1-.06.24A.23.23,0,0,1,34.5,205.72Zm-12.17-3.36,11.81,2.77-3.51-11.61Z" style="fill: #2c3742"/>
        <path d="M188.91,260.09h-.07l-4.29-1.19a.29.29,0,0,1-.18-.18.26.26,0,0,1,.07-.24l3.19-3.13a.25.25,0,0,1,.41.12l1.11,4.32a.23.23,0,0,1-.06.24A.24.24,0,0,1,188.91,260.09Zm-3.81-1.57,3.46,1-.89-3.48Z" style="fill: #2c3742"/>
        <path d="M220,28.21h-.07a.25.25,0,0,1-.17-.19L219,24.73a.24.24,0,0,1,.08-.24.26.26,0,0,1,.24-.06l3.22,1a.25.25,0,0,1,.17.19.24.24,0,0,1-.07.24l-2.47,2.29A.26.26,0,0,1,220,28.21ZM219.55,25l.56,2.44,1.83-1.71Z" style="fill: #2c3742"/>
        <path d="M4.42,99.17h0A.24.24,0,0,1,4.18,99L2.62,94.28a.25.25,0,0,1,0-.25A.24.24,0,0,1,2.91,94l4.87,1a.25.25,0,0,1,.19.17.29.29,0,0,1,0,.24L4.61,99.09A.27.27,0,0,1,4.42,99.17ZM3.23,94.53l1.29,3.9,2.73-3.07Z" style="fill: #2c3742"/>
        <path d="M177.88,5.69a.24.24,0,0,1-.14-.05L175.1,3.87a.24.24,0,0,1-.11-.23.21.21,0,0,1,.14-.2L178,2a.25.25,0,0,1,.25,0,.23.23,0,0,1,.11.22l-.21,3.18a.26.26,0,0,1-.14.21A.23.23,0,0,1,177.88,5.69Zm-2.15-2L177.66,5l.16-2.32Z" style="fill: #2c3742"/>
        <path d="M239.53,7.3a.27.27,0,0,1-.22-.12L237.37,4a.25.25,0,0,1,0-.25.23.23,0,0,1,.21-.13l3.72-.1a.25.25,0,0,1,.22.12.25.25,0,0,1,0,.25l-1.77,3.27a.26.26,0,0,1-.22.13ZM238,4.12l1.49,2.43L240.87,4Z" style="fill: #2c3742"/>
        <path d="M147.78,46.83h0a.26.26,0,0,1-.22-.12l-1.43-2.53a.23.23,0,0,1,0-.25.22.22,0,0,1,.21-.12h0l2.9,0a.27.27,0,0,1,.22.12.25.25,0,0,1,0,.25L148,46.71A.22.22,0,0,1,147.78,46.83Zm-1-2.52,1,1.77,1-1.76Z" style="fill: #2c3742"/>
        <path d="M182.15,103.05A.22.22,0,0,1,182,103a.26.26,0,0,1-.06-.24l2.29-7.21a.23.23,0,0,1,.18-.16.26.26,0,0,1,.24.07l5.1,5.58a.25.25,0,0,1-.13.41l-7.38,1.63Zm2.39-7-2,6.38,6.54-1.44Z" style="fill: #2c3742"/>
        <path d="M70.69,212.48a3,3,0,0,1-.65-.11c-.23-.07-.58-.16-.65-.07a.25.25,0,1,1-.4-.3c.28-.36.76-.23,1.18-.12.24.06.58.16.65.07s-.11-.41-.24-.61c-.22-.36-.49-.8-.22-1.17s.78-.23,1.18-.12c.24.07.59.16.66.07s-.12-.41-.25-.61c-.22-.36-.49-.8-.22-1.17s.78-.23,1.19-.12c.23.06.58.16.65.06s-.12-.4-.25-.61-.49-.8-.21-1.16a.24.24,0,0,1,.35,0,.25.25,0,0,1,.05.35c-.07.09.12.4.24.6.22.36.49.81.22,1.17s-.78.23-1.18.12c-.24-.06-.59-.15-.66-.06s.12.4.25.61c.22.36.49.8.22,1.17s-.78.23-1.19.12c-.23-.07-.58-.16-.65-.07s.12.4.25.61.49.8.21,1.17A.6.6,0,0,1,70.69,212.48Z" style="fill: #2c3742"/>
        <path d="M51.42,112.12a.24.24,0,0,1-.21-.12.25.25,0,0,1,.08-.35c.71-.43.5-1.69.29-2.91-.23-1.38-.47-2.82.53-3.42s2.16.27,3.28,1.11,2,1.51,2.72,1.08.49-1.69.29-2.91c-.23-1.38-.47-2.81.52-3.42s2.16.27,3.28,1.12,2,1.51,2.71,1.08.5-1.69.29-2.91c-.23-1.38-.47-2.81.53-3.42s2.15.27,3.27,1.12,2,1.51,2.71,1.08a.26.26,0,0,1,.35.09.25.25,0,0,1-.09.34c-1,.6-2.15-.27-3.27-1.11s-2-1.52-2.71-1.09-.5,1.69-.29,2.91c.23,1.38.47,2.81-.53,3.42s-2.15-.27-3.27-1.11-2-1.52-2.72-1.09-.49,1.69-.29,2.91c.23,1.38.47,2.82-.52,3.42s-2.16-.27-3.28-1.11-2-1.51-2.72-1.08-.5,1.69-.29,2.91c.23,1.38.47,2.82-.53,3.42A.22.22,0,0,1,51.42,112.12Z" style="fill: #2c3742"/>
        <path d="M200.64,55.63h-.08a.26.26,0,0,1-.16-.32c.28-.83-.75-1.71-1.75-2.55s-2.29-1.94-1.9-3.1,1.9-1.24,3.38-1.33c1.3-.07,2.65-.15,2.93-1s-.75-1.7-1.75-2.55-2.29-1.93-1.91-3.09,1.91-1.24,3.38-1.33c1.31-.07,2.66-.15,2.94-1S205,37.67,204,36.83s-2.29-1.94-1.91-3.1,1.91-1.24,3.38-1.32c1.31-.07,2.65-.15,2.93-1a.26.26,0,0,1,.32-.16.25.25,0,0,1,.16.32c-.39,1.15-1.91,1.24-3.38,1.32-1.31.07-2.66.15-2.93,1s.75,1.71,1.75,2.55,2.29,1.94,1.9,3.1-1.91,1.24-3.38,1.32c-1.3.08-2.65.15-2.93,1s.75,1.71,1.75,2.55,2.29,1.94,1.91,3.09-1.91,1.25-3.38,1.33c-1.31.08-2.66.16-2.94,1s.75,1.71,1.75,2.56,2.29,1.94,1.9,3.09A.23.23,0,0,1,200.64,55.63Z" style="fill: #2c3742"/>
        <path d="M52.53,55.35a.24.24,0,0,1-.24-.22c-.06-.39-.74-.56-1.4-.71-.81-.2-1.66-.4-1.77-1.13s.65-1.17,1.37-1.59,1.19-.69,1.13-1.09-.74-.56-1.39-.71c-.82-.2-1.66-.4-1.77-1.13s.64-1.17,1.37-1.59S51,46.49,51,46.1s-.74-.56-1.4-.72c-.81-.19-1.66-.39-1.76-1.12s.64-1.17,1.37-1.59c.58-.34,1.18-.69,1.12-1.08a.25.25,0,0,1,.5-.08c.1.73-.65,1.17-1.37,1.59s-1.19.69-1.13,1.08.74.56,1.39.72c.82.19,1.66.39,1.77,1.12s-.64,1.17-1.37,1.59C49.5,48,48.9,48.3,49,48.7s.74.56,1.4.71,1.66.4,1.77,1.13-.65,1.17-1.37,1.59-1.19.69-1.13,1.09.73.56,1.39.71c.82.2,1.66.4,1.77,1.13a.25.25,0,0,1-.21.29Z" style="fill: #2c3742"/>
        <path d="M206.37,127.69c-.67,0-1.09-.73-1.49-1.44s-.69-1.24-1.12-1.18a.25.25,0,0,1-.07-.5c.76-.1,1.2.68,1.63,1.43s.7,1.25,1.11,1.19.6-.76.77-1.44c.21-.84.42-1.72,1.18-1.82s1.19.68,1.62,1.44c.34.61.71,1.23,1.12,1.18s.59-.76.76-1.44c.21-.84.43-1.71,1.18-1.82s1.2.68,1.63,1.44c.34.61.7,1.23,1.12,1.18s.59-.76.76-1.44c.22-.84.43-1.71,1.19-1.81a.24.24,0,0,1,.28.21.25.25,0,0,1-.22.28c-.41.06-.59.76-.76,1.44-.21.84-.43,1.71-1.18,1.82s-1.2-.68-1.63-1.44c-.34-.61-.71-1.24-1.12-1.18s-.59.76-.76,1.44c-.21.84-.43,1.71-1.18,1.81s-1.2-.67-1.63-1.43c-.34-.61-.7-1.23-1.12-1.18s-.59.76-.76,1.44c-.21.84-.42,1.71-1.18,1.81Z" style="fill: #2c3742"/>
        <path d="M118.12,56.94a1.18,1.18,0,0,1-.75-.26c-.79-.61-.45-1.79-.12-2.92.28-1,.57-2,0-2.39s-1.42.13-2.3.64-2.07,1.21-2.86.6-.45-1.79-.12-2.92c.28-1,.58-2,.06-2.39s-1.43.12-2.3.64-2.08,1.21-2.87.6-.44-1.79-.11-2.92c.28-1,.57-2,0-2.39a.26.26,0,0,1,0-.35.24.24,0,0,1,.35,0c.79.61.45,1.78.12,2.92-.28,1-.58,2-.06,2.39s1.43-.13,2.3-.64c1-.6,2.08-1.22,2.86-.6s.45,1.78.12,2.92c-.28,1-.57,2,0,2.38s1.42-.12,2.3-.63,2.07-1.22,2.86-.61.45,1.79.12,2.93c-.28,1-.57,2,0,2.39s1.43-.13,2.3-.64,2.08-1.21,2.86-.6a.25.25,0,0,1-.3.4c-.52-.41-1.43.12-2.31.63A4.82,4.82,0,0,1,118.12,56.94Z" style="fill: #2c3742"/>
        <path d="M247.39,186a.25.25,0,0,1-.18-.08c-.84-.87-.21-2.26.4-3.59s1.11-2.41.5-3-1.85-.13-3.06.36c-1.36.54-2.77,1.11-3.61.23s-.21-2.25.4-3.59c.55-1.19,1.11-2.41.5-3s-1.85-.13-3.06.35c-1.36.55-2.77,1.12-3.61.24s-.21-2.26.4-3.6c.54-1.18,1.1-2.41.49-3s-1.85-.13-3.06.35c-1.36.55-2.78,1.12-3.62.24a.25.25,0,1,1,.37-.35c.6.64,1.85.13,3.06-.35s2.77-1.12,3.61-.24.21,2.26-.4,3.6c-.54,1.19-1.1,2.41-.49,3s1.85.13,3.06-.36,2.77-1.12,3.61-.24.21,2.26-.4,3.6c-.54,1.18-1.1,2.41-.5,3s1.86.13,3.06-.36c1.37-.55,2.78-1.11,3.61-.24s.21,2.26-.4,3.6c-.54,1.18-1.1,2.41-.5,3a.24.24,0,0,1,0,.35A.23.23,0,0,1,247.39,186Z" style="fill: #2c3742"/>
        <path d="M205.68,115.79a.28.28,0,0,1-.13,0,.25.25,0,0,1-.09-.34c.5-.85-.42-2-1.32-3.18s-2-2.58-1.35-3.73,2.32-.9,3.92-.66c1.43.21,2.91.43,3.41-.42s-.43-2-1.32-3.17-2-2.59-1.36-3.73,2.32-.9,3.92-.66c1.43.21,2.91.43,3.41-.42s-.43-2-1.32-3.17-2-2.59-1.36-3.73,2.32-.9,3.91-.66c1.44.22,2.92.44,3.41-.41a.25.25,0,0,1,.43.25c-.66,1.14-2.31.9-3.91.66-1.43-.22-2.91-.44-3.41.41s.43,2,1.32,3.17,2,2.59,1.36,3.73-2.32.9-3.92.66c-1.43-.21-2.91-.43-3.4.42s.42,2,1.31,3.17,2,2.58,1.36,3.73-2.32.9-3.92.66c-1.43-.21-2.91-.43-3.41.42s.43,2,1.32,3.18,2,2.58,1.35,3.73A.24.24,0,0,1,205.68,115.79Z" style="fill: #2c3742"/>
        <path d="M245.82,127.81a.25.25,0,0,1-.25-.23c-.09-1.24,1.32-1.92,2.67-2.57s2.46-1.18,2.39-2.08-1.38-1.32-2.65-1.73c-1.44-.46-2.92-.94-3-2.17s1.32-1.92,2.67-2.57,2.46-1.19,2.39-2.09-1.38-1.32-2.66-1.73c-1.43-.46-2.91-.93-3-2.17s1.32-1.92,2.67-2.58,2.45-1.18,2.39-2.09-1.38-1.32-2.66-1.73c-1.43-.46-2.91-.94-3-2.18a.24.24,0,0,1,.23-.26.25.25,0,0,1,.27.23c.06.9,1.38,1.32,2.66,1.73,1.43.46,2.91.94,3,2.18s-1.31,1.92-2.67,2.57c-1.21.59-2.45,1.19-2.39,2.09s1.38,1.32,2.66,1.73c1.43.46,2.91.94,3,2.18s-1.31,1.91-2.67,2.57-2.45,1.18-2.39,2.08,1.38,1.32,2.66,1.73c1.43.46,2.92.93,3,2.17s-1.31,1.92-2.67,2.57-2.45,1.18-2.39,2.08a.25.25,0,0,1-.23.27Z" style="fill: #2c3742"/>
        <path d="M226,17.06a.24.24,0,0,1-.23-.15c-.37-.81.39-1.59,1.12-2.35s1.24-1.29,1-1.79-1.15-.47-2-.44c-1,.05-2.13.09-2.49-.73s.38-1.59,1.11-2.35,1.25-1.29,1-1.79-1.14-.48-2-.44c-1.05.05-2.13.09-2.5-.73s.39-1.6,1.12-2.35,1.25-1.29,1-1.8-1.14-.48-2-.44c-1.05,0-2.13.09-2.5-.73a.25.25,0,0,1,.46-.21c.23.52,1.14.48,2,.44,1,0,2.13-.09,2.5.73s-.38,1.6-1.11,2.36-1.25,1.29-1,1.8,1.14.47,2,.43c1.05,0,2.13-.09,2.5.73s-.39,1.6-1.12,2.35-1.25,1.29-1,1.8,1.14.47,2,.43c1,0,2.13-.09,2.5.73s-.39,1.6-1.12,2.35-1.24,1.29-1,1.8a.25.25,0,0,1-.12.33Z" style="fill: #2c3742"/>
        <path d="M167.41,137.76a.57.57,0,0,1-.18,0c-.43-.13-.47-.65-.5-1.07,0-.24,0-.6-.15-.63s-.34.24-.49.43-.6.72-1,.59-.47-.66-.5-1.08c0-.23-.05-.59-.16-.63s-.34.25-.49.43-.6.73-1,.59-.47-.66-.5-1.07c0-.24,0-.6-.15-.64a.24.24,0,0,1-.16-.31.25.25,0,0,1,.31-.16c.43.13.47.65.5,1.07,0,.24,0,.6.15.63s.34-.24.49-.43.6-.73,1-.59.47.66.5,1.08c0,.23,0,.59.16.63s.34-.24.49-.43.6-.73,1-.59.47.66.5,1.07c0,.24,0,.6.15.64s.34-.25.5-.43.59-.73,1-.59a.24.24,0,0,1,.17.31.25.25,0,0,1-.32.17c-.11,0-.34.24-.49.43S167.76,137.76,167.41,137.76Z" style="fill: #2c3742"/>
        <path d="M105.05,147.27a.24.24,0,0,1-.21-.13c-.71-1.19.36-2.58,1.39-3.93s1.9-2.47,1.36-3.37-2.1-.66-3.62-.41c-1.67.26-3.41.54-4.12-.65s.36-2.59,1.39-3.94,1.9-2.48,1.36-3.38-2.1-.65-3.62-.41c-1.68.27-3.41.54-4.12-.65s.35-2.59,1.39-3.94,1.89-2.48,1.35-3.38-2.1-.66-3.62-.41c-1.68.26-3.41.54-4.12-.66a.25.25,0,0,1,.08-.34.26.26,0,0,1,.35.09c.53.9,2.1.65,3.62.41,1.67-.26,3.41-.54,4.12.65s-.35,2.6-1.39,4-1.89,2.47-1.35,3.38,2.1.65,3.61.41c1.68-.27,3.42-.55,4.13.65s-.36,2.58-1.39,3.93-1.9,2.48-1.36,3.38,2.1.65,3.62.41,3.41-.54,4.12.65-.36,2.59-1.39,3.93-1.9,2.48-1.36,3.38a.25.25,0,0,1-.09.34A.22.22,0,0,1,105.05,147.27Z" style="fill: #2c3742"/>
        <path d="M230,191.89a1.48,1.48,0,0,1-1.3-.57c-.65-.88.07-2,.76-3.16s1.24-2,.79-2.6-1.6-.32-2.72,0c-1.27.33-2.59.67-3.24-.21s.06-2,.76-3.17c.61-1,1.24-2,.79-2.6s-1.6-.31-2.72,0c-1.27.33-2.59.67-3.24-.21s.07-2,.77-3.16,1.24-2,.79-2.6a.24.24,0,0,1,.05-.35.25.25,0,0,1,.35,0c.65.89-.07,2-.77,3.16s-1.24,2-.79,2.6,1.6.31,2.72,0c1.27-.34,2.59-.68,3.24.21s-.07,2-.76,3.16-1.24,2-.79,2.6,1.6.31,2.72,0c1.27-.34,2.59-.68,3.24.21s-.07,2-.76,3.16-1.24,2-.79,2.61,1.6.31,2.72,0c1.28-.33,2.6-.68,3.25.21a.25.25,0,1,1-.4.3c-.46-.62-1.61-.32-2.72,0A8.55,8.55,0,0,1,230,191.89Z" style="fill: #2c3742"/>
        <path d="M227.11,277.79h0c-1-.14-1.32-1.38-1.61-2.57-.25-1-.51-2.1-1.2-2.2s-1.23.86-1.76,1.78-1.24,2.18-2.26,2-1.33-1.38-1.62-2.57c-.25-1-.51-2.1-1.2-2.2s-1.23.86-1.76,1.78c-.61,1.07-1.24,2.18-2.26,2s-1.33-1.38-1.62-2.58c-.26-1-.52-2.1-1.21-2.19s-1.23.85-1.76,1.78-1.24,2.17-2.27,2a.25.25,0,0,1-.21-.28.26.26,0,0,1,.28-.22c.7.1,1.24-.85,1.77-1.77s1.24-2.18,2.26-2,1.33,1.38,1.62,2.57c.26,1,.52,2.1,1.21,2.2s1.23-.86,1.76-1.78,1.24-2.17,2.26-2,1.33,1.37,1.62,2.57c.25,1,.51,2.1,1.2,2.19s1.23-.85,1.76-1.77,1.23-2.17,2.26-2,1.32,1.38,1.62,2.57c.25,1,.51,2.1,1.19,2.2a.25.25,0,0,1,.22.28A.26.26,0,0,1,227.11,277.79Z" style="fill: #2c3742"/>
        <path d="M68.37,274.77h0c-.85-.14-1.07-1.14-1.28-2.12-.18-.81-.36-1.64-.87-1.73s-1,.65-1.39,1.36-1,1.74-1.89,1.59-1.07-1.15-1.28-2.12c-.18-.81-.36-1.65-.87-1.73s-1,.65-1.39,1.36-1,1.74-1.89,1.59-1.07-1.15-1.28-2.12c-.18-.81-.36-1.65-.88-1.74s-1,.65-1.39,1.36c-.51.86-1.05,1.73-1.89,1.6a.26.26,0,0,1-.21-.29.25.25,0,0,1,.29-.21c.51.09,1-.65,1.39-1.36s1-1.73,1.9-1.59,1.06,1.15,1.28,2.12c.17.81.36,1.65.87,1.74s1-.65,1.39-1.36c.51-.86,1.05-1.73,1.89-1.6s1.07,1.15,1.28,2.12.36,1.65.87,1.74,1-.65,1.39-1.36,1-1.74,1.89-1.59,1.07,1.14,1.28,2.12c.18.81.36,1.65.87,1.73a.25.25,0,0,1,0,.5Z" style="fill: #2c3742"/>
        <path d="M119.17,130.85a.25.25,0,0,1-.19-.09c-.25-.29,0-.65.1-.94.06-.11.18-.32.16-.38a1.71,1.71,0,0,0-.39.1c-.32.1-.7.23-.95-.06s0-.65.11-.94a1.24,1.24,0,0,0,.16-.38,1.35,1.35,0,0,0-.4.1c-.31.1-.7.22-.94-.07s0-.65.11-.93a1.28,1.28,0,0,0,.16-.39,1.35,1.35,0,0,0-.4.1c-.31.1-.7.23-.94-.06a.25.25,0,1,1,.38-.32,1.28,1.28,0,0,0,.4-.1c.31-.1.7-.22.94.07s0,.65-.1.93c-.06.12-.18.33-.16.39a1.77,1.77,0,0,0,.4-.1c.31-.1.69-.23.94.06s0,.65-.11.94a1.24,1.24,0,0,0-.16.38,1.28,1.28,0,0,0,.4-.1c.31-.1.7-.22.94.07s.05.64-.11.93a1.19,1.19,0,0,0-.16.39.24.24,0,0,1,0,.35A.3.3,0,0,1,119.17,130.85Z" style="fill: #2c3742"/>
        <path d="M182.49,239.26h0a.25.25,0,0,1-.2-.29c.1-.54.71-.66,1.25-.76.39-.08.83-.17.86-.37s-.33-.44-.67-.65-1-.63-.89-1.16.71-.66,1.25-.76c.39-.08.83-.17.86-.37s-.34-.44-.67-.65-1-.63-.89-1.16.71-.66,1.25-.76.83-.17.86-.37-.34-.44-.67-.65-1-.63-.89-1.17a.25.25,0,0,1,.29-.2.27.27,0,0,1,.2.3c0,.2.34.44.67.65s1,.63.89,1.16-.71.66-1.25.77c-.39.07-.82.16-.86.36s.34.44.67.65,1,.63.89,1.17-.71.65-1.25.76-.82.16-.86.36.34.44.67.65,1,.63.9,1.16-.72.66-1.26.77c-.39.07-.82.16-.86.36A.25.25,0,0,1,182.49,239.26Z" style="fill: #2c3742"/>
        <path d="M174.29,221.8h0a.25.25,0,0,1-.21-.29c0-.06-.28-.22-.38-.29-.31-.17-.69-.4-.63-.79s.49-.5.83-.58c.12,0,.44-.1.45-.17s-.28-.23-.38-.29c-.3-.17-.68-.4-.62-.79s.48-.5.83-.58c.11,0,.44-.1.45-.16s-.29-.24-.38-.29c-.31-.18-.69-.4-.63-.8s.49-.5.83-.58c.11,0,.44-.1.45-.16a.25.25,0,1,1,.5.08c-.06.39-.49.49-.83.57-.11,0-.45.1-.46.17s.29.23.39.29c.3.17.68.4.62.79s-.48.5-.83.58c-.11,0-.44.1-.45.16s.29.24.38.29c.31.18.69.4.63.8s-.49.5-.83.58c-.12,0-.45.1-.45.16s.27.23.38.29c.3.18.68.4.62.8A.25.25,0,0,1,174.29,221.8Z" style="fill: #2c3742"/>
        <path d="M80,223.53a3.07,3.07,0,0,1-1.75-1.05c-.58-.53-1.18-1.07-1.62-.86a.24.24,0,0,1-.33-.12.25.25,0,0,1,.11-.33c.75-.36,1.47.3,2.18.94s1.18,1.08,1.62.87.38-1,.32-1.81c-.07-.95-.14-1.94.6-2.3s1.48.3,2.18.95,1.19,1.07,1.63.86.37-1,.32-1.81c-.07-1-.14-1.94.6-2.3s1.47.31,2.18,1,1.19,1.07,1.63.86.38-1,.32-1.81c-.07-.95-.14-1.94.6-2.3a.25.25,0,0,1,.34.12.24.24,0,0,1-.12.33c-.44.21-.38,1-.32,1.81.07.95.14,1.94-.61,2.3s-1.47-.3-2.18-.94-1.18-1.08-1.62-.87-.38,1-.32,1.81c.07,1,.14,1.94-.61,2.3s-1.47-.3-2.17-.94-1.19-1.08-1.63-.87-.38,1-.32,1.81c.07,1,.14,1.94-.6,2.3A1,1,0,0,1,80,223.53Z" style="fill: #2c3742"/>
        <path d="M22,227.74h0a.25.25,0,0,1-.21-.29c0-.21-.36-.45-.71-.66s-1-.62-1-1.17.71-.69,1.27-.81c.4-.09.85-.19.88-.4s-.36-.45-.71-.66-1-.63-.95-1.17.72-.69,1.27-.81c.4-.09.85-.19.88-.41s-.36-.45-.71-.66-1-.62-.95-1.17.72-.68,1.27-.81.85-.18.88-.4a.25.25,0,0,1,.29-.2.25.25,0,0,1,.21.28c-.09.55-.72.69-1.27.81s-.85.19-.88.4.36.45.71.66,1,.63.95,1.17-.72.69-1.27.81c-.4.09-.85.19-.89.41s.37.45.72.66,1,.62.94,1.17-.71.68-1.26.81-.85.19-.89.4.36.45.71.66,1,.63.95,1.17A.24.24,0,0,1,22,227.74Z" style="fill: #2c3742"/>
        <path d="M162.3,275.18a.25.25,0,0,1-.25-.23.25.25,0,0,1,.22-.27c.6-.06.88-1,1.14-1.9s.63-2.16,1.57-2.25,1.46.93,2,1.91.88,1.72,1.48,1.65.87-1,1.14-1.9c.31-1.06.63-2.16,1.56-2.25s1.47.92,2,1.91c.43.84.86,1.69,1.48,1.64s.87-1,1.13-1.89c.31-1.07.63-2.17,1.57-2.26s1.46.93,2,1.92c.43.83.87,1.7,1.47,1.64a.25.25,0,0,1,.27.22.25.25,0,0,1-.22.28c-.94.08-1.46-.93-2-1.92-.43-.83-.88-1.69-1.47-1.64s-.87,1-1.14,1.9-.63,2.16-1.56,2.25-1.46-.93-2-1.91-.89-1.69-1.48-1.64-.87,1-1.13,1.89c-.31,1.06-.63,2.16-1.57,2.25s-1.46-.92-2-1.91c-.43-.83-.87-1.7-1.48-1.64s-.88,1-1.14,1.89c-.31,1.07-.63,2.17-1.57,2.26Z" style="fill: #2c3742"/>
        <path d="M8.14,80.33a.26.26,0,0,1-.25-.2c0-.08-.34-.14-.5-.17-.36-.07-.82-.16-.9-.57s.31-.65.62-.85c.14-.09.42-.27.41-.35S7.17,78.05,7,78c-.37-.07-.82-.15-.9-.56s.31-.66.62-.86c.13-.09.41-.27.4-.34s-.34-.14-.5-.17c-.37-.07-.82-.15-.9-.56s.31-.66.62-.86c.14-.09.42-.27.4-.34a.25.25,0,0,1,.5-.1c.07.41-.31.66-.63.86-.13.09-.41.27-.4.34s.34.14.5.17c.37.07.82.15.9.56s-.31.66-.62.86c-.14.09-.42.27-.4.34s.34.14.5.17c.36.07.82.16.9.57s-.31.65-.62.86c-.14.08-.42.26-.41.34s.35.14.51.17c.36.07.81.15.89.56a.25.25,0,0,1-.19.3Z" style="fill: #2c3742"/>
        <path d="M127.14,277.83a.25.25,0,0,1-.25-.23c0-.16-.4-.28-.7-.37-.48-.15-1-.31-1.06-.81s.46-.75.91-1c.29-.14.64-.32.63-.48s-.4-.28-.71-.38c-.47-.14-1-.31-1-.81s.46-.75.91-1c.28-.14.64-.32.63-.48s-.4-.28-.71-.38c-.47-.14-1-.31-1-.81s.46-.75.91-1c.28-.14.64-.32.63-.48a.25.25,0,0,1,.5,0c0,.49-.47.75-.91,1-.29.14-.65.32-.64.48s.4.28.71.38c.48.14,1,.31,1.06.81s-.46.75-.91,1c-.29.14-.65.32-.64.48s.4.28.71.38c.48.14,1,.31,1.06.81s-.46.75-.91,1c-.29.14-.65.32-.63.49s.39.28.7.37c.48.15,1,.31,1.06.81a.25.25,0,0,1-.23.27Z" style="fill: #2c3742"/>
        <path d="M6.1,172.63a8.72,8.72,0,0,1-2.41-.52c-1.31-.4-2.66-.82-3.25-.1a.25.25,0,0,1-.35,0,.25.25,0,0,1,0-.35c.79-1,2.31-.51,3.78-.06,1.31.41,2.66.83,3.24.11s-.11-2-.78-3.15c-.75-1.34-1.53-2.73-.73-3.72s2.31-.51,3.78-.06c1.31.41,2.67.83,3.25.11s-.11-2-.78-3.16-1.53-2.72-.74-3.71,2.32-.52,3.79-.06c1.31.4,2.67.82,3.25.1s-.11-2-.78-3.16-1.53-2.73-.73-3.71a.25.25,0,0,1,.39.31c-.58.72.11,2,.78,3.16s1.53,2.73.73,3.71-2.32.52-3.79.07c-1.31-.41-2.66-.83-3.25-.11s.11,2,.78,3.16,1.54,2.73.74,3.71-2.32.52-3.79.06c-1.31-.4-2.66-.82-3.24-.1s.11,2,.78,3.15c.75,1.34,1.53,2.73.73,3.71A1.63,1.63,0,0,1,6.1,172.63Z" style="fill: #2c3742"/>
        <path d="M275.64,93.69a1.48,1.48,0,0,1-.72-.18c-1.18-.61-1-2.28-.85-3.89.14-1.45.29-2.94-.59-3.4s-2,.53-3.12,1.48-2.49,2.15-3.67,1.54-1-2.28-.85-3.89c.14-1.45.29-2.94-.59-3.4s-2,.53-3.11,1.48-2.49,2.15-3.67,1.54-1-2.28-.85-3.89c.14-1.45.29-2.94-.58-3.4a.25.25,0,1,1,.23-.44c1.17.61,1,2.28.85,3.89-.15,1.44-.3,2.94.58,3.39s2-.52,3.11-1.47,2.5-2.16,3.68-1.54,1,2.27.85,3.89c-.15,1.44-.3,2.94.58,3.39s2-.52,3.12-1.47,2.49-2.16,3.67-1.54,1,2.28.86,3.89c-.15,1.45-.3,2.94.58,3.4s2-.52,3.12-1.47,2.5-2.15,3.68-1.54a.25.25,0,0,1,.11.33.25.25,0,0,1-.34.11c-.88-.45-2,.52-3.12,1.48S276.61,93.69,275.64,93.69Z" style="fill: #2c3742"/>
        <path d="M205.21,207.61a.28.28,0,0,1-.17-.07.25.25,0,0,1,0-.36c0-.06-.09-.28-.14-.4-.14-.31-.31-.69,0-1s.65-.12,1,0c.13.05.36.15.42.12s-.09-.28-.14-.4c-.14-.31-.31-.69-.05-1s.65-.13,1,0c.13.05.36.14.42.11a1.37,1.37,0,0,0-.14-.4c-.14-.31-.32-.68-.05-1s.65-.13,1,0a1.3,1.3,0,0,0,.42.12.24.24,0,0,1,.35,0,.25.25,0,0,1,0,.35c-.27.28-.65.13-1,0a1.3,1.3,0,0,0-.42-.12,1.32,1.32,0,0,0,.14.41c.14.3.31.68.05,1s-.65.12-1,0a1.3,1.3,0,0,0-.42-.12,1.32,1.32,0,0,0,.14.41c.14.3.32.68.05,1s-.65.12-1,0c-.13-.05-.36-.15-.42-.12a1.32,1.32,0,0,0,.14.41c.14.3.32.68,0,1A.25.25,0,0,1,205.21,207.61Z" style="fill: #2c3742"/>
        <path d="M134.05,121.79a.23.23,0,0,1-.16-.06c-1-.82-.49-2.36,0-3.86.43-1.33.88-2.7.15-3.31s-2,.08-3.24.75-2.8,1.52-3.79.7-.49-2.37,0-3.86c.43-1.33.88-2.71.15-3.32s-2,.08-3.24.75-2.8,1.52-3.79.7-.49-2.37,0-3.86c.43-1.33.88-2.71.15-3.32s-2,.08-3.24.75-2.8,1.52-3.8.69a.25.25,0,1,1,.33-.38c.73.61,2-.08,3.23-.75s2.81-1.52,3.8-.7.49,2.37,0,3.86-.88,2.72-.15,3.32,2-.08,3.23-.75,2.81-1.52,3.8-.69.49,2.36,0,3.85-.88,2.71-.15,3.32,2-.08,3.24-.75,2.8-1.52,3.79-.7.49,2.37,0,3.86c-.43,1.33-.88,2.71-.15,3.32a.25.25,0,0,1,0,.35A.25.25,0,0,1,134.05,121.79Z" style="fill: #2c3742"/>
        <path d="M277.59,117.14h0a.24.24,0,0,1-.23-.26c0-.4.44-.54.77-.66.11,0,.44-.14.44-.21s-.3-.2-.41-.25c-.33-.15-.73-.33-.7-.74s.44-.54.77-.65c.12,0,.43-.15.44-.21s-.3-.2-.41-.26c-.33-.14-.73-.33-.7-.73s.43-.54.77-.66c.12,0,.43-.15.44-.21s-.3-.2-.41-.25c-.33-.15-.73-.34-.7-.74a.24.24,0,0,1,.26-.24.25.25,0,0,1,.23.27c0,.06.3.2.42.25.32.15.72.34.7.74s-.44.54-.78.66c-.12,0-.43.14-.44.21s.3.2.42.25c.32.15.72.33.7.74s-.44.54-.78.65c-.12,0-.43.15-.44.21s.3.2.42.26c.32.14.72.33.7.73s-.44.54-.78.66c-.12,0-.43.14-.43.2A.25.25,0,0,1,277.59,117.14Z" style="fill: #2c3742"/>
        <path d="M207.43,261.55h0c-.4,0-.55-.41-.67-.73a1.2,1.2,0,0,0-.2-.41c-.07,0-.17.28-.22.4-.14.31-.3.7-.69.7h0c-.39,0-.54-.4-.66-.73-.05-.12-.14-.38-.21-.4s-.16.27-.22.4c-.13.31-.29.7-.68.7h0c-.39,0-.54-.41-.66-.73-.05-.13-.14-.38-.21-.41a.25.25,0,0,1-.24-.25.26.26,0,0,1,.26-.25c.39,0,.54.41.66.73a1.2,1.2,0,0,0,.2.41c.07,0,.17-.28.22-.4.14-.32.31-.69.7-.7s.54.41.66.73c0,.12.14.38.2.4s.17-.27.22-.39c.14-.32.33-.73.7-.7s.54.4.66.72c.05.13.14.38.21.41s.17-.28.22-.4c.13-.31.3-.7.68-.7h0a.26.26,0,0,1,.25.26.26.26,0,0,1-.25.24h0c-.06,0-.17.28-.22.4C208,261.16,207.81,261.55,207.43,261.55Z" style="fill: #2c3742"/>
        <path d="M108.63,115.37h-.08c-.46-.14-.5-.68-.53-1.15,0-.28,0-.67-.19-.71s-.38.26-.56.48-.64.78-1.1.64-.5-.68-.54-1.16c0-.28,0-.67-.18-.71s-.38.26-.56.48-.64.78-1.1.64-.5-.68-.54-1.16c0-.28,0-.67-.19-.71s-.38.26-.56.48-.64.79-1.1.64a.25.25,0,0,1,.15-.48c.14,0,.38-.26.56-.48s.64-.78,1.1-.64.5.68.54,1.16c0,.28,0,.67.19.71s.38-.26.56-.48.64-.78,1.1-.64.5.68.53,1.15c0,.29.05.68.19.72s.38-.26.56-.48.64-.79,1.1-.64.5.68.53,1.15c0,.29,0,.67.19.72a.24.24,0,0,1,.16.31A.23.23,0,0,1,108.63,115.37Z" style="fill: #2c3742"/>
        <path d="M260.46,148.6a5.19,5.19,0,0,1-1.23-.23c-.66-.17-1.34-.35-1.58,0a.25.25,0,1,1-.4-.3c.44-.6,1.29-.38,2.1-.16.66.17,1.34.35,1.58,0s-.13-.92-.49-1.49-.91-1.46-.47-2.06,1.29-.38,2.11-.17c.65.17,1.33.35,1.57,0s-.13-.93-.49-1.5c-.44-.72-.9-1.46-.46-2.06s1.28-.38,2.1-.17c.66.17,1.34.35,1.58,0s-.13-.92-.49-1.5-.9-1.46-.46-2.06a.25.25,0,1,1,.4.3c-.24.33.13.92.49,1.5s.9,1.46.46,2.06-1.29.38-2.1.17-1.34-.35-1.58,0,.13.92.49,1.49c.44.72.91,1.46.46,2.06s-1.28.38-2.1.17c-.66-.17-1.33-.35-1.57,0s.13.93.48,1.5c.45.72.91,1.46.47,2.06A1,1,0,0,1,260.46,148.6Z" style="fill: #2c3742"/>
        <path d="M157.47,176.37a2.67,2.67,0,0,1-1.38-.73c-.45-.37-.92-.75-1.21-.59a.25.25,0,1,1-.25-.43c.59-.33,1.22.18,1.78.63s.92.74,1.22.58.21-.77.13-1.35-.21-1.51.38-1.84,1.22.18,1.78.63.92.74,1.22.58.21-.77.13-1.35-.2-1.51.38-1.84,1.22.17,1.78.62.93.75,1.22.58.21-.76.14-1.34-.21-1.52.38-1.85a.25.25,0,0,1,.34.1.25.25,0,0,1-.09.34c-.3.16-.22.76-.14,1.34s.2,1.52-.38,1.85-1.22-.18-1.78-.63-.93-.74-1.22-.58-.21.77-.13,1.35.2,1.51-.39,1.84-1.22-.18-1.78-.63-.93-.74-1.21-.58-.21.77-.14,1.35.21,1.51-.38,1.84A.73.73,0,0,1,157.47,176.37Z" style="fill: #2c3742"/>
        <path d="M274.32,159.64h-.08a.25.25,0,0,1-.16-.31c.13-.41.6-.44,1-.47.18,0,.51,0,.54-.12s-.23-.29-.37-.41c-.3-.24-.67-.55-.54-.95s.61-.44,1-.47c.18,0,.52,0,.55-.11s-.24-.3-.38-.42c-.29-.24-.66-.55-.53-1s.6-.44,1-.47c.18,0,.51,0,.54-.11s-.23-.3-.37-.42c-.3-.24-.67-.55-.54-.95a.26.26,0,0,1,.32-.16.25.25,0,0,1,.16.31c0,.08.23.3.37.42.3.24.67.54.54,1s-.61.44-1,.46c-.18,0-.52,0-.55.12s.24.3.38.42c.29.24.66.54.53.95s-.6.44-1,.46c-.18,0-.51,0-.54.12s.23.3.37.41c.3.25.67.55.54,1s-.61.43-1,.46c-.18,0-.52,0-.55.12A.25.25,0,0,1,274.32,159.64Z" style="fill: #2c3742"/>
        <path d="M157.67,243.64l-.09,0c-.57-.21-.58-.93-.59-1.55s0-1-.26-1.1-.59.28-.93.65-.9,1-1.47.77-.57-.93-.58-1.56,0-1-.27-1.09-.59.28-.92.64-.91,1-1.47.78-.58-.93-.59-1.56,0-1-.26-1.1-.6.29-.93.65-.9,1-1.47.77a.25.25,0,0,1-.15-.32.27.27,0,0,1,.33-.15c.24.1.59-.28.92-.64s.91-1,1.47-.77.58.92.59,1.55,0,1,.27,1.1.59-.28.92-.65.9-1,1.47-.77.58.93.59,1.56,0,1,.26,1.09.59-.28.93-.64.9-1,1.47-.78.57.93.58,1.56,0,1,.26,1.09a.26.26,0,0,1,.15.33A.25.25,0,0,1,157.67,243.64Z" style="fill: #2c3742"/>
        <path d="M62,195c-.6,0-1-.65-1.4-1.27s-.68-1.09-1.06-1a.24.24,0,0,1-.29-.2.24.24,0,0,1,.2-.29c.69-.13,1.14.57,1.57,1.25s.69,1.09,1.06,1,.5-.71.62-1.34c.16-.79.32-1.6,1-1.73s1.14.57,1.57,1.25.69,1.1,1.07,1,.49-.72.62-1.34c.15-.79.32-1.61,1-1.74s1.14.57,1.57,1.25.7,1.1,1.07,1,.49-.71.62-1.34c.16-.79.32-1.6,1-1.73a.24.24,0,0,1,.29.2.25.25,0,0,1-.2.29c-.37.07-.5.71-.62,1.34-.16.79-.32,1.6-1,1.73s-1.15-.57-1.58-1.25-.69-1.09-1.06-1-.5.72-.62,1.34c-.16.79-.32,1.61-1,1.74s-1.15-.57-1.58-1.25-.7-1.1-1.06-1-.5.71-.62,1.34c-.16.79-.32,1.6-1,1.73Z" style="fill: #2c3742"/>
        <path d="M277.61,277.74h0c-1.31,0-1.87-1.6-2.41-3.1-.49-1.35-1-2.75-2-2.78s-1.56,1.33-2.14,2.64-1.28,2.94-2.56,2.95h0c-1.32,0-1.88-1.59-2.42-3.1-.49-1.35-1-2.74-2-2.77s-1.57,1.33-2.14,2.64c-.64,1.47-1.29,3-2.62,2.94s-1.88-1.6-2.42-3.1-1-2.74-2-2.78h0c-.95,0-1.54,1.35-2.11,2.65-.64,1.46-1.33,3-2.62,2.94a.26.26,0,0,1-.24-.26.25.25,0,0,1,.26-.24c1,0,1.57-1.33,2.14-2.64.65-1.47,1.33-3,2.62-3s1.88,1.6,2.43,3.11c.49,1.35,1,2.74,2,2.77h0c1,0,1.54-1.34,2.11-2.64s1.29-2.94,2.56-2.94h.06c1.31,0,1.87,1.6,2.42,3.1.48,1.35,1,2.74,2,2.77s1.57-1.32,2.14-2.64,1.33-3,2.62-2.94,1.87,1.6,2.42,3.11c.48,1.34,1,2.74,2,2.77a.24.24,0,0,1,.24.26A.25.25,0,0,1,277.61,277.74Z" style="fill: #2c3742"/>
        <path d="M189,146a.26.26,0,0,1-.24-.18c-.17-.6-1.17-.7-2.13-.8-1.13-.11-2.3-.23-2.57-1.16s.66-1.64,1.56-2.34,1.56-1.21,1.39-1.81-1.17-.7-2.14-.8c-1.13-.11-2.3-.23-2.56-1.16s.66-1.64,1.56-2.34,1.56-1.21,1.38-1.81-1.17-.7-2.13-.79c-1.13-.12-2.3-.23-2.57-1.16s.67-1.64,1.57-2.34,1.56-1.21,1.38-1.81a.25.25,0,0,1,.17-.31.25.25,0,0,1,.31.18c.27.92-.66,1.64-1.56,2.34s-1.56,1.2-1.39,1.8,1.17.7,2.14.8c1.13.11,2.3.23,2.57,1.15s-.67,1.65-1.57,2.35-1.55,1.2-1.38,1.81,1.17.7,2.13.79c1.13.12,2.3.23,2.57,1.16s-.66,1.65-1.56,2.34-1.56,1.21-1.39,1.82,1.17.7,2.14.8c1.13.11,2.3.23,2.56,1.15a.24.24,0,0,1-.17.31Z" style="fill: #2c3742"/>
        <path d="M151.06,193.54a.23.23,0,0,1-.18-.08c-.63-.68-.14-1.7.33-2.69s.81-1.71.41-2.15-1.3-.09-2.17.25-2.08.79-2.72.11-.14-1.71.33-2.7c.4-.84.81-1.71.41-2.14s-1.3-.09-2.17.24c-1,.39-2.08.8-2.72.11s-.14-1.71.33-2.7c.4-.84.81-1.7.41-2.14s-1.31-.1-2.17.24c-1,.39-2.09.8-2.72.11a.24.24,0,0,1,0-.35.25.25,0,0,1,.36,0c.4.44,1.3.09,2.17-.24,1-.39,2.08-.8,2.71-.11s.15,1.71-.32,2.7-.81,1.71-.41,2.14,1.3.1,2.17-.24c1-.39,2.08-.8,2.72-.11s.14,1.71-.33,2.7c-.4.84-.81,1.71-.41,2.14s1.3.09,2.17-.24,2.08-.8,2.72-.12.14,1.71-.33,2.7-.82,1.71-.41,2.14a.26.26,0,0,1,0,.36A.25.25,0,0,1,151.06,193.54Z" style="fill: #2c3742"/>
        <path d="M93.94,245.59a.27.27,0,0,1-.16-.06c-.57-.48-.3-1.32,0-2.12.21-.65.43-1.32.11-1.59s-.93.08-1.53.41-1.52.82-2.1.34-.3-1.31,0-2.12c.21-.65.43-1.32.11-1.58s-.93.07-1.53.4c-.75.4-1.52.82-2.1.34s-.3-1.31,0-2.12c.21-.65.43-1.32.12-1.59s-.94.08-1.54.4c-.75.41-1.52.83-2.1.35a.25.25,0,0,1,.32-.39c.32.26.94-.07,1.54-.4s1.52-.82,2.1-.34.3,1.32,0,2.12-.43,1.33-.12,1.59.94-.08,1.54-.4,1.52-.83,2.09-.35.31,1.32,0,2.12-.43,1.33-.11,1.59.93-.08,1.53-.4,1.52-.83,2.09-.35.31,1.31,0,2.12c-.21.65-.43,1.32-.12,1.58a.26.26,0,0,1,0,.36A.29.29,0,0,1,93.94,245.59Z" style="fill: #2c3742"/>
        <path d="M167,87.05a1.1,1.1,0,0,1-.54-.15c-.76-.45-.6-1.51-.45-2.54.13-.86.27-1.75-.21-2s-1.18.27-1.87.8-1.66,1.29-2.43.84-.6-1.51-.44-2.53c.13-.86.26-1.75-.21-2s-1.18.28-1.87.81-1.66,1.29-2.43.84-.6-1.51-.45-2.53c.14-.86.27-1.75-.2-2a.25.25,0,1,1,.25-.43c.77.45.61,1.51.45,2.54-.13.85-.27,1.74.2,2s1.19-.27,1.87-.81,1.67-1.29,2.43-.84.61,1.51.45,2.54c-.13.85-.27,1.74.21,2s1.18-.27,1.87-.8,1.66-1.3,2.43-.85.6,1.51.45,2.54c-.13.86-.27,1.75.2,2s1.19-.28,1.88-.81,1.67-1.29,2.43-.84a.25.25,0,0,1-.25.43c-.48-.28-1.19.27-1.88.81A3.59,3.59,0,0,1,167,87.05Z" style="fill: #2c3742"/>
        <path d="M135,81.9a.26.26,0,0,1-.21-.11c-.51-.8.16-1.74.81-2.65s1.12-1.58.79-2.1-1.3-.32-2.24-.14c-1.1.22-2.23.45-2.75-.35s.16-1.75.8-2.66,1.12-1.58.79-2.09-1.3-.32-2.23-.14c-1.1.22-2.24.44-2.75-.36s.15-1.74.8-2.66c.55-.77,1.12-1.58.78-2.09s-1.3-.33-2.23-.14c-1.1.21-2.24.43-2.75-.36a.26.26,0,0,1,.07-.35.26.26,0,0,1,.35.07c.33.52,1.3.33,2.23.15,1.1-.22,2.24-.44,2.75.36s-.15,1.74-.79,2.65-1.12,1.58-.79,2.1,1.3.32,2.23.14c1.1-.22,2.24-.44,2.75.36s-.15,1.74-.8,2.65-1.12,1.58-.79,2.1,1.3.32,2.24.13c1.09-.21,2.23-.44,2.75.36s-.16,1.74-.81,2.65-1.12,1.58-.79,2.1a.24.24,0,0,1-.07.34A.23.23,0,0,1,135,81.9Z" style="fill: #2c3742"/>
        <path d="M91,102a.28.28,0,0,1-.24-.15c-.37-.9-1.85-.87-3.29-.84-1.59,0-3.24.06-3.76-1.15s.67-2.37,1.8-3.49,2.07-2,1.69-2.95-1.86-.87-3.29-.84c-1.59,0-3.25.07-3.76-1.14s.67-2.37,1.8-3.49S84,85.88,83.6,85s-1.85-.87-3.28-.84c-1.6,0-3.25.07-3.76-1.14s.66-2.36,1.8-3.49,2.07-2,1.69-2.93a.26.26,0,0,1,.13-.33.25.25,0,0,1,.33.13c.51,1.21-.66,2.37-1.8,3.49s-2.07,2-1.69,2.94,1.86.87,3.29.83c1.59,0,3.24-.06,3.76,1.14s-.67,2.37-1.8,3.5-2.07,2-1.7,2.94,1.86.86,3.29.83c1.6,0,3.25-.06,3.76,1.15s-.66,2.37-1.8,3.49-2.07,2-1.69,3,1.86.87,3.29.84c1.6,0,3.25-.07,3.77,1.14a.26.26,0,0,1-.14.33Z" style="fill: #2c3742"/>
        <path d="M120.67,189.92h0a.25.25,0,0,1-.22-.28c.17-1.4,1.9-1.87,3.58-2.31,1.51-.41,3.08-.83,3.21-1.89s-1.3-1.85-2.68-2.6c-1.53-.83-3.1-1.68-2.94-3.09s1.9-1.87,3.58-2.31c1.52-.41,3.08-.83,3.21-1.9s-1.3-1.84-2.68-2.59-3.1-1.69-2.93-3.09,1.9-1.87,3.58-2.32c1.51-.41,3.08-.83,3.21-1.9s-1.3-1.85-2.68-2.6-3.1-1.69-2.93-3.09a.25.25,0,1,1,.49.06c-.12,1.07,1.3,1.84,2.68,2.59s3.1,1.69,2.93,3.1-1.9,1.87-3.57,2.32-3.09.83-3.21,1.9,1.29,1.84,2.67,2.59c1.53.83,3.1,1.69,2.94,3.09s-1.9,1.87-3.58,2.32c-1.52.4-3.08.82-3.21,1.89s1.3,1.85,2.68,2.59,3.1,1.69,2.93,3.09-1.9,1.87-3.57,2.32c-1.52.4-3.09.82-3.21,1.89A.26.26,0,0,1,120.67,189.92Z" style="fill: #2c3742"/>
        <path d="M78.16,20.38a.26.26,0,0,1-.25-.2c-.13-.66-1.18-.86-2.2-1.05-1.19-.22-2.41-.45-2.61-1.44S74,16,75,15.36s1.76-1.15,1.63-1.82-1.18-.85-2.2-1c-1.19-.22-2.41-.45-2.61-1.44s.85-1.67,1.86-2.33,1.76-1.15,1.63-1.81-1.18-.86-2.2-1c-1.19-.22-2.41-.44-2.61-1.44s.85-1.67,1.86-2.32S74.09,1,74,.3a.25.25,0,0,1,.19-.3.27.27,0,0,1,.3.2c.19,1-.85,1.67-1.86,2.33S70.82,3.67,71,4.34s1.19.85,2.21,1c1.18.22,2.41.45,2.6,1.44s-.84,1.67-1.85,2.33S72.14,10.3,72.27,11s1.19.86,2.21,1c1.18.22,2.4.44,2.6,1.44s-.84,1.67-1.85,2.33-1.77,1.15-1.64,1.81,1.19.86,2.21,1.05c1.18.22,2.41.45,2.6,1.44a.25.25,0,0,1-.19.3Z" style="fill: #2c3742"/>
        <path d="M255.4,176h0a.26.26,0,0,1-.22-.28c.13-.93,1.23-1.21,2.29-1.48s1.85-.46,1.92-1.06-.76-1.06-1.58-1.51-1.95-1.1-1.83-2,1.23-1.2,2.29-1.48c.91-.23,1.84-.46,1.92-1.06s-.76-1.06-1.58-1.52-1.95-1.09-1.83-2,1.22-1.21,2.29-1.48c.9-.23,1.84-.47,1.92-1.06s-.77-1.07-1.58-1.53-1.95-1.09-1.83-2a.25.25,0,0,1,.49.07c-.07.59.77,1.06,1.58,1.52s2,1.09,1.83,2-1.22,1.21-2.29,1.48c-.9.24-1.84.47-1.92,1.07s.77,1.06,1.58,1.52,2,1.09,1.84,2-1.23,1.21-2.29,1.48-1.84.47-1.92,1.06.76,1.06,1.58,1.52,2,1.09,1.83,2-1.23,1.21-2.29,1.48c-.91.23-1.84.47-1.92,1.06A.25.25,0,0,1,255.4,176Z" style="fill: #2c3742"/>
        <path d="M243.56,206.68h-.05a.25.25,0,0,1-.19-.3c.05-.24-.37-.52-.74-.78s-1.07-.72-.94-1.3.8-.68,1.4-.78c.44-.07.94-.15,1-.4s-.37-.52-.74-.77-1.07-.73-.94-1.3.8-.69,1.4-.78c.44-.08.94-.16,1-.4s-.37-.53-.74-.78-1.07-.72-.94-1.3.8-.68,1.4-.78c.44-.07.94-.15,1-.39a.25.25,0,1,1,.48.11c-.12.57-.8.68-1.4.78-.44.07-.94.15-1,.39s.36.53.73.78,1.07.73.95,1.3-.81.68-1.41.78c-.44.07-.94.15-1,.4s.36.52.73.77,1.07.73.95,1.3-.81.69-1.41.78c-.44.08-.94.16-1,.4s.36.53.73.78,1.07.73.95,1.3A.26.26,0,0,1,243.56,206.68Z" style="fill: #2c3742"/>
        <path d="M147.4,106.58a.25.25,0,0,1-.24-.2c-.1-.52-.95-.7-1.78-.86-1-.2-2-.41-2.18-1.27s.73-1.41,1.59-2,1.45-.92,1.36-1.44-1-.69-1.78-.86c-1-.2-2-.41-2.18-1.26s.73-1.41,1.59-1.95c.71-.45,1.45-.92,1.36-1.44s-1-.69-1.79-.86c-1-.2-2-.4-2.17-1.26s.73-1.41,1.59-2c.71-.45,1.45-.91,1.36-1.43a.24.24,0,0,1,.2-.29.25.25,0,0,1,.29.2c.16.85-.73,1.41-1.59,1.95s-1.45.91-1.36,1.43,1,.69,1.78.86c1,.2,2,.41,2.18,1.26s-.73,1.41-1.59,1.95c-.71.45-1.45.92-1.36,1.44s.95.69,1.78.86c1,.2,2,.41,2.18,1.26s-.73,1.41-1.59,2-1.45.92-1.36,1.44,1,.7,1.79.87c1,.2,2,.4,2.17,1.26a.25.25,0,0,1-.2.29Z" style="fill: #2c3742"/>
        <path d="M44.3,191.34a.22.22,0,0,1-.13,0,.25.25,0,0,1-.08-.34c.38-.58,1.2-.41,1.93-.27s1.21.25,1.4,0-.16-.81-.51-1.31-.91-1.29-.53-1.87,1.2-.41,1.93-.27,1.21.25,1.4,0-.17-.81-.52-1.31-.9-1.29-.52-1.87,1.2-.41,1.92-.27,1.22.25,1.41-.05-.17-.81-.51-1.31-.91-1.29-.53-1.87a.25.25,0,0,1,.35-.07.25.25,0,0,1,.07.34c-.19.3.17.82.52,1.31s.9,1.3.52,1.88-1.2.41-1.93.26-1.21-.24-1.4.05.16.81.51,1.31.91,1.29.53,1.87-1.2.41-1.92.26-1.22-.24-1.41.05.17.81.52,1.31.9,1.29.52,1.87-1.2.41-1.92.26-1.21-.24-1.41,0A.26.26,0,0,1,44.3,191.34Z" style="fill: #2c3742"/>
        <path d="M134.1,247.81H134a.25.25,0,0,1-.17-.31c.22-.73-.71-1.47-1.61-2.19s-2.09-1.67-1.77-2.73,1.67-1.17,3-1.28c1.14-.1,2.33-.21,2.55-.94s-.71-1.47-1.61-2.18-2.1-1.67-1.78-2.73,1.68-1.17,3-1.28c1.15-.1,2.33-.2,2.55-.93s-.71-1.47-1.61-2.19-2.09-1.67-1.78-2.72,1.68-1.17,3-1.28c1.15-.1,2.33-.2,2.55-.93a.25.25,0,0,1,.31-.17.24.24,0,0,1,.17.31c-.32,1.06-1.67,1.17-3,1.29-1.14.09-2.33.2-2.55.92s.71,1.47,1.61,2.19,2.1,1.67,1.78,2.72-1.68,1.17-3,1.29c-1.14.1-2.33.2-2.55.93s.71,1.47,1.61,2.18,2.1,1.67,1.78,2.73-1.68,1.17-3,1.28c-1.15.1-2.33.21-2.55.94s.71,1.47,1.61,2.19,2.09,1.67,1.77,2.72A.25.25,0,0,1,134.1,247.81Z" style="fill: #2c3742"/>
        <path d="M219.71,77.54a.27.27,0,0,1-.17-.06c-.76-.68-.33-1.85.08-3,.36-1,.72-2,.22-2.43s-1.46,0-2.39.49-2.19,1.1-2.94.42-.34-1.84.08-3,.72-2,.21-2.43-1.46,0-2.39.49-2.18,1.09-2.94.41-.33-1.84.08-3,.72-2,.21-2.44-1.46,0-2.39.49c-1.08.54-2.19,1.09-3,.42a.26.26,0,0,1,0-.36.25.25,0,0,1,.35,0c.51.46,1.47,0,2.4-.48s2.19-1.1,2.94-.42.34,1.85-.07,3c-.36,1-.72,2-.22,2.43s1.46,0,2.39-.49c1.08-.54,2.19-1.09,2.95-.42s.33,1.85-.08,3c-.36,1-.72,2-.22,2.43s1.46,0,2.39-.49c1.08-.54,2.19-1.09,2.94-.42s.33,1.84-.08,3-.72,2-.22,2.43a.25.25,0,0,1,0,.36A.25.25,0,0,1,219.71,77.54Z" style="fill: #2c3742"/>
        <path d="M47.33,133.72h0c-.77-.14-.94-1.05-1.11-1.93-.14-.71-.29-1.45-.72-1.53s-.84.55-1.23,1.17-1,1.53-1.74,1.39-.95-1.05-1.12-1.93c-.14-.71-.28-1.45-.72-1.53s-.84.55-1.23,1.17-1,1.53-1.74,1.39-1-1-1.12-1.93c-.14-.72-.28-1.45-.72-1.54s-.84.56-1.23,1.17-1,1.53-1.74,1.39a.24.24,0,0,1-.2-.29.25.25,0,0,1,.29-.2c.44.09.84-.55,1.23-1.17s1-1.54,1.74-1.39.95,1,1.12,1.93c.14.72.29,1.45.72,1.54s.84-.56,1.23-1.17,1-1.54,1.74-1.39,1,1,1.12,1.93c.14.71.29,1.45.72,1.53s.84-.55,1.23-1.17,1-1.53,1.74-1.39.94,1.05,1.12,1.93c.14.71.28,1.45.71,1.53a.25.25,0,0,1,0,.5Z" style="fill: #2c3742"/>
        <path d="M61.64,254.11a.25.25,0,0,1-.24-.18c-.06-.19-.49-.22-.87-.25-.54-.05-1.15-.09-1.31-.61s.32-.89.74-1.23.64-.51.58-.7-.49-.22-.87-.25c-.54,0-1.15-.09-1.31-.6s.32-.89.74-1.23.64-.51.58-.7-.49-.22-.87-.25c-.54,0-1.15-.09-1.3-.6s.31-.9.74-1.24.63-.51.57-.69a.25.25,0,0,1,.48-.15c.16.51-.32.9-.74,1.23s-.63.51-.58.7.49.22.87.25c.54,0,1.15.09,1.31.6s-.32.9-.74,1.24-.63.51-.58.69.49.22.87.25c.54.05,1.15.1,1.31.61s-.32.89-.74,1.23-.64.51-.58.7.49.22.87.25c.54,0,1.15.09,1.31.6a.27.27,0,0,1-.17.32Z" style="fill: #2c3742"/>
        <path d="M267.92,125.91a.18.18,0,0,1-.1,0c-.41-.19-.37-.7-.34-1.11,0-.22,0-.57-.06-.62s-.35.19-.52.35-.67.62-1.08.42-.36-.69-.34-1.1c0-.23,0-.58-.05-.62s-.35.19-.52.34-.68.62-1.08.43-.37-.7-.34-1.11c0-.23,0-.57-.06-.62s-.35.19-.52.34-.67.62-1.08.43a.25.25,0,0,1-.11-.33.24.24,0,0,1,.33-.12c.1.05.35-.19.52-.34s.67-.62,1.08-.43.37.7.34,1.11c0,.22,0,.57.06.62s.35-.19.52-.35.67-.61,1.07-.42.37.7.34,1.1c0,.23,0,.58.06.62s.35-.18.52-.34.68-.62,1.08-.43.36.7.34,1.11c0,.23,0,.57,0,.62a.25.25,0,0,1-.11.47Z" style="fill: #2c3742"/>
        <path d="M249.47,220h-.05c-1,0-1.49-1.26-1.91-2.44-.36-1-.74-2.07-1.45-2.1h0c-.69,0-1.14,1-1.58,2-.5,1.14-1,2.33-2.07,2.29s-1.49-1.26-1.91-2.44c-.36-1-.74-2.07-1.45-2.1s-1.16,1-1.6,2c-.5,1.14-1,2.3-2.08,2.28s-1.48-1.25-1.9-2.43c-.36-1-.74-2.08-1.44-2.1a.25.25,0,0,1-.24-.26.23.23,0,0,1,.25-.24c1.05,0,1.49,1.26,1.9,2.43.37,1,.74,2.08,1.45,2.1s1.17-1,1.6-2c.51-1.15,1-2.32,2.08-2.29s1.48,1.26,1.9,2.43.74,2.08,1.45,2.11,1.17-1,1.61-2,1-2.32,2.08-2.29,1.48,1.26,1.9,2.44c.37,1,.74,2.07,1.45,2.1s1.17-1,1.61-2,1-2.3,2.08-2.29a.25.25,0,1,1,0,.5c-.7-.05-1.16,1-1.6,2S250.48,220,249.47,220Z" style="fill: #2c3742"/>
        <path d="M53,167.52a.24.24,0,0,1-.21-.38c.51-.77-.29-1.92-1.06-3s-1.76-2.55-1.07-3.6,2.24-.73,3.73-.42c1.33.28,2.71.57,3.21-.2s-.29-1.92-1.06-3-1.77-2.55-1.07-3.6,2.24-.72,3.73-.41c1.33.28,2.7.56,3.21-.2s-.3-1.92-1.07-3c-.87-1.26-1.76-2.55-1.07-3.6s2.24-.72,3.73-.41c1.33.28,2.7.57,3.21-.2a.25.25,0,0,1,.34-.07.25.25,0,0,1,.07.35c-.69,1-2.23.72-3.72.41-1.33-.28-2.71-.57-3.21.2s.29,1.91,1.06,3,1.77,2.55,1.07,3.6-2.23.72-3.72.41c-1.33-.28-2.71-.57-3.21.2s.29,1.92,1.06,3,1.77,2.55,1.07,3.6-2.24.73-3.73.41c-1.33-.27-2.7-.56-3.21.21s.29,1.92,1.06,3,1.77,2.55,1.07,3.59A.24.24,0,0,1,53,167.52Z" style="fill: #2c3742"/>
        <path d="M205.08,156.72a.25.25,0,0,1-.22-.13c-.46-.9.35-1.83,1.14-2.73s1.38-1.58,1.08-2.18-1.37-.5-2.39-.4c-1.19.11-2.43.22-2.89-.68s.36-1.83,1.15-2.73,1.38-1.58,1.08-2.17-1.37-.5-2.4-.41c-1.19.11-2.42.23-2.88-.67s.35-1.84,1.14-2.74,1.38-1.58,1.08-2.17-1.37-.51-2.4-.41c-1.19.11-2.42.22-2.88-.68a.25.25,0,0,1,.11-.34.25.25,0,0,1,.33.11c.31.6,1.37.5,2.4.41,1.19-.11,2.42-.22,2.88.68s-.35,1.83-1.14,2.73-1.38,1.58-1.08,2.18,1.37.5,2.4.4c1.19-.11,2.42-.22,2.88.68s-.36,1.83-1.14,2.73-1.39,1.58-1.08,2.18,1.37.5,2.39.4c1.2-.11,2.43-.22,2.89.67s-.36,1.83-1.15,2.73-1.38,1.58-1.08,2.18a.24.24,0,0,1-.11.33A.2.2,0,0,1,205.08,156.72Z" style="fill: #2c3742"/>
        <path d="M37.46,223.71a.25.25,0,0,1-.22-.13c-.21-.38.1-.74.34-1s.33-.4.29-.47-.37,0-.55,0c-.38.05-.85.1-1-.27s.1-.74.34-1c.11-.14.33-.4.29-.47s-.38,0-.55,0c-.38,0-.85.1-1.06-.27s.1-.74.35-1c.11-.13.33-.39.29-.47s-.38,0-.56,0c-.38,0-.85.1-1-.27a.25.25,0,1,1,.44-.24c0,.07.37,0,.55,0,.38,0,.85-.1,1,.27s-.1.74-.34,1-.33.4-.29.48.38,0,.56,0c.38-.05.85-.1,1.05.27s-.1.74-.35,1c-.11.14-.33.4-.28.47s.37,0,.55,0c.38,0,.85-.1,1.05.27s-.1.73-.34,1c-.12.14-.33.39-.29.47a.26.26,0,0,1-.1.34Z" style="fill: #2c3742"/>
        <path d="M194.67,222a.25.25,0,0,1-.19-.09c-.72-.88,0-2.1.63-3.29.59-1,1.19-2.12.69-2.73s-1.68-.25-2.82.1-2.64.82-3.35-.06,0-2.1.64-3.29c.58-1,1.18-2.12.68-2.73s-1.68-.25-2.81.1c-1.3.4-2.65.82-3.36-.06s0-2.11.64-3.29,1.18-2.12.68-2.74-1.68-.25-2.82.1c-1.3.4-2.64.82-3.36-.06a.25.25,0,0,1,0-.35.24.24,0,0,1,.35,0c.5.61,1.68.25,2.82-.11,1.3-.4,2.64-.82,3.36.06s0,2.11-.64,3.3c-.58,1-1.18,2.12-.68,2.74s1.68.25,2.82-.11c1.3-.4,2.64-.82,3.35.06s0,2.11-.64,3.29-1.18,2.12-.68,2.74,1.68.25,2.82-.11,2.64-.82,3.35.06,0,2.11-.64,3.29-1.18,2.12-.69,2.74a.25.25,0,0,1,0,.35A.3.3,0,0,1,194.67,222Z" style="fill: #2c3742"/>
        <path d="M77.38,250.75a.62.62,0,0,1-.55-.25c-.27-.37,0-.81.24-1.16s.33-.51.26-.61-.42,0-.65.05c-.41.1-.92.22-1.18-.15s0-.8.25-1.16c.13-.2.32-.5.25-.6s-.42,0-.65,0c-.43.11-.91.22-1.18-.15s0-.79.25-1.16c.13-.2.32-.5.26-.6a.25.25,0,0,1,.06-.35.25.25,0,0,1,.34.06c.27.37,0,.81-.24,1.16s-.33.51-.26.6.42,0,.65,0c.41-.1.92-.23,1.18.14s0,.81-.24,1.16-.33.51-.26.6.42,0,.65,0c.41-.1.91-.23,1.18.14s0,.81-.25,1.17c-.13.2-.32.5-.25.6s.42,0,.65-.05c.4-.1.91-.22,1.18.15a.25.25,0,1,1-.41.29c-.07-.1-.42,0-.65.05A3.31,3.31,0,0,1,77.38,250.75Z" style="fill: #2c3742"/>
        <path d="M125,207.5a.2.2,0,0,1-.13,0c-1.11-.66-.85-2.26-.59-3.81.22-1.38.45-2.81-.36-3.3s-2,.39-3.08,1.24-2.54,1.93-3.65,1.27-.84-2.27-.59-3.81.46-2.82-.36-3.31-2,.39-3.08,1.24-2.54,1.93-3.65,1.27-.84-2.27-.59-3.81c.22-1.39.45-2.82-.37-3.31s-2,.39-3.08,1.24-2.55,1.93-3.65,1.26a.25.25,0,0,1-.09-.34.26.26,0,0,1,.35-.09c.81.49,2-.38,3.08-1.23s2.54-1.94,3.65-1.27.85,2.27.6,3.81-.46,2.82.36,3.31,2-.39,3.08-1.24,2.54-1.93,3.65-1.27.84,2.27.59,3.82c-.22,1.38-.45,2.81.36,3.3s2-.39,3.08-1.24,2.54-1.93,3.65-1.27.84,2.26.59,3.81c-.23,1.39-.46,2.82.36,3.3a.27.27,0,0,1,.08.35A.25.25,0,0,1,125,207.5Z" style="fill: #2c3742"/>
        <path d="M46.25,146.23h0c-.39,0-.5-.46-.59-.79,0-.13-.1-.39-.16-.42s-.2.25-.26.37c-.16.3-.36.68-.76.63s-.49-.46-.58-.79c0-.13-.11-.39-.17-.42s-.19.25-.26.37c-.16.3-.36.68-.75.63s-.5-.46-.59-.79c0-.13-.11-.39-.17-.42s-.19.25-.26.37c-.16.3-.36.68-.75.63a.25.25,0,0,1,.06-.5c.06,0,.19-.25.25-.37.17-.3.37-.68.76-.63s.5.46.59.79c0,.13.11.39.17.42s.19-.25.25-.37c.17-.3.37-.68.76-.63s.5.46.59.79c0,.13.1.39.16.42s.2-.26.26-.37c.17-.3.36-.68.76-.63s.5.46.59.79c0,.13.1.39.16.42a.25.25,0,0,1,0,.5Z" style="fill: #2c3742"/>
        <path d="M23.56,243.29a.25.25,0,0,1-.25-.24.25.25,0,0,1,.24-.26c.74,0,1.15-1.08,1.55-2.12.46-1.2.93-2.43,2-2.45h0c1.06,0,1.57,1.22,2.06,2.39s.89,2.1,1.6,2.08,1.15-1.08,1.54-2.12c.46-1.2.93-2.43,2-2.45h0c1,0,1.56,1.22,2,2.39s.85,2.07,1.6,2.08,1.14-1.08,1.54-2.12c.46-1.2.93-2.43,2-2.45s1.58,1.21,2.07,2.39c.42,1,.86,2.08,1.59,2.08h0a.25.25,0,0,1,0,.5h0c-1,0-1.56-1.21-2-2.39-.43-1-.87-2.08-1.59-2.08h0c-.74,0-1.15,1.09-1.55,2.13-.45,1.19-.93,2.43-2,2.44h0c-1,0-1.56-1.21-2-2.39-.42-1-.87-2.08-1.6-2.08s-1.14,1.09-1.54,2.13c-.46,1.19-.93,2.43-2,2.44s-1.58-1.2-2.08-2.39c-.42-1-.86-2.08-1.59-2.08h0c-.73,0-1.15,1.09-1.55,2.13-.45,1.19-.93,2.43-2,2.44Z" style="fill: #2c3742"/>
        <path d="M167.64,39.48a1.42,1.42,0,0,1-.79-.23c-1-.66-.69-2.11-.4-3.52.25-1.24.51-2.52-.2-3s-1.78.28-2.82,1-2.39,1.67-3.39,1-.69-2.1-.4-3.51c.25-1.24.51-2.53-.19-3s-1.79.28-2.83,1-2.39,1.66-3.38,1-.7-2.1-.41-3.51c.26-1.24.52-2.52-.19-3a.25.25,0,0,1,.28-.42c1,.66.69,2.11.4,3.51-.25,1.24-.52,2.53.19,3s1.79-.28,2.83-1,2.39-1.67,3.38-1,.69,2.11.41,3.51c-.26,1.24-.52,2.53.19,3s1.78-.28,2.82-1,2.4-1.67,3.39-1,.69,2.11.41,3.51-.52,2.53.19,3,1.79-.28,2.83-1,2.39-1.66,3.39-1a.25.25,0,0,1-.28.42c-.71-.47-1.79.28-2.83,1A5.31,5.31,0,0,1,167.64,39.48Z" style="fill: #2c3742"/>
        <path d="M157.62,257.8l-.11,0c-.41-.08-.5-.54-.57-.9,0-.17-.09-.5-.17-.52s-.26.27-.35.41c-.21.32-.46.71-.87.63s-.5-.54-.57-.91c0-.16-.09-.5-.17-.51s-.27.27-.36.41c-.2.31-.46.7-.86.63s-.5-.54-.57-.91c0-.16-.09-.5-.17-.51a.25.25,0,0,1-.2-.3.25.25,0,0,1,.29-.19c.41.08.5.54.57.9,0,.17.09.5.17.52s.27-.28.35-.41c.21-.32.47-.71.87-.63s.5.54.57.91c0,.16.09.49.17.51s.27-.27.36-.41c.2-.32.45-.7.87-.63s.5.54.57.91c0,.16.09.5.17.51s.26-.27.35-.41c.21-.31.46-.7.87-.62a.24.24,0,0,1,.2.29.25.25,0,0,1-.29.2c-.1,0-.27.27-.36.41S158,257.8,157.62,257.8Z" style="fill: #2c3742"/>
        <path d="M110.78,212.64h0c-.47,0-.64-.53-.79-1-.09-.26-.21-.63-.35-.63s-.3.34-.42.59c-.19.42-.44.92-.89.88s-.65-.53-.8-1c-.09-.27-.21-.63-.35-.64s-.3.34-.41.59c-.2.43-.41.91-.9.88s-.65-.53-.8-1c-.09-.26-.21-.63-.35-.63s-.3.34-.42.59c-.19.42-.39.91-.89.88a.25.25,0,0,1-.24-.26.24.24,0,0,1,.26-.24c.13,0,.3-.34.42-.59.2-.43.4-.93.9-.88s.65.53.8,1c.09.26.21.63.35.63s.29-.33.41-.59c.2-.42.41-.92.9-.88s.65.53.79,1c.09.26.22.62.35.63h0c.14,0,.29-.34.41-.59.2-.43.4-.93.9-.88s.64.53.79,1c.09.26.21.63.35.63a.26.26,0,0,1,.24.27A.25.25,0,0,1,110.78,212.64Z" style="fill: #2c3742"/>
        <path d="M25,48a1.57,1.57,0,0,1-.37-.05c-1.26-.31-1.49-1.93-1.7-3.49-.2-1.4-.4-2.85-1.33-3.08s-1.78,1-2.6,2.1-1.87,2.61-3.13,2.3-1.49-1.93-1.7-3.49c-.19-1.4-.39-2.85-1.32-3.08s-1.78,1-2.61,2.11S8.36,43.89,7.1,43.57s-1.48-1.92-1.69-3.49C5.22,38.68,5,37.24,4.09,37a.24.24,0,0,1-.18-.3.25.25,0,0,1,.3-.19c1.26.31,1.48,1.93,1.69,3.49.2,1.4.39,2.85,1.32,3.08S9,42.13,9.83,41s1.87-2.61,3.13-2.3,1.48,1.93,1.69,3.49c.2,1.4.4,2.84,1.33,3.07s1.78-1,2.6-2.1,1.87-2.61,3.13-2.3,1.48,1.93,1.7,3.5c.2,1.4.4,2.84,1.33,3.07s1.78-1,2.61-2.1,1.87-2.61,3.13-2.3a.25.25,0,0,1,.18.31.25.25,0,0,1-.3.18c-.93-.23-1.78,1-2.61,2.1S26.07,48,25,48Z" style="fill: #2c3742"/>
        <path d="M82,142.37h0a.25.25,0,0,1-.23-.27c.07-1.08-1.41-1.78-2.84-2.46s-3.21-1.53-3.12-2.95,1.81-2,3.47-2.53c1.5-.49,3.05-1,3.12-2.09s-1.41-1.78-2.83-2.46c-1.58-.75-3.21-1.52-3.12-2.94s1.8-2,3.46-2.53c1.5-.49,3.06-1,3.12-2.08s-1.4-1.78-2.83-2.46-3.21-1.52-3.12-2.94,1.8-2,3.46-2.53,3.06-1,3.13-2.08a.23.23,0,0,1,.26-.23.26.26,0,0,1,.24.27c-.09,1.41-1.81,2-3.47,2.52-1.5.49-3.06,1-3.12,2.08s1.4,1.78,2.83,2.46,3.21,1.52,3.12,2.94-1.8,2-3.46,2.53c-1.5.49-3.06,1-3.13,2.08s1.41,1.78,2.84,2.46c1.58.75,3.21,1.52,3.12,2.94s-1.81,2-3.47,2.53c-1.5.5-3,1-3.12,2.09s1.41,1.79,2.84,2.47c1.58.75,3.21,1.52,3.12,2.94A.25.25,0,0,1,82,142.37Z" style="fill: #2c3742"/>
        <path d="M110.45,32.08h0c-.44,0-.61-.5-.75-.88-.07-.21-.19-.54-.29-.54s-.25.31-.34.52c-.17.37-.38.82-.82.81s-.61-.49-.75-.88c-.07-.21-.19-.54-.29-.54h0c-.11,0-.25.31-.34.52s-.37.82-.79.82h0c-.44,0-.61-.49-.75-.87-.07-.22-.19-.54-.3-.55s-.24.31-.34.52c-.16.37-.36.82-.79.82h0a.25.25,0,0,1-.24-.26.25.25,0,0,1,.26-.24h0c.11,0,.24-.31.34-.52.16-.37.37-.82.81-.82s.62.5.75.88c.08.22.2.54.3.54s.25-.31.34-.51c.17-.38.37-.83.82-.82s.61.49.75.88c.07.21.19.54.29.54h0c.11,0,.25-.31.34-.52.17-.37.39-.81.82-.81s.61.49.75.87c.07.22.19.54.29.55a.24.24,0,0,1,.24.26A.25.25,0,0,1,110.45,32.08Z" style="fill: #2c3742"/>
        <path d="M5.51,237.19a.25.25,0,0,1-.25-.21c-.07-.54.47-.85,1-1.12s.73-.4.7-.61-.46-.3-.83-.4c-.54-.14-1.14-.29-1.21-.82s.47-.85,1-1.12.73-.41.7-.61-.46-.31-.84-.4-1.14-.29-1.21-.83.47-.84,1-1.11.73-.41.71-.61-.46-.31-.84-.41c-.54-.13-1.14-.29-1.21-.82a.24.24,0,0,1,.21-.28.23.23,0,0,1,.28.21c0,.2.46.31.84.41.53.13,1.14.29,1.21.82s-.47.85-1,1.12-.73.41-.7.61.46.31.83.4c.54.14,1.14.29,1.21.83s-.47.84-1,1.11-.73.41-.7.61.46.31.84.4c.53.14,1.14.29,1.21.83s-.48.84-1,1.11-.73.41-.71.61a.24.24,0,0,1-.21.28Z" style="fill: #2c3742"/>
        <path d="M168,123.2a.15.15,0,0,1-.09,0,.24.24,0,0,1-.14-.32c.26-.69,1.14-.7,2-.71.68,0,1.38,0,1.53-.4s-.37-.85-.87-1.31-1.26-1.17-1-1.86,1.14-.71,2-.72c.68,0,1.38,0,1.52-.4s-.37-.85-.87-1.31-1.26-1.17-1-1.86,1.14-.71,2-.72c.68,0,1.38,0,1.53-.4s-.37-.86-.87-1.32-1.26-1.17-1-1.86a.25.25,0,1,1,.46.18c-.14.38.37.85.87,1.31s1.26,1.17,1,1.87-1.15.7-2,.72c-.68,0-1.38,0-1.53.39s.37.86.87,1.32,1.27,1.17,1,1.86-1.14.71-2,.72c-.67,0-1.38,0-1.52.39s.37.86.87,1.32,1.26,1.17,1,1.86-1.14.7-2,.72c-.68,0-1.38,0-1.52.39A.26.26,0,0,1,168,123.2Z" style="fill: #2c3742"/>
        <path d="M20.11,102.9l-.1,0a.26.26,0,0,1-.13-.33l2-4.32-3,1.11a.25.25,0,0,1-.27-.07.25.25,0,0,1-.05-.27L21,93.65a.25.25,0,0,1,.33-.13.26.26,0,0,1,.12.34l-2.21,4.8,3-1.1a.25.25,0,0,1,.32.33l-2.24,4.87A.24.24,0,0,1,20.11,102.9Z" style="fill: #2c3742"/>
        <path d="M5.13,24.81l-.08,0a.25.25,0,0,1-.15-.32l.78-2.11-1.12.51a.26.26,0,0,1-.27,0,.25.25,0,0,1-.06-.27l.9-2.44A.25.25,0,0,1,5.45,20a.25.25,0,0,1,.15.32l-.7,1.87L6,21.65a.28.28,0,0,1,.28,0,.25.25,0,0,1,.06.27l-1,2.68A.25.25,0,0,1,5.13,24.81Z" style="fill: #2c3742"/>
        <path d="M212.38,235.4h-.09a.26.26,0,0,1-.14-.33l5.6-13.39-8.43,3.46a.27.27,0,0,1-.27-.06.25.25,0,0,1-.05-.27l5.29-12.67a.25.25,0,0,1,.33-.14.26.26,0,0,1,.13.33l-5.06,12.11,8.42-3.46a.28.28,0,0,1,.28.06.25.25,0,0,1,.05.27l-5.83,13.95A.24.24,0,0,1,212.38,235.4Z" style="fill: #2c3742"/>
        <path d="M145.51,217a.26.26,0,0,1-.25-.24l-.7-11.76-5.41,6.1a.27.27,0,0,1-.27.07.25.25,0,0,1-.17-.22l-.81-13.61a.25.25,0,0,1,.24-.26.23.23,0,0,1,.26.23l.77,13,5.42-6.1a.23.23,0,0,1,.27-.07.24.24,0,0,1,.16.22l.74,12.36a.26.26,0,0,1-.24.27Z" style="fill: #2c3742"/>
        <path d="M19.89,183.58h-.07a.25.25,0,0,1-.17-.31l.54-1.83-1,.56a.26.26,0,0,1-.28,0,.26.26,0,0,1-.08-.26l.79-2.65a.24.24,0,0,1,.31-.17.26.26,0,0,1,.17.31l-.62,2.07,1-.56a.24.24,0,0,1,.28,0,.23.23,0,0,1,.08.26l-.71,2.41A.25.25,0,0,1,19.89,183.58Z" style="fill: #2c3742"/>
        <path d="M62.73,80.27a.25.25,0,0,1-.2-.1l-6.59-8.89-1.13,7.57a.22.22,0,0,1-.18.2.24.24,0,0,1-.26-.09L46.71,68.64a.25.25,0,0,1,.06-.35.25.25,0,0,1,.35,0l7.29,9.83,1.12-7.56a.27.27,0,0,1,.19-.21.25.25,0,0,1,.26.09l7,9.38a.24.24,0,0,1,0,.35A.27.27,0,0,1,62.73,80.27Z" style="fill: #2c3742"/>
        <path d="M163.53,208.56l-.1,0a.26.26,0,0,1-.13-.33l3.23-7.63-4.73,1.92a.25.25,0,0,1-.33-.33l3.15-7.43a.25.25,0,0,1,.32-.14.26.26,0,0,1,.14.33l-2.91,6.88,4.73-1.92a.27.27,0,0,1,.27.06.25.25,0,0,1,.05.27l-3.46,8.19A.25.25,0,0,1,163.53,208.56Z" style="fill: #2c3742"/>
        <path d="M278.58,264.3h-.07a.25.25,0,0,1-.17-.31l1.35-4.84-2.63,1.48a.24.24,0,0,1-.27,0,.26.26,0,0,1-.09-.27l1.37-4.93a.25.25,0,0,1,.31-.17.25.25,0,0,1,.17.31l-1.21,4.35L280,258.4a.26.26,0,0,1,.28,0,.25.25,0,0,1,.08.27l-1.51,5.42A.24.24,0,0,1,278.58,264.3Z" style="fill: #2c3742"/>
        <path d="M276.39,204.52a.23.23,0,0,1-.11,0,.26.26,0,0,1-.11-.34l1.56-3.1-1.91.63a.24.24,0,0,1-.27-.07.26.26,0,0,1,0-.28l1.66-3.3a.25.25,0,0,1,.34-.12.26.26,0,0,1,.11.34L276.23,201l1.91-.64a.25.25,0,0,1,.27.08.23.23,0,0,1,0,.27l-1.82,3.65A.26.26,0,0,1,276.39,204.52Z" style="fill: #2c3742"/>
        <path d="M93.72,46.56a.25.25,0,0,1-.22-.13l-3.3-6.09-1.34,4.53a.26.26,0,0,1-.22.17.22.22,0,0,1-.24-.13l-4-7.28a.24.24,0,0,1,.1-.34.25.25,0,0,1,.34.11l3.66,6.75,1.34-4.53a.25.25,0,0,1,.46,0l3.59,6.62a.26.26,0,0,1-.1.34A.27.27,0,0,1,93.72,46.56Z" style="fill: #2c3742"/>
        <path d="M9.08,192.74a.25.25,0,0,1-.22-.12l-1.78-3-.52,2a.25.25,0,0,1-.2.19.26.26,0,0,1-.25-.12L4.2,188.4a.26.26,0,0,1,.09-.35.25.25,0,0,1,.34.09l1.6,2.71.51-2a.25.25,0,0,1,.21-.18.23.23,0,0,1,.25.12l2.09,3.55a.25.25,0,0,1-.08.35A.31.31,0,0,1,9.08,192.74Z" style="fill: #2c3742"/>
        <path d="M199,91.24a.3.3,0,0,1-.15,0,.24.24,0,0,1,0-.35L203,85.4l-4.59.64a.23.23,0,0,1-.25-.12.24.24,0,0,1,0-.28l4.92-6.5a.24.24,0,0,1,.35,0,.25.25,0,0,1,0,.35l-4.56,6,4.59-.63a.23.23,0,0,1,.25.12.23.23,0,0,1,0,.27l-4.47,5.92A.26.26,0,0,1,199,91.24Z" style="fill: #2c3742"/>
        <path d="M55.1,209.12a.24.24,0,0,1-.18-.07l-2-2v1.56a.25.25,0,0,1-.15.23.25.25,0,0,1-.27,0l-2.18-2.16a.26.26,0,0,1,0-.35.25.25,0,0,1,.36,0l1.74,1.73V206.5a.24.24,0,0,1,.15-.23.25.25,0,0,1,.27,0l2.39,2.38a.24.24,0,0,1,0,.35A.23.23,0,0,1,55.1,209.12Z" style="fill: #2c3742"/>
        <path d="M76.78,265.27a.24.24,0,0,1-.21-.11l-1.37-2.08-.28,1.35a.26.26,0,0,1-.2.2.23.23,0,0,1-.25-.11l-1.54-2.35a.24.24,0,0,1,.07-.34.25.25,0,0,1,.35.07l1.21,1.84.28-1.35a.26.26,0,0,1,.19-.2.29.29,0,0,1,.26.11L77,264.89a.24.24,0,0,1-.07.34A.22.22,0,0,1,76.78,265.27Z" style="fill: #2c3742"/>
        <path d="M68.36,232.46a.27.27,0,0,1-.18-.08L59.87,224l0,8.15a.25.25,0,0,1-.15.23.25.25,0,0,1-.27,0l-9.62-9.66a.25.25,0,0,1,.35-.35l9.19,9.23,0-8.16a.25.25,0,0,1,.16-.23.27.27,0,0,1,.27.06L68.54,232a.26.26,0,0,1,0,.35A.27.27,0,0,1,68.36,232.46Z" style="fill: #2c3742"/>
        <path d="M101.63,278.24a.23.23,0,0,1-.19-.1.24.24,0,0,1,0-.35L110.2,271l-7.6-.93a.25.25,0,0,1-.12-.44l10.12-7.92a.25.25,0,1,1,.3.39l-9.64,7.55,7.6.93a.25.25,0,0,1,.21.18.25.25,0,0,1-.09.26l-9.19,7.2A.3.3,0,0,1,101.63,278.24Z" style="fill: #2c3742"/>
        <path d="M13.72,276.08a.28.28,0,0,1-.2-.1l-4.35-5.79-.62,4.39a.26.26,0,0,1-.18.21.26.26,0,0,1-.27-.09L3.82,269a.25.25,0,1,1,.4-.3l3.92,5.21.62-4.39a.25.25,0,0,1,.19-.2.24.24,0,0,1,.26.09l4.71,6.27a.25.25,0,0,1-.05.35A.27.27,0,0,1,13.72,276.08Z" style="fill: #2c3742"/>
        <path d="M225.47,141.61a.25.25,0,0,1-.16-.45l9-7.31-7.21-.75a.25.25,0,0,1-.21-.18.23.23,0,0,1,.08-.26l8.62-7a.25.25,0,0,1,.32.38l-8.15,6.61,7.2.76a.24.24,0,0,1,.21.17.25.25,0,0,1-.08.27l-9.48,7.69A.27.27,0,0,1,225.47,141.61Z" style="fill: #2c3742"/>
        <path d="M234.68,92.71a.25.25,0,0,1-.25-.25l-.19-6.81-2.86,3a.25.25,0,0,1-.27.07.25.25,0,0,1-.16-.23l-.19-6.74a.25.25,0,0,1,.24-.26.28.28,0,0,1,.26.25l.17,6.13,2.86-3a.25.25,0,0,1,.27-.07.26.26,0,0,1,.16.23l.21,7.42a.25.25,0,0,1-.24.26Z" style="fill: #2c3742"/>
        <path d="M33.66,277l-.1,0-3.08-1.34a.25.25,0,0,1-.13-.33.26.26,0,0,1,.33-.13l2.53,1.1-.65-1.65a.23.23,0,0,1,.06-.27.25.25,0,0,1,.27-.05l3.39,1.47a.25.25,0,1,1-.2.46L33.24,275l.65,1.65a.25.25,0,0,1,0,.27A.24.24,0,0,1,33.66,277Z" style="fill: #2c3742"/>
        <path d="M191.85,9h0a.24.24,0,0,1-.2-.29l.66-3.85-2.11,1.5a.24.24,0,0,1-.28,0,.23.23,0,0,1-.11-.25l.84-4.89A.25.25,0,0,1,190.9,1a.25.25,0,0,1,.2.29l-.74,4.3,2.11-1.49a.26.26,0,0,1,.28,0,.25.25,0,0,1,.12.25l-.77,4.45A.26.26,0,0,1,191.85,9Z" style="fill: #2c3742"/>
        <path d="M204.3,20.78l-.1,0-3.27-1.43a.24.24,0,0,1-.13-.33.25.25,0,0,1,.33-.12l2.71,1.18-.61-1.57a.23.23,0,0,1,.06-.27.25.25,0,0,1,.27,0l3,1.29a.26.26,0,0,1,.13.33.24.24,0,0,1-.33.13l-2.42-1.05.62,1.57a.25.25,0,0,1-.06.27A.23.23,0,0,1,204.3,20.78Z" style="fill: #2c3742"/>
        <path d="M223.39,57.5a.26.26,0,0,1-.25-.24.24.24,0,0,1,.24-.26l12-.72-5.62-5a.27.27,0,0,1-.07-.27.26.26,0,0,1,.23-.17l11.44-.68a.25.25,0,0,1,.27.24.25.25,0,0,1-.24.26l-10.84.65,5.61,5a.25.25,0,0,1,.07.27.26.26,0,0,1-.22.17l-12.6.74Z" style="fill: #2c3742"/>
        <path d="M274.88,58.33h-.07a.25.25,0,0,1-.17-.31l2.85-10.25-6.4,3.61a.23.23,0,0,1-.27,0,.24.24,0,0,1-.09-.26L274,39.17a.25.25,0,0,1,.31-.17.24.24,0,0,1,.18.3l-3.16,11.34,6.4-3.61a.26.26,0,0,1,.28,0,.24.24,0,0,1,.08.26l-3,10.83A.26.26,0,0,1,274.88,58.33Z" style="fill: #2c3742"/>
        <path d="M225,204.7a.2.2,0,0,1-.11,0l-2.61-1.34a.25.25,0,0,1,.23-.45L224.6,204l-.39-1.22a.24.24,0,0,1,.08-.26.24.24,0,0,1,.28,0l2.36,1.22a.25.25,0,0,1,.11.33.25.25,0,0,1-.34.11l-1.83-.94.39,1.22a.24.24,0,0,1-.08.26A.23.23,0,0,1,225,204.7Z" style="fill: #2c3742"/>
        <path d="M265.11,261.35h-.06a.25.25,0,0,1-.18-.3l3.36-13.79-7.61,4.62a.24.24,0,0,1-.28,0,.24.24,0,0,1-.09-.26l3.18-13.06a.25.25,0,1,1,.48.11l-3,12.48,7.6-4.62a.24.24,0,0,1,.28,0,.26.26,0,0,1,.1.26l-3.51,14.38A.24.24,0,0,1,265.11,261.35Z" style="fill: #2c3742"/>
        <path d="M153.25,121.2h0l-3.85-.2a.25.25,0,0,1-.23-.26.23.23,0,0,1,.26-.24l3.25.17-1.42-1.58a.23.23,0,0,1,0-.27.22.22,0,0,1,.23-.15l4.24.22a.25.25,0,0,1,.24.26.24.24,0,0,1-.26.24L152,119.2l1.42,1.58a.24.24,0,0,1,0,.28A.26.26,0,0,1,153.25,121.2Z" style="fill: #2c3742"/>
        <path d="M240,276.43a.25.25,0,0,1-.21-.12l-1.27-2-.34,1.47a.25.25,0,0,1-.45.08l-1.75-2.79a.27.27,0,0,1,.08-.35.26.26,0,0,1,.35.08l1.42,2.28.34-1.47a.23.23,0,0,1,.2-.19.24.24,0,0,1,.26.11l1.58,2.54a.24.24,0,0,1-.08.34A.2.2,0,0,1,240,276.43Z" style="fill: #2c3742"/>
        <path d="M49.41,91.1a.25.25,0,0,1-.25-.23l-.22-2.53-1,1.24a.25.25,0,0,1-.27.08.25.25,0,0,1-.17-.22L47.16,86a.25.25,0,0,1,.22-.27.25.25,0,0,1,.27.23l.25,2.84,1-1.24a.25.25,0,0,1,.27-.08.26.26,0,0,1,.17.22l.28,3.13a.26.26,0,0,1-.23.27Z" style="fill: #2c3742"/>
        <path d="M22.35,71.73a.24.24,0,0,1-.22-.14.23.23,0,0,1,.11-.33l9.32-4.65-6.82-2.28a.26.26,0,0,1-.17-.22.27.27,0,0,1,.14-.24l10.86-5.41a.25.25,0,0,1,.33.11.24.24,0,0,1-.11.34L25.48,64.05l6.81,2.28a.25.25,0,0,1,.17.22.24.24,0,0,1-.14.24l-9.86,4.92A.22.22,0,0,1,22.35,71.73Z" style="fill: #2c3742"/>
        <path d="M135.74,7.82a.25.25,0,0,1-.25-.23l-.24-2.95-1.1,1.28a.24.24,0,0,1-.26.08.26.26,0,0,1-.18-.22l-.26-3.23a.25.25,0,0,1,.23-.27.25.25,0,0,1,.27.23l.21,2.63,1.1-1.29a.22.22,0,0,1,.26-.07.25.25,0,0,1,.18.21L136,7.55a.26.26,0,0,1-.23.27Z" style="fill: #2c3742"/>
        <path d="M145.41,67.66a.25.25,0,0,1-.16-.06.26.26,0,0,1,0-.36l2.5-2.93-2.26.18a.25.25,0,0,1-.21-.41L147.88,61a.25.25,0,0,1,.35,0,.26.26,0,0,1,0,.36L146,63.94l2.25-.18a.23.23,0,0,1,.24.13.24.24,0,0,1,0,.28l-2.89,3.4A.25.25,0,0,1,145.41,67.66Z" style="fill: #2c3742"/>
        <path d="M80.89,161.45a.26.26,0,0,1-.24-.18l-1.05-3.64-1.21,2.19a.24.24,0,0,1-.24.13.29.29,0,0,1-.22-.18l-1.34-4.65a.25.25,0,0,1,.48-.14l1.18,4.07,1.21-2.19a.24.24,0,0,1,.45,0l1.22,4.22a.24.24,0,0,1-.17.31Z" style="fill: #2c3742"/>
        <path d="M246.7,139.73a.24.24,0,0,1-.07-.48l2.57-.81-1.34-.7a.27.27,0,0,1-.14-.25.25.25,0,0,1,.18-.21l2.86-.9a.25.25,0,0,1,.31.17.25.25,0,0,1-.16.31l-2.29.72,1.35.7a.24.24,0,0,1,.13.24.26.26,0,0,1-.17.22l-3.15,1Z" style="fill: #2c3742"/>
        <path d="M144.86,165.16a.22.22,0,0,1-.13,0L141.42,163a.26.26,0,0,1-.07-.35.24.24,0,0,1,.34-.07l2.8,1.8-.4-1.88a.23.23,0,0,1,.1-.26.26.26,0,0,1,.28,0l3,1.94a.24.24,0,0,1,.07.34.25.25,0,0,1-.34.08L144.7,163l.41,1.88a.23.23,0,0,1-.11.25A.24.24,0,0,1,144.86,165.16Z" style="fill: #2c3742"/>
        <path d="M276.46,28.75h-.09a.26.26,0,0,1-.15-.32l1.87-5.07-3.31,1.53a.25.25,0,0,1-.27-.05.25.25,0,0,1-.07-.27l2.28-6.2a.26.26,0,0,1,.33-.15.25.25,0,0,1,.14.32l-2.07,5.64,3.31-1.53a.24.24,0,0,1,.27,0,.25.25,0,0,1,.07.27l-2.08,5.64A.24.24,0,0,1,276.46,28.75Z" style="fill: #2c3742"/>
        <path d="M4.1,144.78H4a.25.25,0,0,1-.17-.31l.56-2-1.11.62a.24.24,0,0,1-.28,0,.26.26,0,0,1-.09-.26L3.75,140a.24.24,0,0,1,.3-.17.26.26,0,0,1,.18.31l-.64,2.23,1.12-.62a.23.23,0,0,1,.27,0,.25.25,0,0,1,.09.26l-.73,2.56A.25.25,0,0,1,4.1,144.78Z" style="fill: #2c3742"/>
        <path d="M198.91,250.9h-.08a.25.25,0,0,1-.15-.32l2.95-8.65L196,244.69a.26.26,0,0,1-.28,0,.25.25,0,0,1-.07-.27l3.47-10.15a.25.25,0,0,1,.32-.16.24.24,0,0,1,.15.32L196.31,244,202,241.2a.26.26,0,0,1,.28,0,.24.24,0,0,1,.07.27l-3.15,9.22A.25.25,0,0,1,198.91,250.9Z" style="fill: #2c3742"/>
        <path d="M148.31,147.49h-.07a.25.25,0,0,1-.17-.31l1.85-6.33L146,143a.23.23,0,0,1-.27,0,.26.26,0,0,1-.09-.26l2.23-7.61a.24.24,0,0,1,.31-.17.25.25,0,0,1,.17.31l-2.06,7,3.94-2.16a.24.24,0,0,1,.28,0,.25.25,0,0,1,.08.26l-2,6.91A.25.25,0,0,1,148.31,147.49Z" style="fill: #2c3742"/>
        <path d="M88.8,182.29a.25.25,0,0,1-.18-.08.24.24,0,0,1,0-.35l9.11-9.25-9,.06h0a.25.25,0,0,1-.23-.15.25.25,0,0,1,.05-.27L99,161.59a.25.25,0,0,1,.36,0,.24.24,0,0,1,0,.35L89.32,172.17l9-.07h0a.23.23,0,0,1,.23.15.26.26,0,0,1,0,.28L89,182.21A.27.27,0,0,1,88.8,182.29Z" style="fill: #2c3742"/>
        <path d="M159.27,101.75a.26.26,0,0,1-.25-.24.25.25,0,0,1,.24-.26l2.2-.15-1-.91a.25.25,0,0,1,.15-.44l3.09-.2a.23.23,0,0,1,.26.23.25.25,0,0,1-.23.27l-2.49.16,1.05.91a.27.27,0,0,1,.07.27.25.25,0,0,1-.22.17l-2.81.18Z" style="fill: #2c3742"/>
        <path d="M37.39,11.52a.26.26,0,0,1-.24-.17l-1.89-5.8L33.39,9.24a.24.24,0,0,1-.24.13.23.23,0,0,1-.22-.17l-2.29-7a.25.25,0,0,1,.16-.31.23.23,0,0,1,.31.16l2.1,6.43,1.88-3.68a.23.23,0,0,1,.24-.14.26.26,0,0,1,.22.17l2.08,6.37a.25.25,0,0,1-.16.32Z" style="fill: #2c3742"/>
        <path d="M136.23,261a.25.25,0,0,1-.23-.15.25.25,0,0,1,.13-.32l2.29-1-1.29-.51a.25.25,0,0,1,0-.46l2.58-1.11a.25.25,0,0,1,.33.13.25.25,0,0,1-.13.32l-2,.88,1.29.51a.28.28,0,0,1,.16.23.25.25,0,0,1-.16.23L136.33,261A.16.16,0,0,1,136.23,261Z" style="fill: #2c3742"/>
        <path d="M182.88,84.29a.22.22,0,0,1-.15-.06.25.25,0,0,1,0-.35l8.21-10.58-8.32,1a.23.23,0,0,1-.25-.12.26.26,0,0,1,0-.28l7.79-10.05a.24.24,0,0,1,.35,0,.25.25,0,0,1,.05.35l-7.42,9.57,8.32-1a.23.23,0,0,1,.25.12.26.26,0,0,1,0,.28l-8.58,11.06A.26.26,0,0,1,182.88,84.29Z" style="fill: #2c3742"/>
        <path d="M91.17,5.22a.25.25,0,0,1,0-.5l4.1,0-2-1.9a.23.23,0,0,1-.06-.27.25.25,0,0,1,.23-.16l5.17-.07h0a.26.26,0,0,1,.25.25.25.25,0,0,1-.25.25l-4.57.06,2,1.9a.27.27,0,0,1,.06.27.26.26,0,0,1-.23.16l-4.7.06Z" style="fill: #2c3742"/>
        <path d="M159.92,13.14h-.09l-13.9-4.94a.26.26,0,0,1-.16-.32.25.25,0,0,1,.32-.15l13.34,4.73-3.81-8a.24.24,0,0,1,0-.28.25.25,0,0,1,.26-.07l12.64,4.49a.25.25,0,0,1-.17.47L156.33,4.77l3.81,8a.24.24,0,0,1,0,.28A.25.25,0,0,1,159.92,13.14Z" style="fill: #2c3742"/>
        <path d="M12,124.52a.3.3,0,0,1-.15,0L.16,115.83a.25.25,0,0,1,0-.35.24.24,0,0,1,.35,0l11.23,8.28-1.45-9.59a.25.25,0,0,1,.4-.23l12.9,9.5a.25.25,0,0,1-.3.41l-12.41-9.15,1.45,9.58a.25.25,0,0,1-.12.25A.33.33,0,0,1,12,124.52Z" style="fill: #2c3742"/>
        <path d="M189.18,278.8a.25.25,0,0,1-.07-.49l7.62-2.45-4.38-2.25a.27.27,0,0,1-.14-.25.25.25,0,0,1,.17-.21l7.45-2.4a.25.25,0,0,1,.32.16.25.25,0,0,1-.16.31l-6.88,2.22,4.39,2.25a.23.23,0,0,1,.13.24.25.25,0,0,1-.17.22l-8.2,2.64Z" style="fill: #2c3742"/>
        <path d="M249.75,90.12a.26.26,0,0,1-.24-.17l-1.77-5.81-1.93,3.63a.26.26,0,0,1-.25.13.25.25,0,0,1-.21-.17l-2.15-7a.25.25,0,0,1,.17-.31.24.24,0,0,1,.31.17l2,6.44,1.93-3.63a.28.28,0,0,1,.25-.13.25.25,0,0,1,.21.18l2,6.38a.24.24,0,0,1-.17.31Z" style="fill: #2c3742"/>
        <path d="M112.57,79.77a.25.25,0,0,1-.24-.19L109.46,67l-4.32,6.86a.25.25,0,0,1-.45-.08l-2.73-12a.25.25,0,0,1,.19-.3.24.24,0,0,1,.3.19L105,73l4.32-6.85a.25.25,0,0,1,.25-.12.26.26,0,0,1,.2.19l3,13.22a.25.25,0,0,1-.18.3Z" style="fill: #2c3742"/>
        <path d="M104.2,98.09h0a.25.25,0,0,1-.23-.27l.3-3.89-1.74,1.49a.25.25,0,0,1-.41-.21l.32-4.08a.25.25,0,0,1,.27-.23.26.26,0,0,1,.23.27l-.27,3.48,1.73-1.49a.24.24,0,0,1,.28,0,.26.26,0,0,1,.14.24l-.35,4.49A.25.25,0,0,1,104.2,98.09Z" style="fill: #2c3742"/>
        <path d="M160.52,63.1a.28.28,0,0,1-.13,0,.26.26,0,0,1-.09-.35L163.77,57l-4,1a.26.26,0,0,1-.26-.1.24.24,0,0,1,0-.28L163,51.91a.25.25,0,0,1,.34-.08.25.25,0,0,1,.09.34l-3.12,5.17,4-1a.24.24,0,0,1,.26.09.26.26,0,0,1,0,.28L160.73,63A.24.24,0,0,1,160.52,63.1Z" style="fill: #2c3742"/>
        <path d="M86.89,61.12a.3.3,0,0,1-.16,0l-2.3-1.82a.26.26,0,0,1,0-.36.26.26,0,0,1,.35,0l1.83,1.45L86.42,59a.25.25,0,0,1,.4-.22l2.1,1.65a.25.25,0,0,1-.31.39L87,59.56l.15,1.28a.26.26,0,0,1-.13.25Z" style="fill: #2c3742"/>
        <path d="M20.41,29.21l-.09,0a.25.25,0,0,1-.15-.32L24,18.44l-6.29,2.89a.24.24,0,0,1-.28,0A.25.25,0,0,1,17.4,21l3.69-10a.26.26,0,0,1,.33-.15.24.24,0,0,1,.14.32l-3.48,9.43,6.29-2.9a.28.28,0,0,1,.28,0,.26.26,0,0,1,.06.28L20.64,29A.26.26,0,0,1,20.41,29.21Z" style="fill: #2c3742"/>
        <path d="M182.37,170.43h0a.25.25,0,0,1-.24-.26l.53-11.58L176.73,164a.26.26,0,0,1-.28,0,.26.26,0,0,1-.14-.24l.61-13.4a.25.25,0,0,1,.26-.24.25.25,0,0,1,.24.26l-.58,12.8,5.92-5.4a.24.24,0,0,1,.27,0,.25.25,0,0,1,.15.23l-.56,12.18A.26.26,0,0,1,182.37,170.43Z" style="fill: #2c3742"/>
        <path d="M93.1,207.21a.25.25,0,0,1-.25-.23l-1.22-11.2-4.88,6.08a.27.27,0,0,1-.27.08.25.25,0,0,1-.17-.21l-1.42-13a.25.25,0,1,1,.5-.06l1.35,12.39L91.62,195a.25.25,0,0,1,.44.13l1.29,11.8a.25.25,0,0,1-.22.27Z" style="fill: #2c3742"/>
        <path d="M267.92,110.18a.25.25,0,0,1-.24-.17l-2.5-7.55-2.44,4.87a.24.24,0,0,1-.24.13.23.23,0,0,1-.22-.17l-3-8.93a.26.26,0,0,1,.16-.32.25.25,0,0,1,.31.16l2.77,8.36L265,101.7a.24.24,0,0,1,.24-.14.26.26,0,0,1,.22.17l2.68,8.12a.23.23,0,0,1-.15.31Z" style="fill: #2c3742"/>
        <path d="M86.8,25.14a.25.25,0,0,1,0-.5l5.69-1.24-3.32-2.13A.25.25,0,0,1,89,21a.26.26,0,0,1,.19-.2l6.92-1.51a.25.25,0,0,1,.1.49L89.9,21.17l3.32,2.13a.27.27,0,0,1,.11.26.26.26,0,0,1-.19.2l-6.29,1.37Z" style="fill: #2c3742"/>
        <path d="M193.18,174.2a.25.25,0,0,1,0-.5L208,171.82l-7.43-5.76a.24.24,0,0,1-.08-.26.26.26,0,0,1,.21-.19l14-1.77a.25.25,0,0,1,.28.21.25.25,0,0,1-.22.28L201.36,166l7.43,5.77a.25.25,0,0,1,.09.26.25.25,0,0,1-.21.18l-15.46,2Z" style="fill: #2c3742"/>
        <path d="M157,225a.23.23,0,0,1-.17-.07.25.25,0,0,1,0-.35l1.46-1.57-1.16,0a.24.24,0,0,1-.23-.14.24.24,0,0,1,0-.28l1.7-1.82a.25.25,0,0,1,.35,0,.25.25,0,0,1,0,.36l-1.28,1.38,1.16,0a.24.24,0,0,1,.23.15.23.23,0,0,1,0,.27l-1.87,2A.27.27,0,0,1,157,225Z" style="fill: #2c3742"/>
        <path d="M172.74,254.69h-.07a.27.27,0,0,1-.18-.31l.88-3.35-2,1.15a.24.24,0,0,1-.27,0,.24.24,0,0,1-.09-.26l1.13-4.33a.25.25,0,0,1,.49.13l-1,3.74,2-1.14a.25.25,0,0,1,.37.28l-1,3.93A.25.25,0,0,1,172.74,254.69Z" style="fill: #2c3742"/>
        <path d="M8.6,213.08a.25.25,0,0,1-.24-.16l-1.6-4.36L5.6,211.07a.26.26,0,0,1-.24.14.22.22,0,0,1-.22-.16L3.5,206.57a.25.25,0,0,1,.15-.32.26.26,0,0,1,.32.15l1.43,3.91,1.16-2.51a.29.29,0,0,1,.24-.14.24.24,0,0,1,.22.16l1.81,4.93a.25.25,0,0,1-.15.32Z" style="fill: #2c3742"/>
        <path d="M123,22.4h-.06l-3.06-.69a.25.25,0,0,1-.19-.3.26.26,0,0,1,.3-.19l2.47.56-.76-1.19a.26.26,0,0,1,0-.28.24.24,0,0,1,.26-.1l2.78.62a.25.25,0,0,1,.19.29.24.24,0,0,1-.3.19l-2.19-.48L123.2,22a.25.25,0,0,1-.21.38Z" style="fill: #2c3742"/>
        <path d="M235.38,157.82a.19.19,0,0,1-.1,0L222.64,152a.24.24,0,0,1-.12-.33.25.25,0,0,1,.33-.13l12.09,5.56-3.21-8.66a.25.25,0,0,1,.07-.27.23.23,0,0,1,.27,0L246,154.51a.25.25,0,1,1-.21.45l-13.36-6.14,3.21,8.66a.25.25,0,0,1-.07.27A.26.26,0,0,1,235.38,157.82Z" style="fill: #2c3742"/>
        <path d="M216.17,255.74h-.07a.25.25,0,0,1-.17-.31l2.19-7.82-4.85,2.73a.24.24,0,0,1-.28,0,.23.23,0,0,1-.08-.26l2.59-9.25a.25.25,0,0,1,.31-.17.25.25,0,0,1,.17.31l-2.43,8.66,4.85-2.72a.26.26,0,0,1,.28,0,.26.26,0,0,1,.09.26l-2.36,8.4A.26.26,0,0,1,216.17,255.74Z" style="fill: #2c3742"/>
        <path d="M108,249.44a.26.26,0,0,1-.24-.16.25.25,0,0,1,.14-.32l5.59-2.28-3.37-1.42a.25.25,0,0,1,0-.46l5.58-2.28a.25.25,0,0,1,.19.47l-5,2,3.37,1.42a.27.27,0,0,1,.15.24.25.25,0,0,1-.15.23l-6.15,2.5Z" style="fill: #2c3742"/>
        <path d="M188,191.45a.27.27,0,0,1-.19-.08l-8.26-8.84-.26,7.56a.22.22,0,0,1-.16.22.25.25,0,0,1-.27-.06l-7.88-8.43a.25.25,0,0,1,0-.36.25.25,0,0,1,.35,0l7.47,8,.26-7.56a.24.24,0,0,1,.16-.22.23.23,0,0,1,.27.06l8.68,9.28a.25.25,0,0,1,0,.35A.23.23,0,0,1,188,191.45Z" style="fill: #2c3742"/>
        <path d="M231.51,118.4h0a.24.24,0,0,1-.24-.26l.46-11.66L225.79,112a.23.23,0,0,1-.27,0,.24.24,0,0,1-.15-.23l.54-13.5a.25.25,0,0,1,.26-.24.25.25,0,0,1,.24.26l-.51,12.89,5.93-5.47a.25.25,0,0,1,.27,0,.28.28,0,0,1,.15.24l-.49,12.26A.25.25,0,0,1,231.51,118.4Z" style="fill: #2c3742"/>
        <path d="M239.17,70.28h-.06l-5.44-1.37a.26.26,0,0,1-.18-.31.25.25,0,0,1,.3-.18l4.85,1.22-1.53-2.57a.24.24,0,0,1,0-.28.25.25,0,0,1,.26-.09l4.94,1.24a.26.26,0,0,1,.18.31.25.25,0,0,1-.3.18l-4.36-1.1,1.54,2.57a.26.26,0,0,1,0,.28A.25.25,0,0,1,239.17,70.28Z" style="fill: #2c3742"/>
        <path d="M263.25,213.47h-.07a.24.24,0,0,1-.17-.31l.6-2-1.13.59a.24.24,0,0,1-.27,0,.25.25,0,0,1-.08-.27l.85-2.79a.25.25,0,0,1,.32-.17.25.25,0,0,1,.16.31l-.68,2.22,1.13-.6a.23.23,0,0,1,.27,0,.24.24,0,0,1,.08.26l-.77,2.54A.25.25,0,0,1,263.25,213.47Z" style="fill: #2c3742"/>
      </g>
    </g>
  </g>
</svg>
