<svg xmlns="http://www.w3.org/2000/svg" viewBox="0 0 297.51 292.84">
  <g id="Layer_2" data-name="Layer 2">
    <g id="Layer_1-2" data-name="Layer 1">
      <g>
        <path d="M297.51,179.86a3.13,3.13,0,0,0-2.15-2.57,3.45,3.45,0,0,0,2.15,3.52Z" style="fill: #314057;fill-rule: evenodd"/>
        <path d="M239.09,177.38c.26,1.61-.5,2.58-1.79,3.43C237,178.8,237.17,178.52,239.09,177.38Z" style="fill: #314057;fill-rule: evenodd"/>
        <path d="M223.82,180.77c-2-1.15-2-1.15-2.16-3.48C223.14,177.94,223.65,179,223.82,180.77Z" style="fill: #314057;fill-rule: evenodd"/>
        <path d="M165.25,177.14a3.46,3.46,0,0,1-2,3.77C163,179,163.83,178.09,165.25,177.14Z" style="fill: #314057;fill-rule: evenodd"/>
        <path d="M149.94,180.64c-2-.88-2.14-1.17-2-3.31A3.4,3.4,0,0,1,149.94,180.64Z" style="fill: #314057;fill-rule: evenodd"/>
        <path d="M89.23,180.78a3.87,3.87,0,0,1,1.91-3.48C91.47,179.28,91.33,179.56,89.23,180.78Z" style="fill: #314057;fill-rule: evenodd"/>
        <path d="M74,177.25a3.63,3.63,0,0,1,2.13,3.24C74.27,180,74.1,179.73,74,177.25Z" style="fill: #314057;fill-rule: evenodd"/>
        <path d="M15.36,180.94c.15-1.86.63-3,2.19-3.64C17.76,179,17.17,180,15.36,180.94Z" style="fill: #314057;fill-rule: evenodd"/>
        <path d="M.2,177.34a3.35,3.35,0,0,1,2.06,3.26C.32,179.81.15,179.54.2,177.34Z" style="fill: #314057;fill-rule: evenodd"/>
        <path d="M15.37,265.54a3.44,3.44,0,0,1,2.06-3C17.54,264.78,17.14,265.36,15.37,265.54Z" style="fill: #314057;fill-rule: evenodd"/>
        <path d="M2.05,265.88c-1.57-.54-2-1.69-2-3.18C1.85,263.42,2,263.62,2.05,265.88Z" style="fill: #314057;fill-rule: evenodd"/>
        <path d="M297.51,246.57c-1.58.71-2.14,1.77-2.13,3.69a3.66,3.66,0,0,0,2.13-2.87Z" style="fill: #314057;fill-rule: evenodd"/>
        <path d="M239,250a3.23,3.23,0,0,1-2.09-3.18C238.77,247.46,239,247.74,239,250Z" style="fill: #314057;fill-rule: evenodd"/>
        <path d="M223.82,246.61c-.16,1.71-.67,2.79-2,3.45C221.59,248.05,221.72,247.8,223.82,246.61Z" style="fill: #314057;fill-rule: evenodd"/>
        <path d="M163.07,246.32c1.7,1.1,2.36,2.11,2.23,3.81C163.68,249.42,163.18,248.31,163.07,246.32Z" style="fill: #314057;fill-rule: evenodd"/>
        <path d="M149.68,246.81a2.88,2.88,0,0,1-2,3.3A3,3,0,0,1,149.68,246.81Z" style="fill: #314057;fill-rule: evenodd"/>
        <path d="M91.33,250.05a3.29,3.29,0,0,1-2.08-3.22C91.11,247.5,91.29,247.78,91.33,250.05Z" style="fill: #314057;fill-rule: evenodd"/>
        <path d="M76.14,246.34c-.16,2-.64,3.1-2.26,3.76C73.76,248.39,74.43,247.38,76.14,246.34Z" style="fill: #314057;fill-rule: evenodd"/>
        <path d="M15.65,246.5c1.43.93,2.09,1.91,2,3.38C15.78,249.09,15.61,248.81,15.65,246.5Z" style="fill: #314057;fill-rule: evenodd"/>
        <path d="M39.18,32c-1.7-1.05-2.41-2-2.12-3.72C38.59,28.93,39.1,30,39.18,32Z" style="fill: #314057;fill-rule: evenodd"/>
        <path d="M52.34,31.94a3.86,3.86,0,0,1,2.11-3.8C54.72,29.91,54,30.91,52.34,31.94Z" style="fill: #314057;fill-rule: evenodd"/>
        <path d="M111,28.28A3.28,3.28,0,0,1,113,31.53C111.1,30.76,110.94,30.49,111,28.28Z" style="fill: #314057;fill-rule: evenodd"/>
        <path d="M126.43,31.54a2.87,2.87,0,0,1,1.87-3.31C128.63,29.94,127.77,30.87,126.43,31.54Z" style="fill: #314057;fill-rule: evenodd"/>
        <path d="M186.87,31.93c-1.73-1-2.36-2.05-2.19-3.73C186.28,28.93,186.79,30,186.87,31.93Z" style="fill: #314057;fill-rule: evenodd"/>
        <path d="M200,31.94a3.87,3.87,0,0,1,2.11-3.8C202.41,29.91,201.71,30.91,200,31.94Z" style="fill: #314057;fill-rule: evenodd"/>
        <path d="M258.61,28.19a3.61,3.61,0,0,1,2.09,3.27C258.86,30.87,258.68,30.6,258.61,28.19Z" style="fill: #314057;fill-rule: evenodd"/>
        <path d="M276,28.29a3.09,3.09,0,0,1-1.73,3.41C273.88,29.82,274,29.56,276,28.29Z" style="fill: #314057;fill-rule: evenodd"/>
        <path d="M2.29,33.5c-.14,1.89-.63,3-2.17,3.67C-.11,35.51.51,34.47,2.29,33.5Z" style="fill: #314057;fill-rule: evenodd"/>
        <path d="M15.47,33.53c1.68,1,2.25,2,2.13,3.6C15.94,36.49,15.48,35.37,15.47,33.53Z" style="fill: #314057;fill-rule: evenodd"/>
        <path d="M76.13,34.08a3.5,3.5,0,0,1-2,3.05C74,34.87,74.37,34.27,76.13,34.08Z" style="fill: #314057;fill-rule: evenodd"/>
        <path d="M91.42,37.19a3.7,3.7,0,0,1-2.25-3.14C90.93,34.3,91.18,34.63,91.42,37.19Z" style="fill: #314057;fill-rule: evenodd"/>
        <path d="M150,33.63c-.15,1.71-.64,2.79-1.91,3.47C147.69,35.25,147.83,35,150,33.63Z" style="fill: #314057;fill-rule: evenodd"/>
        <path d="M163.26,34c1.58.44,2.1,1.52,2,3.2C163.64,36.57,163.31,35.36,163.26,34Z" style="fill: #314057;fill-rule: evenodd"/>
        <path d="M223.84,33.7c-.19,1.69-.69,2.78-2,3.44C221.6,35.12,221.76,34.81,223.84,33.7Z" style="fill: #314057;fill-rule: evenodd"/>
        <path d="M239.08,37.23a3.62,3.62,0,0,1-2.16-3.2C238.66,34.36,238.89,34.69,239.08,37.23Z" style="fill: #314057;fill-rule: evenodd"/>
        <path d="M297.51,33.85c-1.85.89-2,1.24-1.88,3.3a3.33,3.33,0,0,0,1.88-2.4Z" style="fill: #314057;fill-rule: evenodd"/>
        <path d="M0,250.36c0-2,.55-3.09,2.15-3.8C2.3,248.31,1.55,249.28,0,250.36Z" style="fill: #314057;fill-rule: evenodd"/>
        <path d="M276,241c.08,1.94-.5,3-2.13,3.73C273.82,243,274.49,242,276,241Z" style="fill: #314057;fill-rule: evenodd"/>
        <path d="M200,244.66c.17-1.69.65-2.78,1.95-3.46C202.23,243.14,202.1,243.4,200,244.66Z" style="fill: #314057;fill-rule: evenodd"/>
        <path d="M128.17,241.18c.13,2.14,0,2.41-2,3.33A3.49,3.49,0,0,1,128.17,241.18Z" style="fill: #314057;fill-rule: evenodd"/>
        <path d="M52.31,244.52a3.75,3.75,0,0,1,2-3.4C54.46,243.31,54.3,243.59,52.31,244.52Z" style="fill: #314057;fill-rule: evenodd"/>
        <path d="M239.16,219.69c0,1.93-.52,3-2.11,3.69C236.88,221.64,237.61,220.66,239.16,219.69Z" style="fill: #314057;fill-rule: evenodd"/>
        <path d="M163.18,223.27a3.68,3.68,0,0,1,1.82-3.48C165.31,221.87,165.18,222.13,163.18,223.27Z" style="fill: #314057;fill-rule: evenodd"/>
        <path d="M39.2,97.54c-.13,1.71-.62,2.78-1.9,3.47C36.92,99.14,37.05,98.89,39.2,97.54Z" style="fill: #314057;fill-rule: evenodd"/>
        <path d="M54.33,101a3.41,3.41,0,0,1-2-3.32C54.31,98.63,54.47,98.91,54.33,101Z" style="fill: #314057;fill-rule: evenodd"/>
        <path d="M110.79,101a3.29,3.29,0,0,1,1.85-3.41C113,99.52,112.8,99.82,110.79,101Z" style="fill: #314057;fill-rule: evenodd"/>
        <path d="M128.25,101a3.26,3.26,0,0,1-2.08-3.2C128.05,98.47,128.22,98.74,128.25,101Z" style="fill: #314057;fill-rule: evenodd"/>
        <path d="M184.64,101c.31-2.24.31-2.24,1.86-3.3C186.8,99.52,186.64,99.82,184.64,101Z" style="fill: #314057;fill-rule: evenodd"/>
        <path d="M200.24,97.63a3,3,0,0,1,2,3.23C200.39,100.07,200.25,99.84,200.24,97.63Z" style="fill: #314057;fill-rule: evenodd"/>
        <path d="M258.51,101.08a3.35,3.35,0,0,1,2-3.58A3.12,3.12,0,0,1,258.51,101.08Z" style="fill: #314057;fill-rule: evenodd"/>
        <path d="M275.93,101a3.28,3.28,0,0,1-2.08-3.2C275.74,98.47,275.91,98.74,275.93,101Z" style="fill: #314057;fill-rule: evenodd"/>
        <path d="M15.38,53.28c.11-2,.71-3,2.2-3.87C17.76,51.22,17.08,52.22,15.38,53.28Z" style="fill: #314057;fill-rule: evenodd"/>
        <path d="M89.29,52.88a3.69,3.69,0,0,1,2-3.42C91.39,51.68,91.23,52,89.29,52.88Z" style="fill: #314057;fill-rule: evenodd"/>
        <path d="M163.13,52.88a3.67,3.67,0,0,1,2-3.42C165.23,51.68,165.07,52,163.13,52.88Z" style="fill: #314057;fill-rule: evenodd"/>
        <path d="M239.12,49.17a3.6,3.6,0,0,1-2,3.95C236.83,51.32,237.67,50.41,239.12,49.17Z" style="fill: #314057;fill-rule: evenodd"/>
        <path d="M273.84,159.36a3.73,3.73,0,0,1,2-3.4C276,158.12,275.84,158.4,273.84,159.36Z" style="fill: #314057;fill-rule: evenodd"/>
        <path d="M202.21,155.8c.07,1.94-.51,3-2.14,3.73C200,157.81,200.65,156.8,202.21,155.8Z" style="fill: #314057;fill-rule: evenodd"/>
        <path d="M126.11,159.7c.17-1.92.63-3.06,2.19-3.7C128.55,157.69,127.84,158.68,126.11,159.7Z" style="fill: #314057;fill-rule: evenodd"/>
        <path d="M52.31,159.34a3.49,3.49,0,0,1,2-3.33C54.46,158.15,54.29,158.43,52.31,159.34Z" style="fill: #314057;fill-rule: evenodd"/>
        <path d="M237.05,138.09a3.26,3.26,0,0,1,1.81-3.38C239.15,136.71,239,137,237.05,138.09Z" style="fill: #314057;fill-rule: evenodd"/>
        <path d="M91.44,219.54c.11,2.06-.51,3.08-2,3.88C89.14,221.64,90,220.73,91.44,219.54Z" style="fill: #314057;fill-rule: evenodd"/>
        <path d="M17.61,219.67a3.47,3.47,0,0,1-2,3.75C15.3,221.64,16.09,220.7,17.61,219.67Z" style="fill: #314057;fill-rule: evenodd"/>
        <path d="M297.51,204.25c-1.78.71-2,1.06-1.95,3.22a3.09,3.09,0,0,0,1.95-2.41Z" style="fill: #314057;fill-rule: evenodd"/>
        <path d="M236.9,204.13c2,.91,2.18,1.24,2,3.34A3.57,3.57,0,0,1,236.9,204.13Z" style="fill: #314057;fill-rule: evenodd"/>
        <path d="M223.83,204c-.17,1.69-.65,2.77-2,3.44C221.57,205.5,221.73,205.2,223.83,204Z" style="fill: #314057;fill-rule: evenodd"/>
        <path d="M165.15,207.46a3.36,3.36,0,0,1-2.07-3.25C165,204.94,165.18,205.26,165.15,207.46Z" style="fill: #314057;fill-rule: evenodd"/>
        <path d="M150,203.84c-.17,1.89-.64,3-2.21,3.65C147.6,205.84,148.19,204.78,150,203.84Z" style="fill: #314057;fill-rule: evenodd"/>
        <path d="M91.42,207.54a3.57,3.57,0,0,1-2.2-3.15C90.92,204.63,91.18,205,91.42,207.54Z" style="fill: #314057;fill-rule: evenodd"/>
        <path d="M73.93,207.51a3.26,3.26,0,0,1,2-3.57A3.12,3.12,0,0,1,73.93,207.51Z" style="fill: #314057;fill-rule: evenodd"/>
        <path d="M15.47,203.86c1.68,1,2.25,2,2.13,3.6C15.93,206.83,15.48,205.7,15.47,203.86Z" style="fill: #314057;fill-rule: evenodd"/>
        <path d="M.08,207.67a3.36,3.36,0,0,1,2-3.73C2.36,205.7,1.59,206.65.08,207.67Z" style="fill: #314057;fill-rule: evenodd"/>
        <path d="M165.29,134.49a3.51,3.51,0,0,1-2,3.77C163,136.47,163.79,135.56,165.29,134.49Z" style="fill: #314057;fill-rule: evenodd"/>
        <path d="M89.22,138.45c.12-2,.71-3,2.22-3.88C91.59,136.4,90.92,137.4,89.22,138.45Z" style="fill: #314057;fill-rule: evenodd"/>
        <path d="M15.43,138.05a3.43,3.43,0,0,1,2-3.34C17.55,136.84,17.39,137.13,15.43,138.05Z" style="fill: #314057;fill-rule: evenodd"/>
        <path d="M39.07,117.06c-1.57-1-2.24-2-2.09-3.63C38.64,114.1,39.16,115.2,39.07,117.06Z" style="fill: #314057;fill-rule: evenodd"/>
        <path d="M52.28,117.2c.16-2,.63-3.15,2.22-3.8C54.71,115.14,53.93,116.09,52.28,117.2Z" style="fill: #314057;fill-rule: evenodd"/>
        <path d="M297.51,161.47c-2,1.32-2.15,1.59-1.75,3.39a3.37,3.37,0,0,0,1.75-2.5Z" style="fill: #314057;fill-rule: evenodd"/>
        <path d="M237.16,161.45a3.13,3.13,0,0,1,2,3.25C237.32,163.94,237.16,163.68,237.16,161.45Z" style="fill: #314057;fill-rule: evenodd"/>
        <path d="M223.79,161.4a3.69,3.69,0,0,1-1.88,3.46C221.51,163,221.63,162.79,223.79,161.4Z" style="fill: #314057;fill-rule: evenodd"/>
        <path d="M165.15,164.89c-1.5-.61-1.89-1.79-2.14-3.29C165,162.4,165.17,162.67,165.15,164.89Z" style="fill: #314057;fill-rule: evenodd"/>
        <path d="M150,161.39a3.75,3.75,0,0,1-1.89,3.48C147.67,163,147.79,162.78,150,161.39Z" style="fill: #314057;fill-rule: evenodd"/>
        <path d="M91.48,165.09c-1.58-1-2.29-2-2.11-3.69C90.93,162.12,91.51,163.17,91.48,165.09Z" style="fill: #314057;fill-rule: evenodd"/>
        <path d="M73.86,164.9a3.5,3.5,0,0,1,1.84-3.45C76.05,163.37,75.9,163.65,73.86,164.9Z" style="fill: #314057;fill-rule: evenodd"/>
        <path d="M15.38,161.23c1.69,1,2.34,2,2.24,3.7C16,164.28,15.52,163.17,15.38,161.23Z" style="fill: #314057;fill-rule: evenodd"/>
        <path d="M0,165.07c0-1.9.54-3,2.17-3.67A3.6,3.6,0,0,1,0,165.07Z" style="fill: #314057;fill-rule: evenodd"/>
        <path d="M273.84,202.09c.11-1.71.62-2.77,1.89-3.46C276.1,200.51,276,200.75,273.84,202.09Z" style="fill: #314057;fill-rule: evenodd"/>
        <path d="M258.65,198.61a3.29,3.29,0,0,1,2.05,3.25C258.78,201.09,258.62,200.83,258.65,198.61Z" style="fill: #314057;fill-rule: evenodd"/>
        <path d="M200.06,202a3.62,3.62,0,0,1,1.92-3.44C202.18,200.67,202,200.92,200.06,202Z" style="fill: #314057;fill-rule: evenodd"/>
        <path d="M184.83,198.51a3.63,3.63,0,0,1,2,3.39C184.9,201,184.74,200.76,184.83,198.51Z" style="fill: #314057;fill-rule: evenodd"/>
        <path d="M128.38,198.6a3.39,3.39,0,0,1-1.83,3.44C126.22,200.1,126.37,199.83,128.38,198.6Z" style="fill: #314057;fill-rule: evenodd"/>
        <path d="M112.8,202.05a3.1,3.1,0,0,1-2-3.26C112.64,199.57,112.79,199.8,112.8,202.05Z" style="fill: #314057;fill-rule: evenodd"/>
        <path d="M54.46,198.62A3.1,3.1,0,0,1,52.72,202C52.37,200.13,52.5,199.87,54.46,198.62Z" style="fill: #314057;fill-rule: evenodd"/>
        <path d="M39.24,202c-2.05-1-2.2-1.24-2.08-3.36C38.64,199.24,39,200.42,39.24,202Z" style="fill: #314057;fill-rule: evenodd"/>
        <path d="M110.92,113.35a3.58,3.58,0,0,1,2.09,3.27C111.17,116,111,115.77,110.92,113.35Z" style="fill: #314057;fill-rule: evenodd"/>
        <path d="M128.34,113.22a3.49,3.49,0,0,1-2,3.77C126,115.21,126.83,114.26,128.34,113.22Z" style="fill: #314057;fill-rule: evenodd"/>
        <path d="M186.86,116.77c-2-1-2.13-1.21-2-3.33A3.39,3.39,0,0,1,186.86,116.77Z" style="fill: #314057;fill-rule: evenodd"/>
        <path d="M200.1,116.83a3.33,3.33,0,0,1,1.84-3.41C202.22,115.43,202.09,115.67,200.1,116.83Z" style="fill: #314057;fill-rule: evenodd"/>
        <path d="M52.35,73.92c.46-2,.46-2,2-3C54.47,73.09,54.06,73.71,52.35,73.92Z" style="fill: #314057;fill-rule: evenodd"/>
        <path d="M258.63,113.45c1.53.58,1.88,1.78,2.17,3.25C258.82,116,258.65,115.71,258.63,113.45Z" style="fill: #314057;fill-rule: evenodd"/>
        <path d="M128.29,70.91a3,3,0,0,1-1.75,3.37C126.22,72.37,126.38,72.07,128.29,70.91Z" style="fill: #314057;fill-rule: evenodd"/>
        <path d="M275.88,113.34c.1,2.24-.05,2.5-2,3.41A3.63,3.63,0,0,1,275.88,113.34Z" style="fill: #314057;fill-rule: evenodd"/>
        <path d="M202.22,70.85a3.35,3.35,0,0,1-1.84,3.43C200.07,72.38,200.22,72.08,202.22,70.85Z" style="fill: #314057;fill-rule: evenodd"/>
        <path d="M276.07,70.85a3.35,3.35,0,0,1-1.85,3.43C273.91,72.38,274.07,72.08,276.07,70.85Z" style="fill: #314057;fill-rule: evenodd"/>
        <path d="M2.26,76.23A3.74,3.74,0,0,1,.39,79.7C0,77.85.1,77.62,2.26,76.23Z" style="fill: #314057;fill-rule: evenodd"/>
        <path d="M15.61,76.3a3.1,3.1,0,0,1,2,3.21C15.81,78.81,15.65,78.57,15.61,76.3Z" style="fill: #314057;fill-rule: evenodd"/>
        <path d="M76.14,76c-.16,2-.63,3.1-2.26,3.76C73.76,78.06,74.43,77.05,76.14,76Z" style="fill: #314057;fill-rule: evenodd"/>
        <path d="M89.21,76.09a3.67,3.67,0,0,1,2.3,3.69C89.84,79.13,89.37,78,89.21,76.09Z" style="fill: #314057;fill-rule: evenodd"/>
        <path d="M149.87,76.38a3.62,3.62,0,0,1-1.9,3.45C147.77,77.68,147.91,77.41,149.87,76.38Z" style="fill: #314057;fill-rule: evenodd"/>
        <path d="M165.11,79.83a3.69,3.69,0,0,1-2-3.4C165.05,77.31,165.21,77.58,165.11,79.83Z" style="fill: #314057;fill-rule: evenodd"/>
        <path d="M223.79,76.23a3.72,3.72,0,0,1-1.87,3.47C221.51,77.85,221.63,77.62,223.79,76.23Z" style="fill: #314057;fill-rule: evenodd"/>
        <path d="M239.17,79.92c-1.59-1-2.3-2-2.12-3.69C238.62,77,239.2,78,239.17,79.92Z" style="fill: #314057;fill-rule: evenodd"/>
        <path d="M297.51,76.4c-1.91,1-2.05,1.3-1.85,3.43a3.77,3.77,0,0,0,1.85-2.6Z" style="fill: #314057;fill-rule: evenodd"/>
        <path d="M2.21,118.88c-.36,2.19-.36,2.19-1.87,3.32C0,120.36.18,120.07,2.21,118.88Z" style="fill: #314057;fill-rule: evenodd"/>
        <path d="M15.39,119c1.92.77,2.12,1.1,2.05,3.27A3.4,3.4,0,0,1,15.39,119Z" style="fill: #314057;fill-rule: evenodd"/>
        <path d="M273.82,182.59a3.47,3.47,0,0,1,2.25,3.66C274.43,185.6,274,184.46,273.82,182.59Z" style="fill: #314057;fill-rule: evenodd"/>
        <path d="M260.73,182.7c-.13,1.72-.63,2.79-1.9,3.47C258.45,184.31,258.58,184.05,260.73,182.7Z" style="fill: #314057;fill-rule: evenodd"/>
        <path d="M200,182.58c1.78.94,2.38,2,2.2,3.65C200.59,185.6,200.13,184.46,200,182.58Z" style="fill: #314057;fill-rule: evenodd"/>
        <path d="M184.67,186.25a3.33,3.33,0,0,1,2-3.58A3.14,3.14,0,0,1,184.67,186.25Z" style="fill: #314057;fill-rule: evenodd"/>
        <path d="M126.26,182.6c1.64,1,2.23,2,2.11,3.61C126.71,185.55,126.21,184.45,126.26,182.6Z" style="fill: #314057;fill-rule: evenodd"/>
        <path d="M113,182.7c-.12,1.72-.62,2.79-1.9,3.47C110.76,184.31,110.89,184.05,113,182.7Z" style="fill: #314057;fill-rule: evenodd"/>
        <path d="M52.29,182.58c1.78.94,2.38,2,2.19,3.65C52.9,185.6,52.44,184.46,52.29,182.58Z" style="fill: #314057;fill-rule: evenodd"/>
        <path d="M39.18,182.75a3.84,3.84,0,0,1-1.91,3.49C37,184.24,37.09,184,39.18,182.75Z" style="fill: #314057;fill-rule: evenodd"/>
        <path d="M76.14,118.83c-.16,1.7-.66,2.78-2,3.46C73.88,120.34,74,120.05,76.14,118.83Z" style="fill: #314057;fill-rule: evenodd"/>
        <path d="M89.2,118.68c1.8.95,2.39,2,2.19,3.64C89.84,121.69,89.37,120.56,89.2,118.68Z" style="fill: #314057;fill-rule: evenodd"/>
        <path d="M150,119.24a3.53,3.53,0,0,1-2.05,3.06C147.8,120,148.21,119.44,150,119.24Z" style="fill: #314057;fill-rule: evenodd"/>
        <path d="M165.1,122.31a3.46,3.46,0,0,1-2-3.31C165,119.85,165.23,120.18,165.1,122.31Z" style="fill: #314057;fill-rule: evenodd"/>
        <path d="M223.82,118.8c-.14,1.71-.64,2.78-1.9,3.47C221.53,120.41,221.67,120.13,223.82,118.8Z" style="fill: #314057;fill-rule: evenodd"/>
        <path d="M236.93,119.05c1.9.73,2.1,1,2.06,3.25A3.36,3.36,0,0,1,236.93,119.05Z" style="fill: #314057;fill-rule: evenodd"/>
        <path d="M295.46,122.34a3.25,3.25,0,0,1,2-3.56A3.12,3.12,0,0,1,295.46,122.34Z" style="fill: #314057;fill-rule: evenodd"/>
        <path d="M0,92.06c1.71.76,2.1,1.93,2.34,3.57C.48,95,.07,93.87,0,92.06Z" style="fill: #314057;fill-rule: evenodd"/>
        <path d="M15.36,95.63c.16-1.7.65-2.78,1.95-3.44C17.63,94.12,17.48,94.4,15.36,95.63Z" style="fill: #314057;fill-rule: evenodd"/>
        <path d="M74,92.08a3.84,3.84,0,0,1,2.21,3.22C74.3,94.87,74.12,94.61,74,92.08Z" style="fill: #314057;fill-rule: evenodd"/>
        <path d="M91.48,92.15c0,1.73-.53,2.77-1.87,3.4C89.31,93.67,89.46,93.38,91.48,92.15Z" style="fill: #314057;fill-rule: evenodd"/>
        <path d="M149.73,95.37c-1.79-1.11-1.79-1.11-1.92-3.21A2.9,2.9,0,0,1,149.73,95.37Z" style="fill: #314057;fill-rule: evenodd"/>
        <path d="M163.07,95.51a3.54,3.54,0,0,1,2-3.36C165.24,94.28,165.08,94.56,163.07,95.51Z" style="fill: #314057;fill-rule: evenodd"/>
        <path d="M221.65,92.13c1.71,1.22,1.71,1.22,2.06,3.14C222,94.87,221.81,94.61,221.65,92.13Z" style="fill: #314057;fill-rule: evenodd"/>
        <path d="M239.16,92c0,1.88-.49,3-2.14,3.7C236.88,93.93,237.58,92.94,239.16,92Z" style="fill: #314057;fill-rule: evenodd"/>
        <path d="M297.51,94.51a3,3,0,0,0-2-2.32c0,2.17.19,2.51,2,3.15Z" style="fill: #314057;fill-rule: evenodd"/>
        <path d="M.2,7a3.36,3.36,0,0,1,2.06,3.27C.32,9.48.15,9.2.2,7Z" style="fill: #314057;fill-rule: evenodd"/>
        <path d="M17.43,7c.11,2.17-.06,2.44-2,3.34A3.46,3.46,0,0,1,17.43,7Z" style="fill: #314057;fill-rule: evenodd"/>
        <path d="M76.15,10.58A3.38,3.38,0,0,1,73.88,7C75.51,7.58,76,8.72,76.15,10.58Z" style="fill: #314057;fill-rule: evenodd"/>
        <path d="M91.47,6.8c0,1.87-.48,3-2.13,3.69C89.2,8.77,89.89,7.77,91.47,6.8Z" style="fill: #314057;fill-rule: evenodd"/>
        <path d="M147.71,6.84a3.67,3.67,0,0,1,2.21,3.62C148.17,9.83,147.72,8.69,147.71,6.84Z" style="fill: #314057;fill-rule: evenodd"/>
        <path d="M163.08,10.3a3.42,3.42,0,0,1,2-3.31C165.21,9.18,165,9.45,163.08,10.3Z" style="fill: #314057;fill-rule: evenodd"/>
        <path d="M223.58,10.38c-1.57-.54-2-1.68-2-3.18C223.38,7.92,223.5,8.12,223.58,10.38Z" style="fill: #314057;fill-rule: evenodd"/>
        <path d="M236.89,10.48c.15-1.71.65-2.79,1.94-3.46C239.16,8.94,239,9.21,236.89,10.48Z" style="fill: #314057;fill-rule: evenodd"/>
        <path d="M297.51,9.51A3.16,3.16,0,0,0,295.43,7c-.11,1.59.43,2.59,2.08,3.59Z" style="fill: #314057;fill-rule: evenodd"/>
        <path d="M37.05,15.85a3,3,0,0,1,1.7-3.37C39.16,14.27,39,14.57,37.05,15.85Z" style="fill: #314057;fill-rule: evenodd"/>
        <path d="M54.55,16c-1.68-.83-2.11-2-2.28-3.65C54.06,13.07,54.57,14.17,54.55,16Z" style="fill: #314057;fill-rule: evenodd"/>
        <path d="M110.8,16.06c0-1.88.49-3,2.13-3.68C113.06,14.09,112.38,15.11,110.8,16.06Z" style="fill: #314057;fill-rule: evenodd"/>
        <path d="M128.41,16a3.66,3.66,0,0,1-2.24-3.6C127.92,13,128.38,14.16,128.41,16Z" style="fill: #314057;fill-rule: evenodd"/>
        <path d="M186.86,12.51a3.51,3.51,0,0,1-2,3.37C184.7,13.79,184.85,13.51,186.86,12.51Z" style="fill: #314057;fill-rule: evenodd"/>
        <path d="M202.13,16A3.58,3.58,0,0,1,200,12.72C201.83,13.21,202,13.48,202.13,16Z" style="fill: #314057;fill-rule: evenodd"/>
        <path d="M258.53,15.82a3.09,3.09,0,0,1,1.82-3.37C260.62,14.41,260.46,14.7,258.53,15.82Z" style="fill: #314057;fill-rule: evenodd"/>
        <path d="M275.89,15.87a3.36,3.36,0,0,1-2-3.29C275.81,13.42,276,13.7,275.89,15.87Z" style="fill: #314057;fill-rule: evenodd"/>
        <path d="M74,262.52c1.52.56,2,1.71,2.11,3.17C74.23,265.09,74.06,264.83,74,262.52Z" style="fill: #314057;fill-rule: evenodd"/>
        <path d="M89.31,265.92c.32-2.17.32-2.17,1.83-3.32C91.49,264.41,91.35,264.68,89.31,265.92Z" style="fill: #314057;fill-rule: evenodd"/>
        <path d="M150,265.81c-2-.88-2.14-1.17-2-3.31A3.43,3.43,0,0,1,150,265.81Z" style="fill: #314057;fill-rule: evenodd"/>
        <path d="M163.09,265.86a3.53,3.53,0,0,1,2-3.38C165.25,264.58,165.1,264.86,163.09,265.86Z" style="fill: #314057;fill-rule: evenodd"/>
        <path d="M223.61,265.68c-1.62-.47-2.1-1.58-2.06-3.22C223.25,263.07,223.58,264.29,223.61,265.68Z" style="fill: #314057;fill-rule: evenodd"/>
        <path d="M237,265.54c.47-2,.47-2,2-3C239.07,264.78,238.67,265.37,237,265.54Z" style="fill: #314057;fill-rule: evenodd"/>
        <path d="M297.51,265a3.11,3.11,0,0,0-2.1-2.55,3.33,3.33,0,0,0,2.1,3.52Z" style="fill: #314057;fill-rule: evenodd"/>
        <path d="M39.2,267.91c-.14,1.7-.64,2.78-1.94,3.44C37,269.41,37.09,269.14,39.2,267.91Z" style="fill: #314057;fill-rule: evenodd"/>
        <path d="M52.52,268a3,3,0,0,1,2,3.19C52.74,270.45,52.6,270.25,52.52,268Z" style="fill: #314057;fill-rule: evenodd"/>
        <path d="M110.8,271.63c0-1.95.49-3.05,2.15-3.76C113,269.58,112.36,270.59,110.8,271.63Z" style="fill: #314057;fill-rule: evenodd"/>
        <path d="M126.14,267.82c2.11,1.42,2.11,1.42,2.09,3.54C126.75,270.75,126.28,269.63,126.14,267.82Z" style="fill: #314057;fill-rule: evenodd"/>
        <path d="M184.67,271.41a3.32,3.32,0,0,1,2-3.58A3.13,3.13,0,0,1,184.67,271.41Z" style="fill: #314057;fill-rule: evenodd"/>
        <path d="M200,267.77a3.54,3.54,0,0,1,2.31,3.65C200.61,270.77,200.15,269.65,200,267.77Z" style="fill: #314057;fill-rule: evenodd"/>
        <path d="M260.7,268a3.5,3.5,0,0,1-2,3.37C258.54,269.28,258.69,269,260.7,268Z" style="fill: #314057;fill-rule: evenodd"/>
        <path d="M273.85,268c2,.93,2.15,1.21,2,3.33A3.44,3.44,0,0,1,273.85,268Z" style="fill: #314057;fill-rule: evenodd"/>
        <path d="M37.08,283.69A3.59,3.59,0,0,1,39.17,287C37.34,286.37,37.16,286.1,37.08,283.69Z" style="fill: #314057;fill-rule: evenodd"/>
        <path d="M54.5,283.56c.2,1.91-.57,2.87-2,3.81C52.21,285.54,53,284.59,54.5,283.56Z" style="fill: #314057;fill-rule: evenodd"/>
        <path d="M113,287.28C111,286,111,286,110.93,283.79,112.44,284.38,112.9,285.51,113,287.28Z" style="fill: #314057;fill-rule: evenodd"/>
        <path d="M128.21,283.85c.07,2,.07,2-1.67,3.24C126.21,285.3,126.34,285,128.21,283.85Z" style="fill: #314057;fill-rule: evenodd"/>
        <path d="M186.63,287.22a3.15,3.15,0,0,1-2-3.28C186.5,284.75,186.65,285,186.63,287.22Z" style="fill: #314057;fill-rule: evenodd"/>
        <path d="M200.12,287.17a3.28,3.28,0,0,1,1.8-3.41C202.24,285.72,202.11,286,200.12,287.17Z" style="fill: #314057;fill-rule: evenodd"/>
        <path d="M258.63,283.79A3.25,3.25,0,0,1,260.7,287C258.82,286.31,258.65,286,258.63,283.79Z" style="fill: #314057;fill-rule: evenodd"/>
        <path d="M273.93,287.17a3.59,3.59,0,0,1,1.85-3.48C276.06,285.76,275.93,286,273.93,287.17Z" style="fill: #314057;fill-rule: evenodd"/>
        <path d="M2.25,289.29a3.69,3.69,0,0,1-2,3.4C.1,290.53.28,290.23,2.25,289.29Z" style="fill: #314057;fill-rule: evenodd"/>
        <path d="M15.39,289.36c1.93.77,2.12,1.1,2.05,3.27A3.4,3.4,0,0,1,15.39,289.36Z" style="fill: #314057;fill-rule: evenodd"/>
        <path d="M73.88,292.84c0-1.87.47-3,2.12-3.71C76.16,290.86,75.45,291.84,73.88,292.84Z" style="fill: #314057;fill-rule: evenodd"/>
        <path d="M91.32,292.61c-1.53-.56-1.87-1.76-2.18-3.24C91.12,290.07,91.32,290.39,91.32,292.61Z" style="fill: #314057;fill-rule: evenodd"/>
        <path d="M149.9,289.21c-.36,2.19-.36,2.19-1.88,3.32C147.72,290.69,147.87,290.39,149.9,289.21Z" style="fill: #314057;fill-rule: evenodd"/>
        <path d="M163.08,289.38c1.91.73,2.1,1.05,2.07,3.25A3.36,3.36,0,0,1,163.08,289.38Z" style="fill: #314057;fill-rule: evenodd"/>
        <path d="M221.58,292.8a3.52,3.52,0,0,1,2.18-3.77A3.79,3.79,0,0,1,221.58,292.8Z" style="fill: #314057;fill-rule: evenodd"/>
        <path d="M239,292.72a3.69,3.69,0,0,1-2.11-3.27C238.77,290,239,290.32,239,292.72Z" style="fill: #314057;fill-rule: evenodd"/>
        <path d="M297.51,289.27c-1.93,1.11-2.09,1.45-1.8,3.34a3.3,3.3,0,0,0,1.8-2.46Z" style="fill: #314057;fill-rule: evenodd"/>
        <path d="M253.8,128.45c-1.37,1.16-2.56,1-4,.13A3.14,3.14,0,0,1,253.8,128.45Z" style="fill: #314057;fill-rule: evenodd"/>
        <path d="M284.78,128.41a3,3,0,0,1-4,.19C282.1,127.45,283.29,127.69,284.78,128.41Z" style="fill: #314057;fill-rule: evenodd"/>
        <path d="M.09,134.78a3.09,3.09,0,0,1,2.09,3.42A3,3,0,0,1,.09,134.78Z" style="fill: #314057;fill-rule: evenodd"/>
        <path d="M73.91,134.61a3.62,3.62,0,0,1,2.14,3.57C74.35,137.54,73.87,136.46,73.91,134.61Z" style="fill: #314057;fill-rule: evenodd"/>
        <path d="M149.87,138.2a3,3,0,0,1-2.1-3.42A3.09,3.09,0,0,1,149.87,138.2Z" style="fill: #314057;fill-rule: evenodd"/>
        <path d="M223.71,138.2a3,3,0,0,1-2.09-3.42A3.09,3.09,0,0,1,223.71,138.2Z" style="fill: #314057;fill-rule: evenodd"/>
        <path d="M297.51,137.34a2.91,2.91,0,0,0-2.06-2.56,3,3,0,0,0,2.06,3.38Z" style="fill: #314057;fill-rule: evenodd"/>
        <path d="M37,143.73c-.07-1.8.41-2.89,2-3.47C38.88,142.27,38.88,142.27,37,143.73Z" style="fill: #314057;fill-rule: evenodd"/>
        <path d="M54.29,143.59a3.33,3.33,0,0,1-1.95-3.12C54.21,141,54.47,141.47,54.29,143.59Z" style="fill: #314057;fill-rule: evenodd"/>
        <path d="M112.71,140.4a2.87,2.87,0,0,1-1.76,3.26C110.55,141.9,111.45,141.05,112.71,140.4Z" style="fill: #314057;fill-rule: evenodd"/>
        <path d="M126.43,140.42c1.42.63,2.16,1.57,1.84,3.17A2.76,2.76,0,0,1,126.43,140.42Z" style="fill: #314057;fill-rule: evenodd"/>
        <path d="M184.79,143.67c-.33-1.76.42-2.69,1.88-3.58A3.13,3.13,0,0,1,184.79,143.67Z" style="fill: #314057;fill-rule: evenodd"/>
        <path d="M202.28,143.78c-2-1.49-2-1.49-2.07-3.51C201.81,140.82,202.2,142,202.28,143.78Z" style="fill: #314057;fill-rule: evenodd"/>
        <path d="M260.63,140c-.33,2.47-.33,2.47-2,3.57C258.28,141.91,259.07,141,260.63,140Z" style="fill: #314057;fill-rule: evenodd"/>
        <path d="M273.92,140c1.63.93,2.26,1.93,2.11,3.57C274.27,142.47,274.27,142.47,273.92,140Z" style="fill: #314057;fill-rule: evenodd"/>
        <path d="M37,156a3.58,3.58,0,0,1,2.17,3C37.64,159.07,37.25,158.59,37,156Z" style="fill: #314057;fill-rule: evenodd"/>
        <path d="M110.81,155.8c2,1.67,2,1.67,1.92,3.59C111.23,158.72,110.75,157.63,110.81,155.8Z" style="fill: #314057;fill-rule: evenodd"/>
        <path d="M186.8,159.57c-1.64-.91-2.33-1.87-2.05-3.49C186.42,157.14,186.42,157.14,186.8,159.57Z" style="fill: #314057;fill-rule: evenodd"/>
        <path d="M258.47,155.86a3.75,3.75,0,0,1,2.23,3.52C258.89,158.82,258.5,157.68,258.47,155.86Z" style="fill: #314057;fill-rule: evenodd"/>
        <path d="M28.18,171.12c1.53-1,2.71-1.12,4,0C30.42,172,30.42,172,28.18,171.12Z" style="fill: #314057;fill-rule: evenodd"/>
        <path d="M63.35,171.15a3.65,3.65,0,0,1-3.94.17C60.91,170,60.91,170,63.35,171.15Z" style="fill: #314057;fill-rule: evenodd"/>
        <path d="M102,171.17c1.59-1,2.77-1.17,4.15,0C104.75,172.05,103.59,172,102,171.17Z" style="fill: #314057;fill-rule: evenodd"/>
        <path d="M133,171.18a3,3,0,0,1,4.11,0A3.64,3.64,0,0,1,133,171.18Z" style="fill: #314057;fill-rule: evenodd"/>
        <path d="M175.8,171.17c1.6-1,2.78-1.17,4.15,0C178.6,172.05,177.44,172,175.8,171.17Z" style="fill: #314057;fill-rule: evenodd"/>
        <path d="M206.76,171.14c1.6-1,2.77-1.1,4.17.07A3.79,3.79,0,0,1,206.76,171.14Z" style="fill: #314057;fill-rule: evenodd"/>
        <path d="M254,171.09a3.85,3.85,0,0,1-4.26.11C251.18,170,252.36,170.2,254,171.09Z" style="fill: #314057;fill-rule: evenodd"/>
        <path d="M284.67,171.23a3.78,3.78,0,0,1-3.75.19C282.37,170,282.75,170,284.67,171.23Z" style="fill: #314057;fill-rule: evenodd"/>
        <path d="M28.2,213.62c2.32-.83,2.32-.83,4,.13C30.88,214.73,29.69,214.69,28.2,213.62Z" style="fill: #314057;fill-rule: evenodd"/>
        <path d="M59.44,213.65c1.64-.85,1.64-.85,3.49-.12C61.58,214.76,61.12,214.78,59.44,213.65Z" style="fill: #314057;fill-rule: evenodd"/>
        <path d="M101.83,213.74c1.73-.94,2.89-1,4.3-.13C104.77,214.82,103.58,214.54,101.83,213.74Z" style="fill: #314057;fill-rule: evenodd"/>
        <path d="M133,213.59c1.63-.78,2.8-.86,4.1.09A3,3,0,0,1,133,213.59Z" style="fill: #314057;fill-rule: evenodd"/>
        <path d="M176,213.69a3.1,3.1,0,0,1,4,0A3,3,0,0,1,176,213.69Z" style="fill: #314057;fill-rule: evenodd"/>
        <path d="M210.9,213.71a3,3,0,0,1-4-.05A3.09,3.09,0,0,1,210.9,213.71Z" style="fill: #314057;fill-rule: evenodd"/>
        <path d="M249.7,213.75c2.14-.95,2.14-.95,4-.08C252.45,214.79,251.27,214.59,249.7,213.75Z" style="fill: #314057;fill-rule: evenodd"/>
        <path d="M280.58,213.71a3.65,3.65,0,0,1,4.17-.12C283.39,214.78,282.21,214.61,280.58,213.71Z" style="fill: #314057;fill-rule: evenodd"/>
        <path d="M.29,220a3.3,3.3,0,0,1,2,3.12C.37,222.49.12,222.09.29,220Z" style="fill: #314057;fill-rule: evenodd"/>
        <path d="M76,223.52c-1.51-.92-2.19-1.86-2.09-3.35C75.68,220.85,75.7,220.88,76,223.52Z" style="fill: #314057;fill-rule: evenodd"/>
        <path d="M147.63,219.79c2,1.41,2,1.41,2.15,3.48C148.17,222.75,147.8,221.6,147.63,219.79Z" style="fill: #314057;fill-rule: evenodd"/>
        <path d="M223.73,223.56c-1.57-1-2.35-1.91-2-3.54C223.37,221.07,223.37,221.07,223.73,223.56Z" style="fill: #314057;fill-rule: evenodd"/>
        <path d="M297.51,222.43a3,3,0,0,0-2.09-2.51,3.34,3.34,0,0,0,2.09,3.49Z" style="fill: #314057;fill-rule: evenodd"/>
        <path d="M37,228.92c-.21-1.88.53-2.82,2.08-3.76A3.71,3.71,0,0,1,37,228.92Z" style="fill: #314057;fill-rule: evenodd"/>
        <path d="M52.4,225.36a3,3,0,0,1,2.09,3.41A3.12,3.12,0,0,1,52.4,225.36Z" style="fill: #314057;fill-rule: evenodd"/>
        <path d="M112.72,225.57a2.87,2.87,0,0,1-1.77,3.25C110.55,227.06,111.45,226.21,112.72,225.57Z" style="fill: #314057;fill-rule: evenodd"/>
        <path d="M126.44,225.59a2.76,2.76,0,0,1,1.91,3.15A2.66,2.66,0,0,1,126.44,225.59Z" style="fill: #314057;fill-rule: evenodd"/>
        <path d="M186.73,225.17a3.51,3.51,0,0,1-2,3.74C184.44,227,185.26,226.14,186.73,225.17Z" style="fill: #314057;fill-rule: evenodd"/>
        <path d="M200,225.11c1.69,1,2.34,2,2.22,3.63C200.57,228.17,200.15,227.06,200,225.11Z" style="fill: #314057;fill-rule: evenodd"/>
        <path d="M258.52,228.84a3.34,3.34,0,0,1,1.76-3.47C260.63,227.23,260.57,227.35,258.52,228.84Z" style="fill: #314057;fill-rule: evenodd"/>
        <path d="M275.85,228.74a3.27,3.27,0,0,1-2-3.08C275.7,226.15,276,226.57,275.85,228.74Z" style="fill: #314057;fill-rule: evenodd"/>
        <path d="M39.11,244.73c-1.64-.91-2.33-1.87-2-3.49C38.74,242.31,38.74,242.31,39.11,244.73Z" style="fill: #314057;fill-rule: evenodd"/>
        <path d="M113,244.58a3,3,0,0,1-2.12-3.4A3.16,3.16,0,0,1,113,244.58Z" style="fill: #314057;fill-rule: evenodd"/>
        <path d="M186.8,244.73c-1.64-.91-2.34-1.87-2.05-3.49C186.43,242.31,186.43,242.31,186.8,244.73Z" style="fill: #314057;fill-rule: evenodd"/>
        <path d="M260.75,244.79c-1.75-1-2.44-1.93-2.14-3.63C260.08,241.8,260.55,242.88,260.75,244.79Z" style="fill: #314057;fill-rule: evenodd"/>
        <path d="M28.11,256.33c1.6-1,2.78-1.16,4.15,0C30.91,257.22,29.75,257.14,28.11,256.33Z" style="fill: #314057;fill-rule: evenodd"/>
        <path d="M63.11,256.45a3.48,3.48,0,0,1-3.7,0C60.94,255.17,61.33,255.16,63.11,256.45Z" style="fill: #314057;fill-rule: evenodd"/>
        <path d="M102.07,256.41a3,3,0,0,1,4-.21C104.76,257.36,103.58,257.09,102.07,256.41Z" style="fill: #314057;fill-rule: evenodd"/>
        <path d="M137.17,256.28c-2.24.88-2.24.88-4,0C134.45,255.17,135.63,255.33,137.17,256.28Z" style="fill: #314057;fill-rule: evenodd"/>
        <path d="M180.16,256.27c-2.33.89-2.33.89-4.08,0C177.37,255.16,178.55,255.35,180.16,256.27Z" style="fill: #314057;fill-rule: evenodd"/>
        <path d="M211.07,256.33a4,4,0,0,1-4.22.06C208.29,255.17,209.47,255.32,211.07,256.33Z" style="fill: #314057;fill-rule: evenodd"/>
        <path d="M249.67,256.36c1.55-1.07,2.74-1.17,4.13,0C252.47,257.23,251.3,257.13,249.67,256.36Z" style="fill: #314057;fill-rule: evenodd"/>
        <path d="M284.64,256.45a3.5,3.5,0,0,1-3.7,0C282.47,255.17,282.86,255.16,284.64,256.45Z" style="fill: #314057;fill-rule: evenodd"/>
        <path d="M32.39.86a4.06,4.06,0,0,1-4.21,0A3,3,0,0,1,32.39.86Z" style="fill: #314057;fill-rule: evenodd"/>
        <path d="M59.23.8a2.92,2.92,0,0,1,4,0A3.18,3.18,0,0,1,59.23.8Z" style="fill: #314057;fill-rule: evenodd"/>
        <path d="M106.22.87a3.64,3.64,0,0,1-4.11-.06A3,3,0,0,1,106.22.87Z" style="fill: #314057;fill-rule: evenodd"/>
        <path d="M133.06.86c1.4-1.19,2.58-1,4-.13A3.19,3.19,0,0,1,133.06.86Z" style="fill: #314057;fill-rule: evenodd"/>
        <path d="M180.12.8A3.77,3.77,0,0,1,176,.87C177.34-.3,178.52-.2,180.12.8Z" style="fill: #314057;fill-rule: evenodd"/>
        <path d="M211,.73c-2.16.93-2.16.93-4,.06C208.27-.34,209.44-.14,211,.73Z" style="fill: #314057;fill-rule: evenodd"/>
        <path d="M249.72.82c1.5-1,2.69-1.13,4-.09C252,1.67,252,1.67,249.72.82Z" style="fill: #314057;fill-rule: evenodd"/>
        <path d="M285,.81c-1.79.82-2.95.93-4.26,0C282.15-.36,283.34-.12,285,.81Z" style="fill: #314057;fill-rule: evenodd"/>
        <path d="M32.26,43.35a3,3,0,0,1-4,0A3.1,3.1,0,0,1,32.26,43.35Z" style="fill: #314057;fill-rule: evenodd"/>
        <path d="M59.07,43.34a4.16,4.16,0,0,1,4.26-.15C61.85,44.44,60.67,44.3,59.07,43.34Z" style="fill: #314057;fill-rule: evenodd"/>
        <path d="M102.22,43.25a3.33,3.33,0,0,1,3.69-.13C104.5,44.44,104.08,44.46,102.22,43.25Z" style="fill: #314057;fill-rule: evenodd"/>
        <path d="M137.07,43.31a3,3,0,0,1-4,.08C134.43,42.32,135.63,42.45,137.07,43.31Z" style="fill: #314057;fill-rule: evenodd"/>
        <path d="M180,43.32c-1.48,1-2.67,1.08-4,.07C177.83,42.46,177.83,42.46,180,43.32Z" style="fill: #314057;fill-rule: evenodd"/>
        <path d="M211,43.34a3.17,3.17,0,0,1-4.06.09C208.78,42.46,208.78,42.46,211,43.34Z" style="fill: #314057;fill-rule: evenodd"/>
        <path d="M254.13,43.22c-2.36,1.09-2.36,1.09-4.22.16C251.17,42.24,252.36,42.61,254.13,43.22Z" style="fill: #314057;fill-rule: evenodd"/>
        <path d="M280.58,43.36a3.66,3.66,0,0,1,4.17-.09C283.4,44.44,282.22,44.28,280.58,43.36Z" style="fill: #314057;fill-rule: evenodd"/>
        <path d="M.17,49.46c1.5,1,2.14,1.94,1.94,3.62A3.09,3.09,0,0,1,.17,49.46Z" style="fill: #314057;fill-rule: evenodd"/>
        <path d="M74,49.52a3.46,3.46,0,0,1,2.14,3.25C74.25,52.14,74.19,52.05,74,49.52Z" style="fill: #314057;fill-rule: evenodd"/>
        <path d="M147.67,49.39A3.67,3.67,0,0,1,149.89,53C148.17,52.39,147.75,51.27,147.67,49.39Z" style="fill: #314057;fill-rule: evenodd"/>
        <path d="M221.59,49.43A3.63,3.63,0,0,1,223.73,53C222,52.37,221.55,51.29,221.59,49.43Z" style="fill: #314057;fill-rule: evenodd"/>
        <path d="M297.37,52.79a2.75,2.75,0,0,1-1.92-3.14A2.66,2.66,0,0,1,297.37,52.79Z" style="fill: #314057;fill-rule: evenodd"/>
        <path d="M39.05,55a3.06,3.06,0,0,1-2,3.46A3,3,0,0,1,39.05,55Z" style="fill: #314057;fill-rule: evenodd"/>
        <path d="M52.24,55a3.23,3.23,0,0,1,2.32,3.49C52.81,57.84,52.51,56.64,52.24,55Z" style="fill: #314057;fill-rule: evenodd"/>
        <path d="M112.71,55.24A2.86,2.86,0,0,1,111,58.49C110.55,56.73,111.45,55.88,112.71,55.24Z" style="fill: #314057;fill-rule: evenodd"/>
        <path d="M128.33,58.44A3.13,3.13,0,0,1,126.24,55,3,3,0,0,1,128.33,58.44Z" style="fill: #314057;fill-rule: evenodd"/>
        <path d="M186.8,54.7c-.35,2.58-.35,2.58-2,3.69C184.4,56.73,185.29,55.86,186.8,54.7Z" style="fill: #314057;fill-rule: evenodd"/>
        <path d="M202.17,58.44A3.12,3.12,0,0,1,200.09,55,3,3,0,0,1,202.17,58.44Z" style="fill: #314057;fill-rule: evenodd"/>
        <path d="M260.74,54.75c-.16,2-.64,3-2.11,3.72C258.28,56.74,259.07,55.83,260.74,54.75Z" style="fill: #314057;fill-rule: evenodd"/>
        <path d="M273.9,55A3,3,0,0,1,276,58.44C274.41,57.81,273.93,56.72,273.9,55Z" style="fill: #314057;fill-rule: evenodd"/>
        <path d="M37,70.83a3.15,3.15,0,0,1,2,3.42A2.93,2.93,0,0,1,37,70.83Z" style="fill: #314057;fill-rule: evenodd"/>
        <path d="M110.79,70.73c1.88,1.4,1.88,1.4,2,3.43C111.2,73.65,110.81,72.52,110.79,70.73Z" style="fill: #314057;fill-rule: evenodd"/>
        <path d="M186.68,74c-1.81-1-1.81-1-1.93-3.09C186.33,71.44,186.65,72.62,186.68,74Z" style="fill: #314057;fill-rule: evenodd"/>
        <path d="M260.6,74.4c-1.57-.87-2.18-1.84-2.1-3.31C260.27,71.76,260.27,71.76,260.6,74.4Z" style="fill: #314057;fill-rule: evenodd"/>
        <path d="M28.16,86.14c1.5-1.33,2.68-1.09,4.15-.32C30.92,87.05,29.73,86.69,28.16,86.14Z" style="fill: #314057;fill-rule: evenodd"/>
        <path d="M59.49,86c1.16-1.07,2.31-1.05,3.69-.17C61.86,87.05,60.68,86.69,59.49,86Z" style="fill: #314057;fill-rule: evenodd"/>
        <path d="M102,85.93c1.56-.92,2.74-1.1,4,0C104.23,86.83,104.23,86.83,102,85.93Z" style="fill: #314057;fill-rule: evenodd"/>
        <path d="M137.18,86a3.9,3.9,0,0,1-4,.22C134.75,84.86,134.75,84.86,137.18,86Z" style="fill: #314057;fill-rule: evenodd"/>
        <path d="M175.82,86c1.56-1.07,2.74-1.17,4.14,0C178.62,86.9,177.46,86.8,175.82,86Z" style="fill: #314057;fill-rule: evenodd"/>
        <path d="M206.85,86c1.47-1.08,2.65-1.09,3.94-.09C209,86.83,209,86.83,206.85,86Z" style="fill: #314057;fill-rule: evenodd"/>
        <path d="M249.68,86.13c1.51-1.31,2.69-1.1,4.16-.31C252.45,87,251.26,86.69,249.68,86.13Z" style="fill: #314057;fill-rule: evenodd"/>
        <path d="M280.75,86a2.92,2.92,0,0,1,4-.07A3.19,3.19,0,0,1,280.75,86Z" style="fill: #314057;fill-rule: evenodd"/>
        <path d="M28.29,128.54a3.1,3.1,0,0,1,4,0A3,3,0,0,1,28.29,128.54Z" style="fill: #314057;fill-rule: evenodd"/>
        <path d="M63.35,128.31c-1.51,1.36-2.69,1.08-4.17.36C60.57,127.38,61.77,127.81,63.35,128.31Z" style="fill: #314057;fill-rule: evenodd"/>
        <path d="M102.22,128.42a3.33,3.33,0,0,1,3.69-.14C104.5,129.6,104.08,129.62,102.22,128.42Z" style="fill: #314057;fill-rule: evenodd"/>
        <path d="M132.94,128.46a3.59,3.59,0,0,1,4.12,0C135.67,129.57,134.48,129.52,132.94,128.46Z" style="fill: #314057;fill-rule: evenodd"/>
        <path d="M180.05,128.44c-1.49,1.18-2.68,1-4.19.12A3.59,3.59,0,0,1,180.05,128.44Z" style="fill: #314057;fill-rule: evenodd"/>
        <path d="M206.92,128.49a3.1,3.1,0,0,1,4,0A3,3,0,0,1,206.92,128.49Z" style="fill: #314057;fill-rule: evenodd"/>
        <path d="M26.28,192.37a3.21,3.21,0,0,1-4,.07A3.22,3.22,0,0,1,26.28,192.37Z" style="fill: #314057;fill-rule: evenodd"/>
        <path d="M65.54,192.17a3,3,0,0,1,3.42,0C67.42,193.52,67,193.52,65.54,192.17Z" style="fill: #314057;fill-rule: evenodd"/>
        <path d="M100.06,192.39a3,3,0,0,1-3.6.28C97.54,191.38,97.69,191.36,100.06,192.39Z" style="fill: #314057;fill-rule: evenodd"/>
        <path d="M143.11,192.39a3.32,3.32,0,0,1-4.07.05A3.28,3.28,0,0,1,143.11,192.39Z" style="fill: #314057;fill-rule: evenodd"/>
        <path d="M173.65,192.57a2.79,2.79,0,0,1-3.38.06C171.58,191.31,172.14,191.3,173.65,192.57Z" style="fill: #314057;fill-rule: evenodd"/>
        <path d="M212.89,192.38c1.52-.88,2.64-.94,4,0A3.11,3.11,0,0,1,212.89,192.38Z" style="fill: #314057;fill-rule: evenodd"/>
        <path d="M247.86,192.32a3.11,3.11,0,0,1-4,.14C245.11,191.41,246.24,191.53,247.86,192.32Z" style="fill: #314057;fill-rule: evenodd"/>
        <path d="M286.92,192.31a3,3,0,0,1,3.6-.09C288.93,193.47,288.93,193.47,286.92,192.31Z" style="fill: #314057;fill-rule: evenodd"/>
        <path d="M26.37,277.49c-1.59,1-2.71,1-4.05.1C23.66,276.56,24.78,276.73,26.37,277.49Z" style="fill: #314057;fill-rule: evenodd"/>
        <path d="M65.54,277.34a3,3,0,0,1,3.42,0C67.42,278.69,67,278.69,65.54,277.34Z" style="fill: #314057;fill-rule: evenodd"/>
        <path d="M100.13,277.52a3.18,3.18,0,0,1-4,.1C97.48,276.6,98.6,276.66,100.13,277.52Z" style="fill: #314057;fill-rule: evenodd"/>
        <path d="M143.12,277.55a3.13,3.13,0,0,1-4,0A3.23,3.23,0,0,1,143.12,277.55Z" style="fill: #314057;fill-rule: evenodd"/>
        <path d="M174,277.51a3.12,3.12,0,0,1-4,.09C171.3,276.58,172.43,276.68,174,277.51Z" style="fill: #314057;fill-rule: evenodd"/>
        <path d="M216.76,277.66a2.89,2.89,0,0,1-3.57.08C214.72,276.52,214.82,276.52,216.76,277.66Z" style="fill: #314057;fill-rule: evenodd"/>
        <path d="M247.68,277.63a2.91,2.91,0,0,1-3.59.14C245.45,276.53,245.55,276.52,247.68,277.63Z" style="fill: #314057;fill-rule: evenodd"/>
        <path d="M290.58,277.68a2.84,2.84,0,0,1-3.55,0C288.65,276.52,288.71,276.51,290.58,277.68Z" style="fill: #314057;fill-rule: evenodd"/>
        <path d="M142.92,107.33a2.89,2.89,0,0,1-3.57.08C140.88,106.19,141,106.19,142.92,107.33Z" style="fill: #314057;fill-rule: evenodd"/>
        <path d="M96.17,107.16a3.26,3.26,0,0,1,3.67-.16C98.36,108.29,98.32,108.3,96.17,107.16Z" style="fill: #314057;fill-rule: evenodd"/>
        <path d="M69.15,107.3a2.89,2.89,0,0,1-3.59.13C66.88,106.21,67,106.2,69.15,107.3Z" style="fill: #314057;fill-rule: evenodd"/>
        <path d="M22.33,107.21c1.88-.81,1.88-.81,3.58-.18C24.66,108.27,24.54,108.28,22.33,107.21Z" style="fill: #314057;fill-rule: evenodd"/>
        <path d="M290.57,107.35a3,3,0,0,1-3.6.08C288.67,106.18,288.73,106.18,290.57,107.35Z" style="fill: #314057;fill-rule: evenodd"/>
        <path d="M243.84,107.31c2-1,2-1,3.82,0A3.08,3.08,0,0,1,243.84,107.31Z" style="fill: #314057;fill-rule: evenodd"/>
        <path d="M216.83,107.3a2.88,2.88,0,0,1-3.58.13C214.56,106.21,214.73,106.2,216.83,107.3Z" style="fill: #314057;fill-rule: evenodd"/>
        <path d="M173.86,107.31c-1.92.78-1.92.78-3.59.11C171.61,106.2,171.7,106.19,173.86,107.31Z" style="fill: #314057;fill-rule: evenodd"/>
        <path d="M291,64.67c-1.76.85-2.93,1-4.16,0C288.14,63.57,289.34,63.79,291,64.67Z" style="fill: #314057;fill-rule: evenodd"/>
        <path d="M247.79,64.63a3,3,0,0,1-3.93,0A3,3,0,0,1,247.79,64.63Z" style="fill: #314057;fill-rule: evenodd"/>
        <path d="M216.94,64.64c-2.09.9-2.09.9-3.94,0C214.27,63.63,215.46,63.74,216.94,64.64Z" style="fill: #314057;fill-rule: evenodd"/>
        <path d="M170,64.69a3.06,3.06,0,0,1,4-.08A3.08,3.08,0,0,1,170,64.69Z" style="fill: #314057;fill-rule: evenodd"/>
        <path d="M143,64.61c-1.33,1.06-2.52.93-3.93.09A3,3,0,0,1,143,64.61Z" style="fill: #314057;fill-rule: evenodd"/>
        <path d="M100.4,64.61c-1.75.92-2.92,1-4.21.08C97.51,63.54,98.7,63.85,100.4,64.61Z" style="fill: #314057;fill-rule: evenodd"/>
        <path d="M65.17,64.64A3.18,3.18,0,0,1,69,64.48C67.59,65.61,67.45,65.62,65.17,64.64Z" style="fill: #314057;fill-rule: evenodd"/>
        <path d="M26.27,64.7c-1.41.84-2.61,1-3.93-.09A3,3,0,0,1,26.27,64.7Z" style="fill: #314057;fill-rule: evenodd"/>
        <path d="M22.27,149.8a3.16,3.16,0,0,1,3.81-.16C24.62,150.78,24.47,150.79,22.27,149.8Z" style="fill: #314057;fill-rule: evenodd"/>
        <path d="M65.13,149.87c2.12-1,2.12-1,4-.08C67.86,150.85,66.68,150.66,65.13,149.87Z" style="fill: #314057;fill-rule: evenodd"/>
        <path d="M96.18,149.8a3,3,0,0,1,3.93,0A3,3,0,0,1,96.18,149.8Z" style="fill: #314057;fill-rule: evenodd"/>
        <path d="M143.14,149.86c-1.57.87-2.73.91-4,0C140.44,148.81,141.63,148.88,143.14,149.86Z" style="fill: #314057;fill-rule: evenodd"/>
        <path d="M174,149.78a3,3,0,0,1-3.93.07A3,3,0,0,1,174,149.78Z" style="fill: #314057;fill-rule: evenodd"/>
        <path d="M212.77,149.82c1.58-.93,2.75-1,4.06,0C215.52,150.85,214.34,150.67,212.77,149.82Z" style="fill: #314057;fill-rule: evenodd"/>
        <path d="M22.34,235a3,3,0,0,1,3.92,0A3,3,0,0,1,22.34,235Z" style="fill: #314057;fill-rule: evenodd"/>
        <path d="M69.25,235a3.3,3.3,0,0,1-3.85.16C66.91,234,67,234,69.25,235Z" style="fill: #314057;fill-rule: evenodd"/>
        <path d="M100.11,235a3.05,3.05,0,0,1-3.93,0A3,3,0,0,1,100.11,235Z" style="fill: #314057;fill-rule: evenodd"/>
        <path d="M143.09,234.94c-1.47,1.08-2.65.88-4.11.11A3.24,3.24,0,0,1,143.09,234.94Z" style="fill: #314057;fill-rule: evenodd"/>
        <path d="M174,234.85c-1.42,1.23-2.62.91-4.11.29C171.36,233.86,172.56,234.18,174,234.85Z" style="fill: #314057;fill-rule: evenodd"/>
        <path d="M212.77,235c1.56-.92,2.74-1.07,4.06,0C215.53,236,214.37,235.86,212.77,235Z" style="fill: #314057;fill-rule: evenodd"/>
        <path d="M248,235a3.44,3.44,0,0,1-4.09.08C245.19,233.94,246.37,234.11,248,235Z" style="fill: #314057;fill-rule: evenodd"/>
        <path d="M286.66,235.07a3.26,3.26,0,0,1,4.11-.15C289.32,236,288.13,235.8,286.66,235.07Z" style="fill: #314057;fill-rule: evenodd"/>
        <path d="M247.92,149.84a3.85,3.85,0,0,1-4.16.1C245.2,148.79,246.39,148.91,247.92,149.84Z" style="fill: #314057;fill-rule: evenodd"/>
        <path d="M290.7,149.83a3,3,0,0,1-3.93,0A3,3,0,0,1,290.7,149.83Z" style="fill: #314057;fill-rule: evenodd"/>
        <path d="M286.77,22.09a3.26,3.26,0,0,1,4-.05A3.19,3.19,0,0,1,286.77,22.09Z" style="fill: #314057;fill-rule: evenodd"/>
        <path d="M247.68,22.12a2.88,2.88,0,0,1-3.59.15C245.45,21,245.54,21,247.68,22.12Z" style="fill: #314057;fill-rule: evenodd"/>
        <path d="M212.89,22c1.53-.87,2.65-.94,4,0C215.51,23.05,214.4,23,212.89,22Z" style="fill: #314057;fill-rule: evenodd"/>
        <path d="M169.94,22.11a3.19,3.19,0,0,1,4-.07A3.17,3.17,0,0,1,169.94,22.11Z" style="fill: #314057;fill-rule: evenodd"/>
        <path d="M143,22.14a2.88,2.88,0,0,1-3.58.12C140.72,21.05,140.89,21,143,22.14Z" style="fill: #314057;fill-rule: evenodd"/>
        <path d="M99.94,22.15a2.9,2.9,0,0,1-3.58.11C97.9,21,97.93,21,99.94,22.15Z" style="fill: #314057;fill-rule: evenodd"/>
        <path d="M69.08,22.16a2.87,2.87,0,0,1-3.57.08C67,21,67.13,21,69.08,22.16Z" style="fill: #314057;fill-rule: evenodd"/>
        <path d="M22.24,22.08a3.24,3.24,0,0,1,4,0A3.15,3.15,0,0,1,22.24,22.08Z" style="fill: #314057;fill-rule: evenodd"/>
      </g>
    </g>
  </g>
</svg>
